<svg xmlns="http://www.w3.org/2000/svg" xmlns:xlink="http://www.w3.org/1999/xlink" width="1018" zoomAndPan="magnify" viewBox="0 0 763.5 179.249993" height="239" preserveAspectRatio="xMidYMid meet" version="1.0"><defs><g/><clipPath id="f132a6b908"><path d="M 1.339844 0 L 761.464844 0 L 761.464844 178.199219 L 1.339844 178.199219 Z M 1.339844 0 " clip-rule="nonzero"/></clipPath><clipPath id="21fa1d682d"><path d="M 39.433594 0 L 723.113281 0 C 744.148438 0 761.203125 17.054688 761.203125 38.089844 L 761.203125 140.105469 C 761.203125 161.144531 744.148438 178.199219 723.113281 178.199219 L 39.433594 178.199219 C 18.394531 178.199219 1.339844 161.144531 1.339844 140.105469 L 1.339844 38.089844 C 1.339844 17.054688 18.394531 0 39.433594 0 Z M 39.433594 0 " clip-rule="nonzero"/></clipPath></defs><g clip-path="url(#f132a6b908)"><g clip-path="url(#21fa1d682d)"><path fill="#ffffff" d="M 1.339844 0 L 761.464844 0 L 761.464844 178.199219 L 1.339844 178.199219 Z M 1.339844 0 " fill-opacity="1" fill-rule="nonzero"/></g></g><g fill="#000000" fill-opacity="1"><g transform="translate(46.668976, 120.495044)"><g><path d="M 10.578125 0 L 6.84375 0 L 1.3125 -24.1875 L 4.125 -24.1875 L 8.671875 -4.1875 L 9.078125 -4.1875 L 14.515625 -24.1875 L 17.140625 -24.1875 L 22.578125 -4.1875 L 22.984375 -4.1875 L 27.546875 -24.1875 L 30.28125 -24.1875 L 24.75 0 L 21.015625 0 L 15.96875 -18.3125 L 15.625 -18.3125 Z M 10.578125 0 "/></g></g></g><g fill="#000000" fill-opacity="1"><g transform="translate(78.255819, 120.495044)"><g><path d="M 3.171875 0 L 3.171875 -25.578125 L 5.875 -25.578125 L 5.875 -15.65625 L 6.21875 -15.59375 C 7.519531 -17.59375 9.398438 -18.59375 11.859375 -18.59375 C 14.054688 -18.59375 15.648438 -18.03125 16.640625 -16.90625 C 17.628906 -15.789062 18.125 -14.070312 18.125 -11.75 L 18.125 0 L 15.421875 0 L 15.421875 -11.6875 C 15.421875 -12.789062 15.28125 -13.675781 15 -14.34375 C 14.71875 -15.007812 14.28125 -15.492188 13.6875 -15.796875 C 13.101562 -16.097656 12.332031 -16.25 11.375 -16.25 C 9.71875 -16.25 8.382812 -15.710938 7.375 -14.640625 C 6.375 -13.578125 5.875 -11.816406 5.875 -9.359375 L 5.875 0 Z M 3.171875 0 "/></g></g></g><g fill="#000000" fill-opacity="1"><g transform="translate(99.269584, 120.495044)"><g><path d="M 7.53125 0.34375 C 5.726562 0.34375 4.320312 -0.125 3.3125 -1.0625 C 2.300781 -2 1.796875 -3.335938 1.796875 -5.078125 C 1.796875 -6.160156 2.019531 -7.070312 2.46875 -7.8125 C 2.914062 -8.5625 3.609375 -9.171875 4.546875 -9.640625 C 5.484375 -10.109375 6.707031 -10.46875 8.21875 -10.71875 C 9.539062 -10.9375 10.546875 -11.179688 11.234375 -11.453125 C 11.929688 -11.734375 12.394531 -12.046875 12.625 -12.390625 C 12.863281 -12.734375 12.984375 -13.164062 12.984375 -13.6875 C 12.984375 -14.507812 12.695312 -15.140625 12.125 -15.578125 C 11.5625 -16.023438 10.65625 -16.25 9.40625 -16.25 C 8.21875 -16.25 7.203125 -16.019531 6.359375 -15.5625 C 5.515625 -15.101562 4.738281 -14.421875 4.03125 -13.515625 L 3.703125 -13.515625 L 2.390625 -15.390625 C 3.160156 -16.367188 4.140625 -17.144531 5.328125 -17.71875 C 6.515625 -18.300781 7.875 -18.59375 9.40625 -18.59375 C 11.550781 -18.59375 13.132812 -18.117188 14.15625 -17.171875 C 15.175781 -16.234375 15.6875 -14.929688 15.6875 -13.265625 L 15.6875 -3.59375 C 15.6875 -2.570312 16.117188 -2.0625 16.984375 -2.0625 C 17.265625 -2.0625 17.539062 -2.113281 17.8125 -2.21875 L 18.03125 -2.15625 L 18.359375 -0.28125 C 18.148438 -0.144531 17.882812 -0.046875 17.5625 0.015625 C 17.238281 0.0859375 16.90625 0.125 16.5625 0.125 C 15.5625 0.125 14.800781 -0.09375 14.28125 -0.53125 C 13.769531 -0.96875 13.445312 -1.617188 13.3125 -2.484375 L 12.953125 -2.515625 C 12.429688 -1.554688 11.726562 -0.835938 10.84375 -0.359375 C 9.96875 0.109375 8.863281 0.34375 7.53125 0.34375 Z M 8.125 -1.796875 C 9.132812 -1.796875 10.007812 -2.03125 10.75 -2.5 C 11.5 -2.96875 12.070312 -3.628906 12.46875 -4.484375 C 12.875 -5.335938 13.078125 -6.320312 13.078125 -7.4375 L 13.078125 -9.75 L 12.765625 -9.8125 C 12.347656 -9.519531 11.847656 -9.273438 11.265625 -9.078125 C 10.679688 -8.890625 9.863281 -8.722656 8.8125 -8.578125 C 7.757812 -8.429688 6.921875 -8.207031 6.296875 -7.90625 C 5.671875 -7.613281 5.222656 -7.238281 4.953125 -6.78125 C 4.691406 -6.320312 4.5625 -5.753906 4.5625 -5.078125 C 4.5625 -4.003906 4.875 -3.1875 5.5 -2.625 C 6.132812 -2.070312 7.007812 -1.796875 8.125 -1.796875 Z M 8.125 -1.796875 "/></g></g></g><g fill="#000000" fill-opacity="1"><g transform="translate(117.933779, 120.495044)"><g><path d="M 12.34375 -2.890625 L 13.203125 -0.953125 C 12.773438 -0.523438 12.207031 -0.203125 11.5 0.015625 C 10.800781 0.234375 10.046875 0.34375 9.234375 0.34375 C 5.742188 0.34375 4 -1.421875 4 -4.953125 L 4 -16.046875 L 0.828125 -16.046875 L 0.828125 -18.265625 L 4 -18.265625 L 4 -22.125 L 6.703125 -22.578125 L 6.703125 -18.265625 L 12.578125 -18.265625 L 12.578125 -16.046875 L 6.703125 -16.046875 L 6.703125 -5.21875 C 6.703125 -3.113281 7.613281 -2.0625 9.4375 -2.0625 C 10.425781 -2.0625 11.28125 -2.335938 12 -2.890625 Z M 12.34375 -2.890625 "/></g></g></g><g fill="#000000" fill-opacity="1"><g transform="translate(131.832647, 120.495044)"><g/></g></g><g fill="#000000" fill-opacity="1"><g transform="translate(140.138876, 120.495044)"><g><path d="M 9.46875 0.34375 C 8 0.34375 6.703125 -0.00390625 5.578125 -0.703125 C 4.460938 -1.398438 3.585938 -2.453125 2.953125 -3.859375 C 2.316406 -5.273438 2 -7.03125 2 -9.125 C 2 -11.207031 2.328125 -12.957031 2.984375 -14.375 C 3.648438 -15.789062 4.566406 -16.847656 5.734375 -17.546875 C 6.898438 -18.242188 8.25 -18.59375 9.78125 -18.59375 C 10.988281 -18.59375 12.078125 -18.363281 13.046875 -17.90625 C 14.023438 -17.457031 14.863281 -16.707031 15.5625 -15.65625 L 15.90625 -15.71875 L 15.90625 -25.578125 L 18.59375 -25.578125 L 18.59375 0 L 15.90625 0 L 15.90625 -2.671875 L 15.5625 -2.734375 C 14.957031 -1.828125 14.144531 -1.085938 13.125 -0.515625 C 12.101562 0.0546875 10.882812 0.34375 9.46875 0.34375 Z M 10.3125 -2.0625 C 12.007812 -2.0625 13.363281 -2.644531 14.375 -3.8125 C 15.394531 -4.976562 15.90625 -6.75 15.90625 -9.125 C 15.90625 -11.5 15.394531 -13.269531 14.375 -14.4375 C 13.363281 -15.601562 12.007812 -16.1875 10.3125 -16.1875 C 8.550781 -16.1875 7.195312 -15.617188 6.25 -14.484375 C 5.300781 -13.347656 4.828125 -11.5625 4.828125 -9.125 C 4.828125 -4.414062 6.65625 -2.0625 10.3125 -2.0625 Z M 10.3125 -2.0625 "/></g></g></g><g fill="#000000" fill-opacity="1"><g transform="translate(161.930326, 120.495044)"><g><path d="M 10.46875 0.34375 C 8.75 0.34375 7.253906 -0.0195312 5.984375 -0.75 C 4.710938 -1.476562 3.726562 -2.550781 3.03125 -3.96875 C 2.34375 -5.382812 2 -7.101562 2 -9.125 C 2 -11.132812 2.34375 -12.851562 3.03125 -14.28125 C 3.726562 -15.707031 4.710938 -16.78125 5.984375 -17.5 C 7.253906 -18.226562 8.75 -18.59375 10.46875 -18.59375 C 12.195312 -18.59375 13.695312 -18.226562 14.96875 -17.5 C 16.238281 -16.78125 17.21875 -15.707031 17.90625 -14.28125 C 18.601562 -12.851562 18.953125 -11.132812 18.953125 -9.125 C 18.953125 -7.101562 18.601562 -5.382812 17.90625 -3.96875 C 17.21875 -2.550781 16.238281 -1.476562 14.96875 -0.75 C 13.695312 -0.0195312 12.195312 0.34375 10.46875 0.34375 Z M 10.46875 -2.0625 C 12.289062 -2.0625 13.679688 -2.632812 14.640625 -3.78125 C 15.609375 -4.9375 16.09375 -6.71875 16.09375 -9.125 C 16.09375 -11.53125 15.609375 -13.304688 14.640625 -14.453125 C 13.679688 -15.609375 12.289062 -16.1875 10.46875 -16.1875 C 8.65625 -16.1875 7.257812 -15.609375 6.28125 -14.453125 C 5.3125 -13.296875 4.828125 -11.519531 4.828125 -9.125 C 4.828125 -6.71875 5.3125 -4.9375 6.28125 -3.78125 C 7.257812 -2.632812 8.65625 -2.0625 10.46875 -2.0625 Z M 10.46875 -2.0625 "/></g></g></g><g fill="#000000" fill-opacity="1"><g transform="translate(182.877906, 120.495044)"><g><path d="M 17.390625 -8.5 L 4.84375 -8.5 C 4.925781 -6.28125 5.457031 -4.648438 6.4375 -3.609375 C 7.425781 -2.578125 8.785156 -2.0625 10.515625 -2.0625 C 11.804688 -2.0625 12.847656 -2.289062 13.640625 -2.75 C 14.441406 -3.21875 15.066406 -3.953125 15.515625 -4.953125 L 15.875 -4.953125 L 17.625 -3.90625 C 17.09375 -2.582031 16.242188 -1.539062 15.078125 -0.78125 C 13.921875 -0.03125 12.398438 0.34375 10.515625 0.34375 C 8.742188 0.34375 7.222656 0 5.953125 -0.6875 C 4.679688 -1.382812 3.703125 -2.4375 3.015625 -3.84375 C 2.335938 -5.257812 2 -7.019531 2 -9.125 C 2 -11.195312 2.359375 -12.941406 3.078125 -14.359375 C 3.804688 -15.785156 4.796875 -16.847656 6.046875 -17.546875 C 7.296875 -18.242188 8.726562 -18.59375 10.34375 -18.59375 C 12.675781 -18.59375 14.5 -17.929688 15.8125 -16.609375 C 17.132812 -15.296875 17.800781 -13.34375 17.8125 -10.75 C 17.8125 -9.738281 17.785156 -9.054688 17.734375 -8.703125 Z M 15.140625 -10.75 C 15.097656 -12.695312 14.664062 -14.109375 13.84375 -14.984375 C 13.03125 -15.867188 11.863281 -16.3125 10.34375 -16.3125 C 8.738281 -16.3125 7.484375 -15.867188 6.578125 -14.984375 C 5.671875 -14.097656 5.117188 -12.6875 4.921875 -10.75 Z M 15.140625 -10.75 "/></g></g></g><g fill="#000000" fill-opacity="1"><g transform="translate(202.336322, 120.495044)"><g><path d="M 8.328125 0.34375 C 7.179688 0.34375 6.117188 0.191406 5.140625 -0.109375 C 4.160156 -0.410156 3.332031 -0.828125 2.65625 -1.359375 C 1.988281 -1.890625 1.515625 -2.484375 1.234375 -3.140625 L 2.828125 -4.796875 L 3.171875 -4.796875 C 3.773438 -3.890625 4.492188 -3.207031 5.328125 -2.75 C 6.171875 -2.289062 7.171875 -2.0625 8.328125 -2.0625 C 9.671875 -2.0625 10.691406 -2.320312 11.390625 -2.84375 C 12.085938 -3.375 12.4375 -4.109375 12.4375 -5.046875 C 12.4375 -5.765625 12.222656 -6.359375 11.796875 -6.828125 C 11.378906 -7.296875 10.695312 -7.644531 9.75 -7.875 L 6.671875 -8.640625 C 5.023438 -9.035156 3.820312 -9.660156 3.0625 -10.515625 C 2.3125 -11.378906 1.9375 -12.445312 1.9375 -13.71875 C 1.9375 -14.707031 2.1875 -15.566406 2.6875 -16.296875 C 3.195312 -17.035156 3.929688 -17.601562 4.890625 -18 C 5.847656 -18.394531 6.984375 -18.59375 8.296875 -18.59375 C 9.972656 -18.59375 11.289062 -18.359375 12.25 -17.890625 C 13.21875 -17.421875 13.972656 -16.769531 14.515625 -15.9375 L 12.984375 -14.453125 L 12.65625 -14.453125 C 12.070312 -15.117188 11.4375 -15.597656 10.75 -15.890625 C 10.0625 -16.191406 9.242188 -16.34375 8.296875 -16.34375 C 7.085938 -16.34375 6.160156 -16.128906 5.515625 -15.703125 C 4.878906 -15.273438 4.5625 -14.648438 4.5625 -13.828125 C 4.5625 -13.085938 4.785156 -12.492188 5.234375 -12.046875 C 5.691406 -11.597656 6.484375 -11.234375 7.609375 -10.953125 L 10.640625 -10.234375 C 12.222656 -9.859375 13.367188 -9.234375 14.078125 -8.359375 C 14.785156 -7.484375 15.140625 -6.390625 15.140625 -5.078125 C 15.140625 -4.003906 14.882812 -3.0625 14.375 -2.25 C 13.875 -1.4375 13.109375 -0.800781 12.078125 -0.34375 C 11.054688 0.113281 9.804688 0.34375 8.328125 0.34375 Z M 8.328125 0.34375 "/></g></g></g><g fill="#000000" fill-opacity="1"><g transform="translate(219.213519, 120.495044)"><g/></g></g><g fill="#000000" fill-opacity="1"><g transform="translate(227.519748, 120.495044)"><g><path d="M 7.53125 0.34375 C 5.726562 0.34375 4.320312 -0.125 3.3125 -1.0625 C 2.300781 -2 1.796875 -3.335938 1.796875 -5.078125 C 1.796875 -6.160156 2.019531 -7.070312 2.46875 -7.8125 C 2.914062 -8.5625 3.609375 -9.171875 4.546875 -9.640625 C 5.484375 -10.109375 6.707031 -10.46875 8.21875 -10.71875 C 9.539062 -10.9375 10.546875 -11.179688 11.234375 -11.453125 C 11.929688 -11.734375 12.394531 -12.046875 12.625 -12.390625 C 12.863281 -12.734375 12.984375 -13.164062 12.984375 -13.6875 C 12.984375 -14.507812 12.695312 -15.140625 12.125 -15.578125 C 11.5625 -16.023438 10.65625 -16.25 9.40625 -16.25 C 8.21875 -16.25 7.203125 -16.019531 6.359375 -15.5625 C 5.515625 -15.101562 4.738281 -14.421875 4.03125 -13.515625 L 3.703125 -13.515625 L 2.390625 -15.390625 C 3.160156 -16.367188 4.140625 -17.144531 5.328125 -17.71875 C 6.515625 -18.300781 7.875 -18.59375 9.40625 -18.59375 C 11.550781 -18.59375 13.132812 -18.117188 14.15625 -17.171875 C 15.175781 -16.234375 15.6875 -14.929688 15.6875 -13.265625 L 15.6875 -3.59375 C 15.6875 -2.570312 16.117188 -2.0625 16.984375 -2.0625 C 17.265625 -2.0625 17.539062 -2.113281 17.8125 -2.21875 L 18.03125 -2.15625 L 18.359375 -0.28125 C 18.148438 -0.144531 17.882812 -0.046875 17.5625 0.015625 C 17.238281 0.0859375 16.90625 0.125 16.5625 0.125 C 15.5625 0.125 14.800781 -0.09375 14.28125 -0.53125 C 13.769531 -0.96875 13.445312 -1.617188 13.3125 -2.484375 L 12.953125 -2.515625 C 12.429688 -1.554688 11.726562 -0.835938 10.84375 -0.359375 C 9.96875 0.109375 8.863281 0.34375 7.53125 0.34375 Z M 8.125 -1.796875 C 9.132812 -1.796875 10.007812 -2.03125 10.75 -2.5 C 11.5 -2.96875 12.070312 -3.628906 12.46875 -4.484375 C 12.875 -5.335938 13.078125 -6.320312 13.078125 -7.4375 L 13.078125 -9.75 L 12.765625 -9.8125 C 12.347656 -9.519531 11.847656 -9.273438 11.265625 -9.078125 C 10.679688 -8.890625 9.863281 -8.722656 8.8125 -8.578125 C 7.757812 -8.429688 6.921875 -8.207031 6.296875 -7.90625 C 5.671875 -7.613281 5.222656 -7.238281 4.953125 -6.78125 C 4.691406 -6.320312 4.5625 -5.753906 4.5625 -5.078125 C 4.5625 -4.003906 4.875 -3.1875 5.5 -2.625 C 6.132812 -2.070312 7.007812 -1.796875 8.125 -1.796875 Z M 8.125 -1.796875 "/></g></g></g><g fill="#000000" fill-opacity="1"><g transform="translate(246.399054, 120.495044)"><g/></g></g><g fill="#000000" fill-opacity="1"><g transform="translate(254.705283, 120.495044)"><g><path d="M 7.265625 0.34375 C 5.972656 0.34375 4.957031 -0.0195312 4.21875 -0.75 C 3.476562 -1.488281 3.109375 -2.582031 3.109375 -4.03125 L 3.109375 -25.578125 L 5.8125 -25.578125 L 5.8125 -4.21875 C 5.8125 -3.457031 5.957031 -2.90625 6.25 -2.5625 C 6.539062 -2.226562 6.992188 -2.0625 7.609375 -2.0625 C 7.984375 -2.0625 8.363281 -2.125 8.75 -2.25 L 8.984375 -2.1875 L 9.296875 -0.0625 C 9.097656 0.0625 8.8125 0.160156 8.4375 0.234375 C 8.070312 0.304688 7.679688 0.34375 7.265625 0.34375 Z M 7.265625 0.34375 "/></g></g></g><g fill="#000000" fill-opacity="1"><g transform="translate(264.633046, 120.495044)"><g><path d="M 10.46875 0.34375 C 8.75 0.34375 7.253906 -0.0195312 5.984375 -0.75 C 4.710938 -1.476562 3.726562 -2.550781 3.03125 -3.96875 C 2.34375 -5.382812 2 -7.101562 2 -9.125 C 2 -11.132812 2.34375 -12.851562 3.03125 -14.28125 C 3.726562 -15.707031 4.710938 -16.78125 5.984375 -17.5 C 7.253906 -18.226562 8.75 -18.59375 10.46875 -18.59375 C 12.195312 -18.59375 13.695312 -18.226562 14.96875 -17.5 C 16.238281 -16.78125 17.21875 -15.707031 17.90625 -14.28125 C 18.601562 -12.851562 18.953125 -11.132812 18.953125 -9.125 C 18.953125 -7.101562 18.601562 -5.382812 17.90625 -3.96875 C 17.21875 -2.550781 16.238281 -1.476562 14.96875 -0.75 C 13.695312 -0.0195312 12.195312 0.34375 10.46875 0.34375 Z M 10.46875 -2.0625 C 12.289062 -2.0625 13.679688 -2.632812 14.640625 -3.78125 C 15.609375 -4.9375 16.09375 -6.71875 16.09375 -9.125 C 16.09375 -11.53125 15.609375 -13.304688 14.640625 -14.453125 C 13.679688 -15.609375 12.289062 -16.1875 10.46875 -16.1875 C 8.65625 -16.1875 7.257812 -15.609375 6.28125 -14.453125 C 5.3125 -13.296875 4.828125 -11.519531 4.828125 -9.125 C 4.828125 -6.71875 5.3125 -4.9375 6.28125 -3.78125 C 7.257812 -2.632812 8.65625 -2.0625 10.46875 -2.0625 Z M 10.46875 -2.0625 "/></g></g></g><g fill="#000000" fill-opacity="1"><g transform="translate(285.448256, 120.495044)"><g><path d="M 9.046875 0 L 5.640625 0 L 1.171875 -18.25 L 3.84375 -18.25 L 7.296875 -3.140625 L 7.640625 -3.140625 L 11.890625 -18.25 L 14.734375 -18.25 L 19.109375 -3.140625 L 19.453125 -3.140625 L 22.859375 -18.25 L 25.4375 -18.25 L 21.015625 0 L 17.59375 0 L 13.421875 -14.171875 L 13.078125 -14.171875 Z M 9.046875 0 "/></g></g></g><g fill="#000000" fill-opacity="1"><g transform="translate(312.054662, 120.495044)"><g/></g></g><g fill="#000000" fill-opacity="1"><g transform="translate(320.36089, 120.495044)"><g><path d="M 3.171875 0 L 3.171875 -25.578125 L 5.875 -25.578125 L 5.875 -15.65625 L 6.21875 -15.59375 C 7.519531 -17.59375 9.398438 -18.59375 11.859375 -18.59375 C 14.054688 -18.59375 15.648438 -18.03125 16.640625 -16.90625 C 17.628906 -15.789062 18.125 -14.070312 18.125 -11.75 L 18.125 0 L 15.421875 0 L 15.421875 -11.6875 C 15.421875 -12.789062 15.28125 -13.675781 15 -14.34375 C 14.71875 -15.007812 14.28125 -15.492188 13.6875 -15.796875 C 13.101562 -16.097656 12.332031 -16.25 11.375 -16.25 C 9.71875 -16.25 8.382812 -15.710938 7.375 -14.640625 C 6.375 -13.578125 5.875 -11.816406 5.875 -9.359375 L 5.875 0 Z M 3.171875 0 "/></g></g></g><g fill="#000000" fill-opacity="1"><g transform="translate(341.374655, 120.495044)"><g><path d="M 17.390625 -8.5 L 4.84375 -8.5 C 4.925781 -6.28125 5.457031 -4.648438 6.4375 -3.609375 C 7.425781 -2.578125 8.785156 -2.0625 10.515625 -2.0625 C 11.804688 -2.0625 12.847656 -2.289062 13.640625 -2.75 C 14.441406 -3.21875 15.066406 -3.953125 15.515625 -4.953125 L 15.875 -4.953125 L 17.625 -3.90625 C 17.09375 -2.582031 16.242188 -1.539062 15.078125 -0.78125 C 13.921875 -0.03125 12.398438 0.34375 10.515625 0.34375 C 8.742188 0.34375 7.222656 0 5.953125 -0.6875 C 4.679688 -1.382812 3.703125 -2.4375 3.015625 -3.84375 C 2.335938 -5.257812 2 -7.019531 2 -9.125 C 2 -11.195312 2.359375 -12.941406 3.078125 -14.359375 C 3.804688 -15.785156 4.796875 -16.847656 6.046875 -17.546875 C 7.296875 -18.242188 8.726562 -18.59375 10.34375 -18.59375 C 12.675781 -18.59375 14.5 -17.929688 15.8125 -16.609375 C 17.132812 -15.296875 17.800781 -13.34375 17.8125 -10.75 C 17.8125 -9.738281 17.785156 -9.054688 17.734375 -8.703125 Z M 15.140625 -10.75 C 15.097656 -12.695312 14.664062 -14.109375 13.84375 -14.984375 C 13.03125 -15.867188 11.863281 -16.3125 10.34375 -16.3125 C 8.738281 -16.3125 7.484375 -15.867188 6.578125 -14.984375 C 5.671875 -14.097656 5.117188 -12.6875 4.921875 -10.75 Z M 15.140625 -10.75 "/></g></g></g><g fill="#000000" fill-opacity="1"><g transform="translate(360.833071, 120.495044)"><g><path d="M 3.171875 0 L 3.171875 -18.25 L 5.75 -18.25 L 5.75 -15.5625 L 6.09375 -15.484375 C 6.707031 -16.515625 7.453125 -17.289062 8.328125 -17.8125 C 9.203125 -18.332031 10.253906 -18.59375 11.484375 -18.59375 C 12.898438 -18.59375 13.992188 -18.328125 14.765625 -17.796875 C 15.535156 -17.265625 16.132812 -16.398438 16.5625 -15.203125 L 16.90625 -15.203125 C 17.539062 -16.316406 18.316406 -17.160156 19.234375 -17.734375 C 20.160156 -18.304688 21.296875 -18.59375 22.640625 -18.59375 C 24.515625 -18.59375 25.910156 -18.085938 26.828125 -17.078125 C 27.753906 -16.066406 28.21875 -14.519531 28.21875 -12.4375 L 28.21875 0 L 25.515625 0 L 25.515625 -12.375 C 25.515625 -13.695312 25.234375 -14.671875 24.671875 -15.296875 C 24.117188 -15.929688 23.226562 -16.25 22 -16.25 C 20.539062 -16.25 19.347656 -15.71875 18.421875 -14.65625 C 17.503906 -13.601562 17.046875 -11.863281 17.046875 -9.4375 L 17.046875 0 L 14.34375 0 L 14.34375 -12.375 C 14.34375 -13.695312 14.0625 -14.671875 13.5 -15.296875 C 12.945312 -15.929688 12.054688 -16.25 10.828125 -16.25 C 9.367188 -16.25 8.175781 -15.734375 7.25 -14.703125 C 6.332031 -13.679688 5.875 -12.019531 5.875 -9.71875 L 5.875 0 Z M 3.171875 0 "/></g></g></g><g fill="#000000" fill-opacity="1"><g transform="translate(391.940042, 120.495044)"><g><path d="M 10.46875 0.34375 C 8.75 0.34375 7.253906 -0.0195312 5.984375 -0.75 C 4.710938 -1.476562 3.726562 -2.550781 3.03125 -3.96875 C 2.34375 -5.382812 2 -7.101562 2 -9.125 C 2 -11.132812 2.34375 -12.851562 3.03125 -14.28125 C 3.726562 -15.707031 4.710938 -16.78125 5.984375 -17.5 C 7.253906 -18.226562 8.75 -18.59375 10.46875 -18.59375 C 12.195312 -18.59375 13.695312 -18.226562 14.96875 -17.5 C 16.238281 -16.78125 17.21875 -15.707031 17.90625 -14.28125 C 18.601562 -12.851562 18.953125 -11.132812 18.953125 -9.125 C 18.953125 -7.101562 18.601562 -5.382812 17.90625 -3.96875 C 17.21875 -2.550781 16.238281 -1.476562 14.96875 -0.75 C 13.695312 -0.0195312 12.195312 0.34375 10.46875 0.34375 Z M 10.46875 -2.0625 C 12.289062 -2.0625 13.679688 -2.632812 14.640625 -3.78125 C 15.609375 -4.9375 16.09375 -6.71875 16.09375 -9.125 C 16.09375 -11.53125 15.609375 -13.304688 14.640625 -14.453125 C 13.679688 -15.609375 12.289062 -16.1875 10.46875 -16.1875 C 8.65625 -16.1875 7.257812 -15.609375 6.28125 -14.453125 C 5.3125 -13.296875 4.828125 -11.519531 4.828125 -9.125 C 4.828125 -6.71875 5.3125 -4.9375 6.28125 -3.78125 C 7.257812 -2.632812 8.65625 -2.0625 10.46875 -2.0625 Z M 10.46875 -2.0625 "/></g></g></g><g fill="#000000" fill-opacity="1"><g transform="translate(412.755232, 120.495044)"><g><path d="M 9.40625 7.75 C 6.519531 7.75 4.414062 7.265625 3.09375 6.296875 C 1.769531 5.335938 1.109375 4.066406 1.109375 2.484375 C 1.109375 1.453125 1.414062 0.632812 2.03125 0.03125 C 2.65625 -0.570312 3.554688 -1.007812 4.734375 -1.28125 L 4.734375 -1.625 C 4.171875 -1.945312 3.75 -2.320312 3.46875 -2.75 C 3.1875 -3.175781 3.046875 -3.6875 3.046875 -4.28125 C 3.046875 -4.988281 3.269531 -5.5625 3.71875 -6 C 4.164062 -6.445312 4.828125 -6.785156 5.703125 -7.015625 L 5.703125 -7.359375 C 3.722656 -8.410156 2.734375 -10.117188 2.734375 -12.484375 C 2.734375 -13.671875 3.003906 -14.726562 3.546875 -15.65625 C 4.085938 -16.582031 4.859375 -17.300781 5.859375 -17.8125 C 6.859375 -18.332031 8.023438 -18.59375 9.359375 -18.59375 C 10.898438 -18.59375 12.179688 -18.257812 13.203125 -17.59375 C 13.585938 -18.019531 13.875 -18.476562 14.0625 -18.96875 C 14.257812 -19.457031 14.390625 -20.015625 14.453125 -20.640625 L 14.796875 -20.84375 L 17.015625 -20.328125 C 16.898438 -19.398438 16.617188 -18.613281 16.171875 -17.96875 C 15.722656 -17.332031 15.09375 -16.800781 14.28125 -16.375 L 14.28125 -16.03125 C 14.863281 -15.570312 15.296875 -15.03125 15.578125 -14.40625 C 15.859375 -13.78125 16 -13.054688 16 -12.234375 C 16 -11.085938 15.722656 -10.054688 15.171875 -9.140625 C 14.617188 -8.222656 13.835938 -7.5 12.828125 -6.96875 C 11.828125 -6.445312 10.671875 -6.1875 9.359375 -6.1875 C 9.210938 -6.1875 8.9375 -6.195312 8.53125 -6.21875 C 8.09375 -6.238281 7.769531 -6.25 7.5625 -6.25 C 6.988281 -6.25 6.53125 -6.097656 6.1875 -5.796875 C 5.84375 -5.503906 5.671875 -5.128906 5.671875 -4.671875 C 5.671875 -4.097656 5.851562 -3.675781 6.21875 -3.40625 C 6.59375 -3.132812 7.207031 -2.984375 8.0625 -2.953125 L 12.375 -2.796875 C 14.238281 -2.734375 15.617188 -2.300781 16.515625 -1.5 C 17.421875 -0.695312 17.875 0.4375 17.875 1.90625 C 17.875 3 17.582031 3.984375 17 4.859375 C 16.414062 5.734375 15.488281 6.429688 14.21875 6.953125 C 12.945312 7.484375 11.34375 7.75 9.40625 7.75 Z M 9.359375 -8.5 C 10.648438 -8.5 11.648438 -8.835938 12.359375 -9.515625 C 13.066406 -10.191406 13.421875 -11.132812 13.421875 -12.34375 C 13.421875 -13.601562 13.066406 -14.570312 12.359375 -15.25 C 11.660156 -15.9375 10.660156 -16.28125 9.359375 -16.28125 C 8.054688 -16.28125 7.0625 -15.941406 6.375 -15.265625 C 5.695312 -14.585938 5.359375 -13.613281 5.359375 -12.34375 C 5.359375 -11.125 5.695312 -10.175781 6.375 -9.5 C 7.0625 -8.832031 8.054688 -8.5 9.359375 -8.5 Z M 9.40625 5.421875 C 10.75 5.421875 11.847656 5.269531 12.703125 4.96875 C 13.554688 4.675781 14.171875 4.285156 14.546875 3.796875 C 14.921875 3.304688 15.109375 2.757812 15.109375 2.15625 C 15.109375 1.613281 15.003906 1.175781 14.796875 0.84375 C 14.597656 0.507812 14.269531 0.257812 13.8125 0.09375 C 13.363281 -0.0703125 12.75 -0.175781 11.96875 -0.21875 L 7.875 -0.40625 L 7.296875 -0.40625 C 5.015625 -0.375 3.875 0.507812 3.875 2.25 C 3.875 4.363281 5.71875 5.421875 9.40625 5.421875 Z M 9.40625 5.421875 "/></g></g></g><g fill="#000000" fill-opacity="1"><g transform="translate(431.452498, 120.495044)"><g><path d="M 7.265625 0.34375 C 5.972656 0.34375 4.957031 -0.0195312 4.21875 -0.75 C 3.476562 -1.488281 3.109375 -2.582031 3.109375 -4.03125 L 3.109375 -25.578125 L 5.8125 -25.578125 L 5.8125 -4.21875 C 5.8125 -3.457031 5.957031 -2.90625 6.25 -2.5625 C 6.539062 -2.226562 6.992188 -2.0625 7.609375 -2.0625 C 7.984375 -2.0625 8.363281 -2.125 8.75 -2.25 L 8.984375 -2.1875 L 9.296875 -0.0625 C 9.097656 0.0625 8.8125 0.160156 8.4375 0.234375 C 8.070312 0.304688 7.679688 0.34375 7.265625 0.34375 Z M 7.265625 0.34375 "/></g></g></g><g fill="#000000" fill-opacity="1"><g transform="translate(441.380262, 120.495044)"><g><path d="M 10.46875 0.34375 C 8.75 0.34375 7.253906 -0.0195312 5.984375 -0.75 C 4.710938 -1.476562 3.726562 -2.550781 3.03125 -3.96875 C 2.34375 -5.382812 2 -7.101562 2 -9.125 C 2 -11.132812 2.34375 -12.851562 3.03125 -14.28125 C 3.726562 -15.707031 4.710938 -16.78125 5.984375 -17.5 C 7.253906 -18.226562 8.75 -18.59375 10.46875 -18.59375 C 12.195312 -18.59375 13.695312 -18.226562 14.96875 -17.5 C 16.238281 -16.78125 17.21875 -15.707031 17.90625 -14.28125 C 18.601562 -12.851562 18.953125 -11.132812 18.953125 -9.125 C 18.953125 -7.101562 18.601562 -5.382812 17.90625 -3.96875 C 17.21875 -2.550781 16.238281 -1.476562 14.96875 -0.75 C 13.695312 -0.0195312 12.195312 0.34375 10.46875 0.34375 Z M 10.46875 -2.0625 C 12.289062 -2.0625 13.679688 -2.632812 14.640625 -3.78125 C 15.609375 -4.9375 16.09375 -6.71875 16.09375 -9.125 C 16.09375 -11.53125 15.609375 -13.304688 14.640625 -14.453125 C 13.679688 -15.609375 12.289062 -16.1875 10.46875 -16.1875 C 8.65625 -16.1875 7.257812 -15.609375 6.28125 -14.453125 C 5.3125 -13.296875 4.828125 -11.519531 4.828125 -9.125 C 4.828125 -6.71875 5.3125 -4.9375 6.28125 -3.78125 C 7.257812 -2.632812 8.65625 -2.0625 10.46875 -2.0625 Z M 10.46875 -2.0625 "/></g></g></g><g fill="#000000" fill-opacity="1"><g transform="translate(462.327821, 120.495044)"><g><path d="M 12.125 0.34375 C 10.769531 0.34375 9.59375 0.0820312 8.59375 -0.4375 C 7.59375 -0.957031 6.800781 -1.648438 6.21875 -2.515625 L 5.875 -2.453125 L 5.875 0 L 3.171875 0 L 3.171875 -25.578125 L 5.875 -25.578125 L 5.875 -15.515625 L 6.21875 -15.453125 C 7.613281 -17.546875 9.632812 -18.59375 12.28125 -18.59375 C 13.78125 -18.59375 15.09375 -18.242188 16.21875 -17.546875 C 17.34375 -16.859375 18.21875 -15.804688 18.84375 -14.390625 C 19.46875 -12.972656 19.78125 -11.21875 19.78125 -9.125 C 19.78125 -7.039062 19.453125 -5.289062 18.796875 -3.875 C 18.140625 -2.457031 17.234375 -1.398438 16.078125 -0.703125 C 14.929688 -0.00390625 13.613281 0.34375 12.125 0.34375 Z M 11.484375 -2.0625 C 15.128906 -2.0625 16.953125 -4.414062 16.953125 -9.125 C 16.953125 -11.5625 16.472656 -13.347656 15.515625 -14.484375 C 14.566406 -15.617188 13.222656 -16.1875 11.484375 -16.1875 C 9.773438 -16.1875 8.410156 -15.601562 7.390625 -14.4375 C 6.378906 -13.269531 5.875 -11.5 5.875 -9.125 C 5.875 -6.75 6.378906 -4.976562 7.390625 -3.8125 C 8.410156 -2.644531 9.773438 -2.0625 11.484375 -2.0625 Z M 11.484375 -2.0625 "/></g></g></g><g fill="#000000" fill-opacity="1"><g transform="translate(484.102715, 120.495044)"><g><path d="M 4.53125 -21.78125 C 3.957031 -21.78125 3.488281 -21.957031 3.125 -22.3125 C 2.769531 -22.675781 2.59375 -23.132812 2.59375 -23.6875 C 2.59375 -24.238281 2.769531 -24.691406 3.125 -25.046875 C 3.488281 -25.398438 3.957031 -25.578125 4.53125 -25.578125 C 5.101562 -25.578125 5.566406 -25.398438 5.921875 -25.046875 C 6.285156 -24.691406 6.46875 -24.238281 6.46875 -23.6875 C 6.46875 -23.132812 6.285156 -22.675781 5.921875 -22.3125 C 5.566406 -21.957031 5.101562 -21.78125 4.53125 -21.78125 Z M 3.171875 0 L 3.171875 -18.25 L 5.875 -18.25 L 5.875 0 Z M 3.171875 0 "/></g></g></g><g fill="#000000" fill-opacity="1"><g transform="translate(493.153536, 120.495044)"><g><path d="M 3.171875 0 L 3.171875 -18.25 L 5.75 -18.25 L 5.75 -15.390625 L 6.09375 -15.3125 C 6.695312 -16.375 7.46875 -17.1875 8.40625 -17.75 C 9.351562 -18.3125 10.503906 -18.59375 11.859375 -18.59375 C 14.054688 -18.59375 15.648438 -18.03125 16.640625 -16.90625 C 17.628906 -15.789062 18.125 -14.070312 18.125 -11.75 L 18.125 0 L 15.421875 0 L 15.421875 -11.6875 C 15.421875 -12.789062 15.28125 -13.675781 15 -14.34375 C 14.71875 -15.007812 14.28125 -15.492188 13.6875 -15.796875 C 13.101562 -16.097656 12.332031 -16.25 11.375 -16.25 C 9.726562 -16.25 8.398438 -15.703125 7.390625 -14.609375 C 6.378906 -13.523438 5.875 -11.773438 5.875 -9.359375 L 5.875 0 Z M 3.171875 0 "/></g></g></g><g fill="#000000" fill-opacity="1"><g transform="translate(514.167281, 120.495044)"><g/></g></g><g fill="#000000" fill-opacity="1"><g transform="translate(522.47353, 120.495044)"><g><path d="M 7.265625 0.34375 C 5.972656 0.34375 4.957031 -0.0195312 4.21875 -0.75 C 3.476562 -1.488281 3.109375 -2.582031 3.109375 -4.03125 L 3.109375 -25.578125 L 5.8125 -25.578125 L 5.8125 -4.21875 C 5.8125 -3.457031 5.957031 -2.90625 6.25 -2.5625 C 6.539062 -2.226562 6.992188 -2.0625 7.609375 -2.0625 C 7.984375 -2.0625 8.363281 -2.125 8.75 -2.25 L 8.984375 -2.1875 L 9.296875 -0.0625 C 9.097656 0.0625 8.8125 0.160156 8.4375 0.234375 C 8.070312 0.304688 7.679688 0.34375 7.265625 0.34375 Z M 7.265625 0.34375 "/></g></g></g><g fill="#000000" fill-opacity="1"><g transform="translate(532.401293, 120.495044)"><g><path d="M 17.390625 -8.5 L 4.84375 -8.5 C 4.925781 -6.28125 5.457031 -4.648438 6.4375 -3.609375 C 7.425781 -2.578125 8.785156 -2.0625 10.515625 -2.0625 C 11.804688 -2.0625 12.847656 -2.289062 13.640625 -2.75 C 14.441406 -3.21875 15.066406 -3.953125 15.515625 -4.953125 L 15.875 -4.953125 L 17.625 -3.90625 C 17.09375 -2.582031 16.242188 -1.539062 15.078125 -0.78125 C 13.921875 -0.03125 12.398438 0.34375 10.515625 0.34375 C 8.742188 0.34375 7.222656 0 5.953125 -0.6875 C 4.679688 -1.382812 3.703125 -2.4375 3.015625 -3.84375 C 2.335938 -5.257812 2 -7.019531 2 -9.125 C 2 -11.195312 2.359375 -12.941406 3.078125 -14.359375 C 3.804688 -15.785156 4.796875 -16.847656 6.046875 -17.546875 C 7.296875 -18.242188 8.726562 -18.59375 10.34375 -18.59375 C 12.675781 -18.59375 14.5 -17.929688 15.8125 -16.609375 C 17.132812 -15.296875 17.800781 -13.34375 17.8125 -10.75 C 17.8125 -9.738281 17.785156 -9.054688 17.734375 -8.703125 Z M 15.140625 -10.75 C 15.097656 -12.695312 14.664062 -14.109375 13.84375 -14.984375 C 13.03125 -15.867188 11.863281 -16.3125 10.34375 -16.3125 C 8.738281 -16.3125 7.484375 -15.867188 6.578125 -14.984375 C 5.671875 -14.097656 5.117188 -12.6875 4.921875 -10.75 Z M 15.140625 -10.75 "/></g></g></g><g fill="#000000" fill-opacity="1"><g transform="translate(551.859709, 120.495044)"><g><path d="M 11.546875 0 L 7.84375 0 L 0.890625 -18.25 L 3.8125 -18.25 L 9.546875 -3.078125 L 9.921875 -3.078125 L 15.625 -18.25 L 18.46875 -18.25 Z M 11.546875 0 "/></g></g></g><g fill="#000000" fill-opacity="1"><g transform="translate(570.854788, 120.495044)"><g><path d="M 17.390625 -8.5 L 4.84375 -8.5 C 4.925781 -6.28125 5.457031 -4.648438 6.4375 -3.609375 C 7.425781 -2.578125 8.785156 -2.0625 10.515625 -2.0625 C 11.804688 -2.0625 12.847656 -2.289062 13.640625 -2.75 C 14.441406 -3.21875 15.066406 -3.953125 15.515625 -4.953125 L 15.875 -4.953125 L 17.625 -3.90625 C 17.09375 -2.582031 16.242188 -1.539062 15.078125 -0.78125 C 13.921875 -0.03125 12.398438 0.34375 10.515625 0.34375 C 8.742188 0.34375 7.222656 0 5.953125 -0.6875 C 4.679688 -1.382812 3.703125 -2.4375 3.015625 -3.84375 C 2.335938 -5.257812 2 -7.019531 2 -9.125 C 2 -11.195312 2.359375 -12.941406 3.078125 -14.359375 C 3.804688 -15.785156 4.796875 -16.847656 6.046875 -17.546875 C 7.296875 -18.242188 8.726562 -18.59375 10.34375 -18.59375 C 12.675781 -18.59375 14.5 -17.929688 15.8125 -16.609375 C 17.132812 -15.296875 17.800781 -13.34375 17.8125 -10.75 C 17.8125 -9.738281 17.785156 -9.054688 17.734375 -8.703125 Z M 15.140625 -10.75 C 15.097656 -12.695312 14.664062 -14.109375 13.84375 -14.984375 C 13.03125 -15.867188 11.863281 -16.3125 10.34375 -16.3125 C 8.738281 -16.3125 7.484375 -15.867188 6.578125 -14.984375 C 5.671875 -14.097656 5.117188 -12.6875 4.921875 -10.75 Z M 15.140625 -10.75 "/></g></g></g><g fill="#000000" fill-opacity="1"><g transform="translate(590.313204, 120.495044)"><g><path d="M 7.265625 0.34375 C 5.972656 0.34375 4.957031 -0.0195312 4.21875 -0.75 C 3.476562 -1.488281 3.109375 -2.582031 3.109375 -4.03125 L 3.109375 -25.578125 L 5.8125 -25.578125 L 5.8125 -4.21875 C 5.8125 -3.457031 5.957031 -2.90625 6.25 -2.5625 C 6.539062 -2.226562 6.992188 -2.0625 7.609375 -2.0625 C 7.984375 -2.0625 8.363281 -2.125 8.75 -2.25 L 8.984375 -2.1875 L 9.296875 -0.0625 C 9.097656 0.0625 8.8125 0.160156 8.4375 0.234375 C 8.070312 0.304688 7.679688 0.34375 7.265625 0.34375 Z M 7.265625 0.34375 "/></g></g></g><g fill="#000000" fill-opacity="1"><g transform="translate(600.240967, 120.495044)"><g/></g></g><g fill="#000000" fill-opacity="1"><g transform="translate(608.547216, 120.495044)"><g><path d="M 3.171875 0 L 3.171875 -18.25 L 5.75 -18.25 L 5.75 -15.5625 L 6.09375 -15.484375 C 6.707031 -16.515625 7.453125 -17.289062 8.328125 -17.8125 C 9.203125 -18.332031 10.253906 -18.59375 11.484375 -18.59375 C 12.898438 -18.59375 13.992188 -18.328125 14.765625 -17.796875 C 15.535156 -17.265625 16.132812 -16.398438 16.5625 -15.203125 L 16.90625 -15.203125 C 17.539062 -16.316406 18.316406 -17.160156 19.234375 -17.734375 C 20.160156 -18.304688 21.296875 -18.59375 22.640625 -18.59375 C 24.515625 -18.59375 25.910156 -18.085938 26.828125 -17.078125 C 27.753906 -16.066406 28.21875 -14.519531 28.21875 -12.4375 L 28.21875 0 L 25.515625 0 L 25.515625 -12.375 C 25.515625 -13.695312 25.234375 -14.671875 24.671875 -15.296875 C 24.117188 -15.929688 23.226562 -16.25 22 -16.25 C 20.539062 -16.25 19.347656 -15.71875 18.421875 -14.65625 C 17.503906 -13.601562 17.046875 -11.863281 17.046875 -9.4375 L 17.046875 0 L 14.34375 0 L 14.34375 -12.375 C 14.34375 -13.695312 14.0625 -14.671875 13.5 -15.296875 C 12.945312 -15.929688 12.054688 -16.25 10.828125 -16.25 C 9.367188 -16.25 8.175781 -15.734375 7.25 -14.703125 C 6.332031 -13.679688 5.875 -12.019531 5.875 -9.71875 L 5.875 0 Z M 3.171875 0 "/></g></g></g><g fill="#000000" fill-opacity="1"><g transform="translate(639.654207, 120.495044)"><g><path d="M 17.390625 -8.5 L 4.84375 -8.5 C 4.925781 -6.28125 5.457031 -4.648438 6.4375 -3.609375 C 7.425781 -2.578125 8.785156 -2.0625 10.515625 -2.0625 C 11.804688 -2.0625 12.847656 -2.289062 13.640625 -2.75 C 14.441406 -3.21875 15.066406 -3.953125 15.515625 -4.953125 L 15.875 -4.953125 L 17.625 -3.90625 C 17.09375 -2.582031 16.242188 -1.539062 15.078125 -0.78125 C 13.921875 -0.03125 12.398438 0.34375 10.515625 0.34375 C 8.742188 0.34375 7.222656 0 5.953125 -0.6875 C 4.679688 -1.382812 3.703125 -2.4375 3.015625 -3.84375 C 2.335938 -5.257812 2 -7.019531 2 -9.125 C 2 -11.195312 2.359375 -12.941406 3.078125 -14.359375 C 3.804688 -15.785156 4.796875 -16.847656 6.046875 -17.546875 C 7.296875 -18.242188 8.726562 -18.59375 10.34375 -18.59375 C 12.675781 -18.59375 14.5 -17.929688 15.8125 -16.609375 C 17.132812 -15.296875 17.800781 -13.34375 17.8125 -10.75 C 17.8125 -9.738281 17.785156 -9.054688 17.734375 -8.703125 Z M 15.140625 -10.75 C 15.097656 -12.695312 14.664062 -14.109375 13.84375 -14.984375 C 13.03125 -15.867188 11.863281 -16.3125 10.34375 -16.3125 C 8.738281 -16.3125 7.484375 -15.867188 6.578125 -14.984375 C 5.671875 -14.097656 5.117188 -12.6875 4.921875 -10.75 Z M 15.140625 -10.75 "/></g></g></g><g fill="#000000" fill-opacity="1"><g transform="translate(659.112622, 120.495044)"><g><path d="M 7.53125 0.34375 C 5.726562 0.34375 4.320312 -0.125 3.3125 -1.0625 C 2.300781 -2 1.796875 -3.335938 1.796875 -5.078125 C 1.796875 -6.160156 2.019531 -7.070312 2.46875 -7.8125 C 2.914062 -8.5625 3.609375 -9.171875 4.546875 -9.640625 C 5.484375 -10.109375 6.707031 -10.46875 8.21875 -10.71875 C 9.539062 -10.9375 10.546875 -11.179688 11.234375 -11.453125 C 11.929688 -11.734375 12.394531 -12.046875 12.625 -12.390625 C 12.863281 -12.734375 12.984375 -13.164062 12.984375 -13.6875 C 12.984375 -14.507812 12.695312 -15.140625 12.125 -15.578125 C 11.5625 -16.023438 10.65625 -16.25 9.40625 -16.25 C 8.21875 -16.25 7.203125 -16.019531 6.359375 -15.5625 C 5.515625 -15.101562 4.738281 -14.421875 4.03125 -13.515625 L 3.703125 -13.515625 L 2.390625 -15.390625 C 3.160156 -16.367188 4.140625 -17.144531 5.328125 -17.71875 C 6.515625 -18.300781 7.875 -18.59375 9.40625 -18.59375 C 11.550781 -18.59375 13.132812 -18.117188 14.15625 -17.171875 C 15.175781 -16.234375 15.6875 -14.929688 15.6875 -13.265625 L 15.6875 -3.59375 C 15.6875 -2.570312 16.117188 -2.0625 16.984375 -2.0625 C 17.265625 -2.0625 17.539062 -2.113281 17.8125 -2.21875 L 18.03125 -2.15625 L 18.359375 -0.28125 C 18.148438 -0.144531 17.882812 -0.046875 17.5625 0.015625 C 17.238281 0.0859375 16.90625 0.125 16.5625 0.125 C 15.5625 0.125 14.800781 -0.09375 14.28125 -0.53125 C 13.769531 -0.96875 13.445312 -1.617188 13.3125 -2.484375 L 12.953125 -2.515625 C 12.429688 -1.554688 11.726562 -0.835938 10.84375 -0.359375 C 9.96875 0.109375 8.863281 0.34375 7.53125 0.34375 Z M 8.125 -1.796875 C 9.132812 -1.796875 10.007812 -2.03125 10.75 -2.5 C 11.5 -2.96875 12.070312 -3.628906 12.46875 -4.484375 C 12.875 -5.335938 13.078125 -6.320312 13.078125 -7.4375 L 13.078125 -9.75 L 12.765625 -9.8125 C 12.347656 -9.519531 11.847656 -9.273438 11.265625 -9.078125 C 10.679688 -8.890625 9.863281 -8.722656 8.8125 -8.578125 C 7.757812 -8.429688 6.921875 -8.207031 6.296875 -7.90625 C 5.671875 -7.613281 5.222656 -7.238281 4.953125 -6.78125 C 4.691406 -6.320312 4.5625 -5.753906 4.5625 -5.078125 C 4.5625 -4.003906 4.875 -3.1875 5.5 -2.625 C 6.132812 -2.070312 7.007812 -1.796875 8.125 -1.796875 Z M 8.125 -1.796875 "/></g></g></g><g fill="#000000" fill-opacity="1"><g transform="translate(677.991908, 120.495044)"><g><path d="M 3.171875 0 L 3.171875 -18.25 L 5.75 -18.25 L 5.75 -15.390625 L 6.09375 -15.3125 C 6.695312 -16.375 7.46875 -17.1875 8.40625 -17.75 C 9.351562 -18.3125 10.503906 -18.59375 11.859375 -18.59375 C 14.054688 -18.59375 15.648438 -18.03125 16.640625 -16.90625 C 17.628906 -15.789062 18.125 -14.070312 18.125 -11.75 L 18.125 0 L 15.421875 0 L 15.421875 -11.6875 C 15.421875 -12.789062 15.28125 -13.675781 15 -14.34375 C 14.71875 -15.007812 14.28125 -15.492188 13.6875 -15.796875 C 13.101562 -16.097656 12.332031 -16.25 11.375 -16.25 C 9.726562 -16.25 8.398438 -15.703125 7.390625 -14.609375 C 6.378906 -13.523438 5.875 -11.773438 5.875 -9.359375 L 5.875 0 Z M 3.171875 0 "/></g></g></g><g fill="#000000" fill-opacity="1"><g transform="translate(698.376875, 120.495044)"><g><path d="M 6.4375 -8.703125 C 6.4375 -9.441406 6.523438 -10.082031 6.703125 -10.625 C 6.890625 -11.164062 7.1875 -11.675781 7.59375 -12.15625 C 8.007812 -12.644531 8.597656 -13.175781 9.359375 -13.75 L 10.890625 -14.921875 C 11.546875 -15.429688 12.023438 -15.984375 12.328125 -16.578125 C 12.640625 -17.179688 12.796875 -17.890625 12.796875 -18.703125 C 12.796875 -19.703125 12.421875 -20.5 11.671875 -21.09375 C 10.929688 -21.695312 9.882812 -22 8.53125 -22 C 6.207031 -22 4.472656 -20.957031 3.328125 -18.875 L 2.953125 -18.796875 L 1.234375 -20.609375 C 2.941406 -23.234375 5.375 -24.546875 8.53125 -24.546875 C 10.125 -24.546875 11.460938 -24.285156 12.546875 -23.765625 C 13.640625 -23.253906 14.445312 -22.5625 14.96875 -21.6875 C 15.5 -20.8125 15.765625 -19.816406 15.765625 -18.703125 C 15.765625 -17.441406 15.484375 -16.378906 14.921875 -15.515625 C 14.359375 -14.660156 13.546875 -13.816406 12.484375 -12.984375 L 11.140625 -11.96875 C 10.609375 -11.5625 10.207031 -11.195312 9.9375 -10.875 C 9.664062 -10.5625 9.472656 -10.222656 9.359375 -9.859375 C 9.253906 -9.492188 9.203125 -9.039062 9.203125 -8.5 L 9.203125 -8.03125 L 6.4375 -8.03125 Z M 7.75 0.171875 C 7.113281 0.171875 6.613281 -0.00390625 6.25 -0.359375 C 5.882812 -0.710938 5.703125 -1.179688 5.703125 -1.765625 C 5.703125 -2.335938 5.882812 -2.804688 6.25 -3.171875 C 6.613281 -3.546875 7.113281 -3.734375 7.75 -3.734375 C 8.375 -3.734375 8.867188 -3.554688 9.234375 -3.203125 C 9.597656 -2.859375 9.78125 -2.390625 9.78125 -1.796875 C 9.78125 -1.210938 9.597656 -0.738281 9.234375 -0.375 C 8.867188 -0.0078125 8.375 0.171875 7.75 0.171875 Z M 7.75 0.171875 "/></g></g></g><g fill="#2f80ed" fill-opacity="1"><g transform="translate(46.648071, 71.387819)"><g><path d="M 6.28125 0 L 3.65625 0 L 3.65625 -24.1875 L 7.875 -24.1875 L 15.203125 -3.703125 L 15.5625 -3.703125 L 22.890625 -24.1875 L 26.953125 -24.1875 L 26.953125 0 L 24.265625 0 L 24.265625 -19.734375 L 23.84375 -19.8125 L 16.703125 0 L 13.875 0 L 6.703125 -19.8125 L 6.28125 -19.734375 Z M 6.28125 0 "/></g></g></g><g fill="#2f80ed" fill-opacity="1"><g transform="translate(77.275231, 71.387819)"><g><path d="M 17.390625 -8.5 L 4.84375 -8.5 C 4.925781 -6.28125 5.457031 -4.648438 6.4375 -3.609375 C 7.425781 -2.578125 8.785156 -2.0625 10.515625 -2.0625 C 11.804688 -2.0625 12.847656 -2.289062 13.640625 -2.75 C 14.441406 -3.21875 15.066406 -3.953125 15.515625 -4.953125 L 15.875 -4.953125 L 17.625 -3.90625 C 17.09375 -2.582031 16.242188 -1.539062 15.078125 -0.78125 C 13.921875 -0.03125 12.398438 0.34375 10.515625 0.34375 C 8.742188 0.34375 7.222656 0 5.953125 -0.6875 C 4.679688 -1.382812 3.703125 -2.4375 3.015625 -3.84375 C 2.335938 -5.257812 2 -7.019531 2 -9.125 C 2 -11.195312 2.359375 -12.941406 3.078125 -14.359375 C 3.804688 -15.785156 4.796875 -16.847656 6.046875 -17.546875 C 7.296875 -18.242188 8.726562 -18.59375 10.34375 -18.59375 C 12.675781 -18.59375 14.5 -17.929688 15.8125 -16.609375 C 17.132812 -15.296875 17.800781 -13.34375 17.8125 -10.75 C 17.8125 -9.738281 17.785156 -9.054688 17.734375 -8.703125 Z M 15.140625 -10.75 C 15.097656 -12.695312 14.664062 -14.109375 13.84375 -14.984375 C 13.03125 -15.867188 11.863281 -16.3125 10.34375 -16.3125 C 8.738281 -16.3125 7.484375 -15.867188 6.578125 -14.984375 C 5.671875 -14.097656 5.117188 -12.6875 4.921875 -10.75 Z M 15.140625 -10.75 "/></g></g></g><g fill="#2f80ed" fill-opacity="1"><g transform="translate(96.733647, 71.387819)"><g><path d="M 9.46875 0.34375 C 8 0.34375 6.703125 -0.00390625 5.578125 -0.703125 C 4.460938 -1.398438 3.585938 -2.453125 2.953125 -3.859375 C 2.316406 -5.273438 2 -7.03125 2 -9.125 C 2 -11.207031 2.328125 -12.957031 2.984375 -14.375 C 3.648438 -15.789062 4.566406 -16.847656 5.734375 -17.546875 C 6.898438 -18.242188 8.25 -18.59375 9.78125 -18.59375 C 10.988281 -18.59375 12.078125 -18.363281 13.046875 -17.90625 C 14.023438 -17.457031 14.863281 -16.707031 15.5625 -15.65625 L 15.90625 -15.71875 L 15.90625 -25.578125 L 18.59375 -25.578125 L 18.59375 0 L 15.90625 0 L 15.90625 -2.671875 L 15.5625 -2.734375 C 14.957031 -1.828125 14.144531 -1.085938 13.125 -0.515625 C 12.101562 0.0546875 10.882812 0.34375 9.46875 0.34375 Z M 10.3125 -2.0625 C 12.007812 -2.0625 13.363281 -2.644531 14.375 -3.8125 C 15.394531 -4.976562 15.90625 -6.75 15.90625 -9.125 C 15.90625 -11.5 15.394531 -13.269531 14.375 -14.4375 C 13.363281 -15.601562 12.007812 -16.1875 10.3125 -16.1875 C 8.550781 -16.1875 7.195312 -15.617188 6.25 -14.484375 C 5.300781 -13.347656 4.828125 -11.5625 4.828125 -9.125 C 4.828125 -4.414062 6.65625 -2.0625 10.3125 -2.0625 Z M 10.3125 -2.0625 "/></g></g></g><g fill="#2f80ed" fill-opacity="1"><g transform="translate(118.525097, 71.387819)"><g><path d="M 4.53125 -21.78125 C 3.957031 -21.78125 3.488281 -21.957031 3.125 -22.3125 C 2.769531 -22.675781 2.59375 -23.132812 2.59375 -23.6875 C 2.59375 -24.238281 2.769531 -24.691406 3.125 -25.046875 C 3.488281 -25.398438 3.957031 -25.578125 4.53125 -25.578125 C 5.101562 -25.578125 5.566406 -25.398438 5.921875 -25.046875 C 6.285156 -24.691406 6.46875 -24.238281 6.46875 -23.6875 C 6.46875 -23.132812 6.285156 -22.675781 5.921875 -22.3125 C 5.566406 -21.957031 5.101562 -21.78125 4.53125 -21.78125 Z M 3.171875 0 L 3.171875 -18.25 L 5.875 -18.25 L 5.875 0 Z M 3.171875 0 "/></g></g></g><g fill="#2f80ed" fill-opacity="1"><g transform="translate(127.575918, 71.387819)"><g><path d="M 10.46875 0.34375 C 8.863281 0.34375 7.421875 -0.0195312 6.140625 -0.75 C 4.859375 -1.488281 3.847656 -2.570312 3.109375 -4 C 2.367188 -5.425781 2 -7.132812 2 -9.125 C 2 -11.113281 2.367188 -12.820312 3.109375 -14.25 C 3.847656 -15.6875 4.859375 -16.769531 6.140625 -17.5 C 7.421875 -18.226562 8.863281 -18.59375 10.46875 -18.59375 C 12.40625 -18.59375 13.941406 -18.226562 15.078125 -17.5 C 16.222656 -16.78125 17.050781 -15.8125 17.5625 -14.59375 L 15.71875 -13.265625 L 15.390625 -13.265625 C 14.890625 -14.273438 14.25 -15.015625 13.46875 -15.484375 C 12.695312 -15.953125 11.695312 -16.1875 10.46875 -16.1875 C 9.34375 -16.1875 8.351562 -15.921875 7.5 -15.390625 C 6.65625 -14.859375 6 -14.0625 5.53125 -13 C 5.0625 -11.945312 4.828125 -10.65625 4.828125 -9.125 C 4.828125 -7.59375 5.0625 -6.300781 5.53125 -5.25 C 6.007812 -4.195312 6.671875 -3.398438 7.515625 -2.859375 C 8.359375 -2.328125 9.34375 -2.0625 10.46875 -2.0625 C 11.738281 -2.0625 12.789062 -2.347656 13.625 -2.921875 C 14.457031 -3.503906 15.113281 -4.410156 15.59375 -5.640625 L 15.9375 -5.640625 L 17.703125 -4.59375 C 17.234375 -3.0625 16.390625 -1.851562 15.171875 -0.96875 C 13.953125 -0.09375 12.382812 0.34375 10.46875 0.34375 Z M 10.46875 0.34375 "/></g></g></g><g fill="#2f80ed" fill-opacity="1"><g transform="translate(146.389039, 71.387819)"><g><path d="M 7.53125 0.34375 C 5.726562 0.34375 4.320312 -0.125 3.3125 -1.0625 C 2.300781 -2 1.796875 -3.335938 1.796875 -5.078125 C 1.796875 -6.160156 2.019531 -7.070312 2.46875 -7.8125 C 2.914062 -8.5625 3.609375 -9.171875 4.546875 -9.640625 C 5.484375 -10.109375 6.707031 -10.46875 8.21875 -10.71875 C 9.539062 -10.9375 10.546875 -11.179688 11.234375 -11.453125 C 11.929688 -11.734375 12.394531 -12.046875 12.625 -12.390625 C 12.863281 -12.734375 12.984375 -13.164062 12.984375 -13.6875 C 12.984375 -14.507812 12.695312 -15.140625 12.125 -15.578125 C 11.5625 -16.023438 10.65625 -16.25 9.40625 -16.25 C 8.21875 -16.25 7.203125 -16.019531 6.359375 -15.5625 C 5.515625 -15.101562 4.738281 -14.421875 4.03125 -13.515625 L 3.703125 -13.515625 L 2.390625 -15.390625 C 3.160156 -16.367188 4.140625 -17.144531 5.328125 -17.71875 C 6.515625 -18.300781 7.875 -18.59375 9.40625 -18.59375 C 11.550781 -18.59375 13.132812 -18.117188 14.15625 -17.171875 C 15.175781 -16.234375 15.6875 -14.929688 15.6875 -13.265625 L 15.6875 -3.59375 C 15.6875 -2.570312 16.117188 -2.0625 16.984375 -2.0625 C 17.265625 -2.0625 17.539062 -2.113281 17.8125 -2.21875 L 18.03125 -2.15625 L 18.359375 -0.28125 C 18.148438 -0.144531 17.882812 -0.046875 17.5625 0.015625 C 17.238281 0.0859375 16.90625 0.125 16.5625 0.125 C 15.5625 0.125 14.800781 -0.09375 14.28125 -0.53125 C 13.769531 -0.96875 13.445312 -1.617188 13.3125 -2.484375 L 12.953125 -2.515625 C 12.429688 -1.554688 11.726562 -0.835938 10.84375 -0.359375 C 9.96875 0.109375 8.863281 0.34375 7.53125 0.34375 Z M 8.125 -1.796875 C 9.132812 -1.796875 10.007812 -2.03125 10.75 -2.5 C 11.5 -2.96875 12.070312 -3.628906 12.46875 -4.484375 C 12.875 -5.335938 13.078125 -6.320312 13.078125 -7.4375 L 13.078125 -9.75 L 12.765625 -9.8125 C 12.347656 -9.519531 11.847656 -9.273438 11.265625 -9.078125 C 10.679688 -8.890625 9.863281 -8.722656 8.8125 -8.578125 C 7.757812 -8.429688 6.921875 -8.207031 6.296875 -7.90625 C 5.671875 -7.613281 5.222656 -7.238281 4.953125 -6.78125 C 4.691406 -6.320312 4.5625 -5.753906 4.5625 -5.078125 C 4.5625 -4.003906 4.875 -3.1875 5.5 -2.625 C 6.132812 -2.070312 7.007812 -1.796875 8.125 -1.796875 Z M 8.125 -1.796875 "/></g></g></g><g fill="#2f80ed" fill-opacity="1"><g transform="translate(165.268346, 71.387819)"><g><path d="M 7.265625 0.34375 C 5.972656 0.34375 4.957031 -0.0195312 4.21875 -0.75 C 3.476562 -1.488281 3.109375 -2.582031 3.109375 -4.03125 L 3.109375 -25.578125 L 5.8125 -25.578125 L 5.8125 -4.21875 C 5.8125 -3.457031 5.957031 -2.90625 6.25 -2.5625 C 6.539062 -2.226562 6.992188 -2.0625 7.609375 -2.0625 C 7.984375 -2.0625 8.363281 -2.125 8.75 -2.25 L 8.984375 -2.1875 L 9.296875 -0.0625 C 9.097656 0.0625 8.8125 0.160156 8.4375 0.234375 C 8.070312 0.304688 7.679688 0.34375 7.265625 0.34375 Z M 7.265625 0.34375 "/></g></g></g><g fill="#2f80ed" fill-opacity="1"><g transform="translate(175.196109, 71.387819)"><g/></g></g><g fill="#2f80ed" fill-opacity="1"><g transform="translate(183.502337, 71.387819)"><g><path d="M 17.875 -24.1875 L 17.875 -21.84375 L 6.5 -21.84375 L 6.5 -13.046875 L 16.734375 -13.046875 L 16.734375 -10.671875 L 6.5 -10.671875 L 6.5 0 L 3.65625 0 L 3.65625 -24.1875 Z M 17.875 -24.1875 "/></g></g></g><g fill="#2f80ed" fill-opacity="1"><g transform="translate(201.289488, 71.387819)"><g><path d="M 21.78125 0 L 18.734375 0 L 16.5 -6.640625 L 6.1875 -6.640625 L 3.9375 0 L 0.953125 0 L 9.40625 -24.1875 L 13.34375 -24.1875 Z M 11.140625 -21.265625 L 6.984375 -9.015625 L 15.6875 -9.015625 L 11.546875 -21.265625 Z M 11.140625 -21.265625 "/></g></g></g><g fill="#2f80ed" fill-opacity="1"><g transform="translate(223.478008, 71.387819)"><g><path d="M 19.453125 5.640625 C 17.453125 5.640625 15.78125 5.175781 14.4375 4.25 C 13.09375 3.320312 12.148438 1.988281 11.609375 0.25 C 9.796875 0.0195312 8.203125 -0.578125 6.828125 -1.546875 C 5.453125 -2.523438 4.375 -3.898438 3.59375 -5.671875 C 2.8125 -7.441406 2.421875 -9.582031 2.421875 -12.09375 C 2.421875 -14.863281 2.890625 -17.175781 3.828125 -19.03125 C 4.765625 -20.894531 6.046875 -22.28125 7.671875 -23.1875 C 9.304688 -24.09375 11.171875 -24.546875 13.265625 -24.546875 C 15.367188 -24.546875 17.234375 -24.09375 18.859375 -23.1875 C 20.492188 -22.28125 21.78125 -20.894531 22.71875 -19.03125 C 23.65625 -17.175781 24.125 -14.863281 24.125 -12.09375 C 24.125 -8.3125 23.269531 -5.425781 21.5625 -3.4375 C 19.851562 -1.457031 17.515625 -0.289062 14.546875 0.0625 L 14.453125 0.40625 C 14.847656 1.320312 15.488281 2.007812 16.375 2.46875 C 17.257812 2.9375 18.300781 3.171875 19.5 3.171875 C 20.101562 3.171875 20.671875 3.097656 21.203125 2.953125 L 21.53125 3.015625 L 21.9375 5.21875 C 21.28125 5.5 20.453125 5.640625 19.453125 5.640625 Z M 13.265625 -2.28125 C 15.785156 -2.28125 17.71875 -3.066406 19.0625 -4.640625 C 20.40625 -6.210938 21.078125 -8.695312 21.078125 -12.09375 C 21.078125 -15.488281 20.40625 -17.972656 19.0625 -19.546875 C 17.71875 -21.117188 15.785156 -21.90625 13.265625 -21.90625 C 8.054688 -21.90625 5.453125 -18.632812 5.453125 -12.09375 C 5.453125 -5.550781 8.054688 -2.28125 13.265625 -2.28125 Z M 13.265625 -2.28125 "/></g></g></g><g fill="#2f80ed" fill-opacity="1"><g transform="translate(250.018228, 71.387819)"><g><path d="M 8.328125 0.34375 C 7.179688 0.34375 6.117188 0.191406 5.140625 -0.109375 C 4.160156 -0.410156 3.332031 -0.828125 2.65625 -1.359375 C 1.988281 -1.890625 1.515625 -2.484375 1.234375 -3.140625 L 2.828125 -4.796875 L 3.171875 -4.796875 C 3.773438 -3.890625 4.492188 -3.207031 5.328125 -2.75 C 6.171875 -2.289062 7.171875 -2.0625 8.328125 -2.0625 C 9.671875 -2.0625 10.691406 -2.320312 11.390625 -2.84375 C 12.085938 -3.375 12.4375 -4.109375 12.4375 -5.046875 C 12.4375 -5.765625 12.222656 -6.359375 11.796875 -6.828125 C 11.378906 -7.296875 10.695312 -7.644531 9.75 -7.875 L 6.671875 -8.640625 C 5.023438 -9.035156 3.820312 -9.660156 3.0625 -10.515625 C 2.3125 -11.378906 1.9375 -12.445312 1.9375 -13.71875 C 1.9375 -14.707031 2.1875 -15.566406 2.6875 -16.296875 C 3.195312 -17.035156 3.929688 -17.601562 4.890625 -18 C 5.847656 -18.394531 6.984375 -18.59375 8.296875 -18.59375 C 9.972656 -18.59375 11.289062 -18.359375 12.25 -17.890625 C 13.21875 -17.421875 13.972656 -16.769531 14.515625 -15.9375 L 12.984375 -14.453125 L 12.65625 -14.453125 C 12.070312 -15.117188 11.4375 -15.597656 10.75 -15.890625 C 10.0625 -16.191406 9.242188 -16.34375 8.296875 -16.34375 C 7.085938 -16.34375 6.160156 -16.128906 5.515625 -15.703125 C 4.878906 -15.273438 4.5625 -14.648438 4.5625 -13.828125 C 4.5625 -13.085938 4.785156 -12.492188 5.234375 -12.046875 C 5.691406 -11.597656 6.484375 -11.234375 7.609375 -10.953125 L 10.640625 -10.234375 C 12.222656 -9.859375 13.367188 -9.234375 14.078125 -8.359375 C 14.785156 -7.484375 15.140625 -6.390625 15.140625 -5.078125 C 15.140625 -4.003906 14.882812 -3.0625 14.375 -2.25 C 13.875 -1.4375 13.109375 -0.800781 12.078125 -0.34375 C 11.054688 0.113281 9.804688 0.34375 8.328125 0.34375 Z M 8.328125 0.34375 "/></g></g></g></svg>