<svg xmlns="http://www.w3.org/2000/svg" xmlns:xlink="http://www.w3.org/1999/xlink" width="1013" zoomAndPan="magnify" viewBox="0 0 759.75 178.499995" height="238" preserveAspectRatio="xMidYMid meet" version="1.0"><defs><g/><clipPath id="58a171122c"><path d="M 0.9375 0 L 758.5625 0 L 758.5625 177.621094 L 0.9375 177.621094 Z M 0.9375 0 " clip-rule="nonzero"/></clipPath><clipPath id="4ece0b9acd"><path d="M 39.078125 0 L 720.203125 0 C 730.320312 0 740.023438 4.019531 747.175781 11.171875 C 754.328125 18.324219 758.347656 28.027344 758.347656 38.144531 L 758.347656 139.480469 C 758.347656 149.597656 754.328125 159.296875 747.175781 166.449219 C 740.023438 173.605469 730.320312 177.621094 720.203125 177.621094 L 39.078125 177.621094 C 28.964844 177.621094 19.261719 173.605469 12.109375 166.449219 C 4.957031 159.296875 0.9375 149.597656 0.9375 139.480469 L 0.9375 38.144531 C 0.9375 28.027344 4.957031 18.324219 12.109375 11.171875 C 19.261719 4.019531 28.964844 0 39.078125 0 Z M 39.078125 0 " clip-rule="nonzero"/></clipPath></defs><g clip-path="url(#58a171122c)"><g clip-path="url(#4ece0b9acd)"><path fill="#ffffff" d="M 0.9375 0 L 758.609375 0 L 758.609375 177.621094 L 0.9375 177.621094 Z M 0.9375 0 " fill-opacity="1" fill-rule="nonzero"/></g></g><g fill="#000000" fill-opacity="1"><g transform="translate(46.430144, 120.106447)"><g><path d="M 13.328125 0.34375 C 11.210938 0.34375 9.332031 -0.140625 7.6875 -1.109375 C 6.039062 -2.078125 4.75 -3.488281 3.8125 -5.34375 C 2.875 -7.207031 2.40625 -9.445312 2.40625 -12.0625 C 2.40625 -14.664062 2.875 -16.898438 3.8125 -18.765625 C 4.75 -20.628906 6.039062 -22.046875 7.6875 -23.015625 C 9.332031 -23.984375 11.210938 -24.46875 13.328125 -24.46875 C 15.578125 -24.46875 17.453125 -24.039062 18.953125 -23.1875 C 20.453125 -22.332031 21.53125 -21.046875 22.1875 -19.328125 L 20.375 -18.125 L 19.953125 -18.125 C 19.296875 -19.5 18.4375 -20.472656 17.375 -21.046875 C 16.320312 -21.628906 14.972656 -21.921875 13.328125 -21.921875 C 11.804688 -21.921875 10.457031 -21.582031 9.28125 -20.90625 C 8.101562 -20.226562 7.164062 -19.15625 6.46875 -17.6875 C 5.78125 -16.21875 5.4375 -14.34375 5.4375 -12.0625 C 5.4375 -9.769531 5.78125 -7.890625 6.46875 -6.421875 C 7.164062 -4.960938 8.101562 -3.894531 9.28125 -3.21875 C 10.457031 -2.539062 11.804688 -2.203125 13.328125 -2.203125 C 15.078125 -2.203125 16.503906 -2.59375 17.609375 -3.375 C 18.722656 -4.164062 19.550781 -5.441406 20.09375 -7.203125 L 20.5 -7.203125 L 22.40625 -6.265625 C 21.832031 -4.128906 20.769531 -2.492188 19.21875 -1.359375 C 17.675781 -0.222656 15.710938 0.34375 13.328125 0.34375 Z M 13.328125 0.34375 "/></g></g></g><g fill="#000000" fill-opacity="1"><g transform="translate(70.080976, 120.106447)"><g><path d="M 7.5 0.34375 C 5.707031 0.34375 4.304688 -0.117188 3.296875 -1.046875 C 2.296875 -1.984375 1.796875 -3.320312 1.796875 -5.0625 C 1.796875 -6.144531 2.019531 -7.054688 2.46875 -7.796875 C 2.914062 -8.535156 3.601562 -9.140625 4.53125 -9.609375 C 5.46875 -10.078125 6.691406 -10.4375 8.203125 -10.6875 C 9.515625 -10.90625 10.515625 -11.148438 11.203125 -11.421875 C 11.890625 -11.703125 12.351562 -12.007812 12.59375 -12.34375 C 12.832031 -12.6875 12.953125 -13.117188 12.953125 -13.640625 C 12.953125 -14.460938 12.664062 -15.09375 12.09375 -15.53125 C 11.53125 -15.976562 10.625 -16.203125 9.375 -16.203125 C 8.195312 -16.203125 7.1875 -15.972656 6.34375 -15.515625 C 5.5 -15.054688 4.726562 -14.375 4.03125 -13.46875 L 3.6875 -13.46875 L 2.375 -15.34375 C 3.144531 -16.320312 4.125 -17.097656 5.3125 -17.671875 C 6.5 -18.253906 7.851562 -18.546875 9.375 -18.546875 C 11.507812 -18.546875 13.085938 -18.070312 14.109375 -17.125 C 15.128906 -16.1875 15.640625 -14.890625 15.640625 -13.234375 L 15.640625 -3.578125 C 15.640625 -2.566406 16.066406 -2.0625 16.921875 -2.0625 C 17.210938 -2.0625 17.488281 -2.109375 17.75 -2.203125 L 17.984375 -2.140625 L 18.296875 -0.28125 C 18.097656 -0.144531 17.832031 -0.046875 17.5 0.015625 C 17.175781 0.0859375 16.847656 0.125 16.515625 0.125 C 15.515625 0.125 14.753906 -0.09375 14.234375 -0.53125 C 13.722656 -0.96875 13.398438 -1.613281 13.265625 -2.46875 L 12.921875 -2.5 C 12.398438 -1.550781 11.695312 -0.835938 10.8125 -0.359375 C 9.9375 0.109375 8.832031 0.34375 7.5 0.34375 Z M 8.09375 -1.796875 C 9.101562 -1.796875 9.976562 -2.03125 10.71875 -2.5 C 11.46875 -2.96875 12.039062 -3.625 12.4375 -4.46875 C 12.832031 -5.3125 13.03125 -6.289062 13.03125 -7.40625 L 13.03125 -9.71875 L 12.71875 -9.78125 C 12.3125 -9.5 11.816406 -9.257812 11.234375 -9.0625 C 10.648438 -8.875 9.835938 -8.703125 8.796875 -8.546875 C 7.734375 -8.398438 6.890625 -8.175781 6.265625 -7.875 C 5.648438 -7.582031 5.207031 -7.207031 4.9375 -6.75 C 4.675781 -6.289062 4.546875 -5.726562 4.546875 -5.0625 C 4.546875 -4 4.859375 -3.1875 5.484375 -2.625 C 6.117188 -2.070312 6.988281 -1.796875 8.09375 -1.796875 Z M 8.09375 -1.796875 "/></g></g></g><g fill="#000000" fill-opacity="1"><g transform="translate(88.899396, 120.106447)"><g><path d="M 3.171875 0 L 3.171875 -18.1875 L 5.71875 -18.1875 L 5.71875 -15.34375 L 6.0625 -15.25 C 6.675781 -16.320312 7.453125 -17.140625 8.390625 -17.703125 C 9.328125 -18.265625 10.472656 -18.546875 11.828125 -18.546875 C 14.015625 -18.546875 15.597656 -17.984375 16.578125 -16.859375 C 17.566406 -15.742188 18.0625 -14.03125 18.0625 -11.71875 L 18.0625 0 L 15.375 0 L 15.375 -11.640625 C 15.375 -12.742188 15.234375 -13.628906 14.953125 -14.296875 C 14.671875 -14.960938 14.234375 -15.445312 13.640625 -15.75 C 13.054688 -16.050781 12.285156 -16.203125 11.328125 -16.203125 C 9.691406 -16.203125 8.367188 -15.660156 7.359375 -14.578125 C 6.359375 -13.492188 5.859375 -11.75 5.859375 -9.34375 L 5.859375 0 Z M 3.171875 0 "/></g></g></g><g fill="#000000" fill-opacity="1"><g transform="translate(109.845391, 120.106447)"><g/></g></g><g fill="#000000" fill-opacity="1"><g transform="translate(118.124832, 120.106447)"><g><path d="M 3.640625 7.71875 C 3.023438 7.71875 2.453125 7.664062 1.921875 7.5625 C 1.390625 7.457031 0.929688 7.3125 0.546875 7.125 L 1.046875 5 L 1.34375 4.90625 C 1.601562 5.03125 1.929688 5.140625 2.328125 5.234375 C 2.722656 5.328125 3.128906 5.375 3.546875 5.375 C 4.285156 5.375 4.894531 5.273438 5.375 5.078125 C 5.863281 4.878906 6.28125 4.550781 6.625 4.09375 C 6.96875 3.644531 7.289062 3.015625 7.59375 2.203125 L 8.234375 0.421875 L 0.921875 -18.1875 L 3.828125 -18.1875 L 9.546875 -3.34375 L 9.859375 -3.34375 L 15.40625 -18.1875 L 18.15625 -18.1875 L 10.03125 2.859375 C 9.570312 4.023438 9.054688 4.960938 8.484375 5.671875 C 7.910156 6.378906 7.234375 6.894531 6.453125 7.21875 C 5.671875 7.550781 4.734375 7.71875 3.640625 7.71875 Z M 3.640625 7.71875 "/></g></g></g><g fill="#000000" fill-opacity="1"><g transform="translate(136.959715, 120.106447)"><g><path d="M 10.4375 0.34375 C 8.726562 0.34375 7.238281 -0.015625 5.96875 -0.734375 C 4.695312 -1.460938 3.71875 -2.53125 3.03125 -3.9375 C 2.34375 -5.351562 2 -7.070312 2 -9.09375 C 2 -11.101562 2.34375 -12.816406 3.03125 -14.234375 C 3.71875 -15.648438 4.695312 -16.722656 5.96875 -17.453125 C 7.238281 -18.179688 8.726562 -18.546875 10.4375 -18.546875 C 12.15625 -18.546875 13.648438 -18.179688 14.921875 -17.453125 C 16.191406 -16.722656 17.171875 -15.648438 17.859375 -14.234375 C 18.546875 -12.816406 18.890625 -11.101562 18.890625 -9.09375 C 18.890625 -7.070312 18.546875 -5.351562 17.859375 -3.9375 C 17.171875 -2.53125 16.191406 -1.460938 14.921875 -0.734375 C 13.648438 -0.015625 12.15625 0.34375 10.4375 0.34375 Z M 10.4375 -2.0625 C 12.25 -2.0625 13.632812 -2.632812 14.59375 -3.78125 C 15.5625 -4.925781 16.046875 -6.695312 16.046875 -9.09375 C 16.046875 -11.5 15.5625 -13.269531 14.59375 -14.40625 C 13.632812 -15.550781 12.25 -16.125 10.4375 -16.125 C 8.625 -16.125 7.234375 -15.550781 6.265625 -14.40625 C 5.296875 -13.257812 4.8125 -11.488281 4.8125 -9.09375 C 4.8125 -6.695312 5.296875 -4.925781 6.265625 -3.78125 C 7.234375 -2.632812 8.625 -2.0625 10.4375 -2.0625 Z M 10.4375 -2.0625 "/></g></g></g><g fill="#000000" fill-opacity="1"><g transform="translate(157.839739, 120.106447)"><g><path d="M 8.984375 0.34375 C 6.929688 0.34375 5.398438 -0.195312 4.390625 -1.28125 C 3.390625 -2.375 2.890625 -3.96875 2.890625 -6.0625 L 2.890625 -18.1875 L 5.578125 -18.1875 L 5.578125 -6.140625 C 5.578125 -3.378906 6.875 -2 9.46875 -2 C 11.113281 -2 12.414062 -2.535156 13.375 -3.609375 C 14.332031 -4.691406 14.8125 -6.441406 14.8125 -8.859375 L 14.8125 -18.1875 L 17.5 -18.1875 L 17.5 0 L 14.953125 0 L 14.953125 -2.859375 L 14.609375 -2.9375 C 13.984375 -1.820312 13.234375 -0.992188 12.359375 -0.453125 C 11.484375 0.078125 10.359375 0.34375 8.984375 0.34375 Z M 8.984375 0.34375 "/></g></g></g><g fill="#000000" fill-opacity="1"><g transform="translate(178.505365, 120.106447)"><g/></g></g><g fill="#000000" fill-opacity="1"><g transform="translate(186.784805, 120.106447)"><g><path d="M 8.296875 0.34375 C 7.148438 0.34375 6.085938 0.191406 5.109375 -0.109375 C 4.140625 -0.410156 3.320312 -0.820312 2.65625 -1.34375 C 1.988281 -1.875 1.515625 -2.472656 1.234375 -3.140625 L 2.828125 -4.78125 L 3.171875 -4.78125 C 3.765625 -3.882812 4.476562 -3.207031 5.3125 -2.75 C 6.144531 -2.289062 7.140625 -2.0625 8.296875 -2.0625 C 9.640625 -2.0625 10.660156 -2.320312 11.359375 -2.84375 C 12.054688 -3.363281 12.40625 -4.09375 12.40625 -5.03125 C 12.40625 -5.75 12.191406 -6.335938 11.765625 -6.796875 C 11.347656 -7.265625 10.664062 -7.613281 9.71875 -7.84375 L 6.640625 -8.609375 C 5.003906 -9.003906 3.8125 -9.628906 3.0625 -10.484375 C 2.3125 -11.347656 1.9375 -12.410156 1.9375 -13.671875 C 1.9375 -14.660156 2.1875 -15.519531 2.6875 -16.25 C 3.195312 -16.988281 3.925781 -17.554688 4.875 -17.953125 C 5.820312 -18.347656 6.953125 -18.546875 8.265625 -18.546875 C 9.929688 -18.546875 11.242188 -18.3125 12.203125 -17.84375 C 13.171875 -17.375 13.925781 -16.722656 14.46875 -15.890625 L 12.953125 -14.40625 L 12.625 -14.40625 C 12.039062 -15.070312 11.40625 -15.550781 10.71875 -15.84375 C 10.03125 -16.144531 9.210938 -16.296875 8.265625 -16.296875 C 7.066406 -16.296875 6.144531 -16.082031 5.5 -15.65625 C 4.863281 -15.226562 4.546875 -14.609375 4.546875 -13.796875 C 4.546875 -13.054688 4.769531 -12.457031 5.21875 -12 C 5.675781 -11.550781 6.46875 -11.191406 7.59375 -10.921875 L 10.609375 -10.1875 C 12.191406 -9.820312 13.332031 -9.203125 14.03125 -8.328125 C 14.738281 -7.460938 15.09375 -6.375 15.09375 -5.0625 C 15.09375 -4 14.835938 -3.054688 14.328125 -2.234375 C 13.828125 -1.421875 13.0625 -0.785156 12.03125 -0.328125 C 11.007812 0.117188 9.765625 0.34375 8.296875 0.34375 Z M 8.296875 0.34375 "/></g></g></g><g fill="#000000" fill-opacity="1"><g transform="translate(203.607573, 120.106447)"><g><path d="M 3.171875 0 L 3.171875 -25.5 L 5.859375 -25.5 L 5.859375 -15.609375 L 6.203125 -15.53125 C 7.492188 -17.539062 9.367188 -18.546875 11.828125 -18.546875 C 14.015625 -18.546875 15.597656 -17.984375 16.578125 -16.859375 C 17.566406 -15.742188 18.0625 -14.03125 18.0625 -11.71875 L 18.0625 0 L 15.375 0 L 15.375 -11.640625 C 15.375 -12.742188 15.234375 -13.628906 14.953125 -14.296875 C 14.671875 -14.960938 14.234375 -15.445312 13.640625 -15.75 C 13.054688 -16.050781 12.285156 -16.203125 11.328125 -16.203125 C 9.679688 -16.203125 8.359375 -15.664062 7.359375 -14.59375 C 6.359375 -13.53125 5.859375 -11.78125 5.859375 -9.34375 L 5.859375 0 Z M 3.171875 0 "/></g></g></g><g fill="#000000" fill-opacity="1"><g transform="translate(224.553569, 120.106447)"><g><path d="M 10.4375 0.34375 C 8.726562 0.34375 7.238281 -0.015625 5.96875 -0.734375 C 4.695312 -1.460938 3.71875 -2.53125 3.03125 -3.9375 C 2.34375 -5.351562 2 -7.070312 2 -9.09375 C 2 -11.101562 2.34375 -12.816406 3.03125 -14.234375 C 3.71875 -15.648438 4.695312 -16.722656 5.96875 -17.453125 C 7.238281 -18.179688 8.726562 -18.546875 10.4375 -18.546875 C 12.15625 -18.546875 13.648438 -18.179688 14.921875 -17.453125 C 16.191406 -16.722656 17.171875 -15.648438 17.859375 -14.234375 C 18.546875 -12.816406 18.890625 -11.101562 18.890625 -9.09375 C 18.890625 -7.070312 18.546875 -5.351562 17.859375 -3.9375 C 17.171875 -2.53125 16.191406 -1.460938 14.921875 -0.734375 C 13.648438 -0.015625 12.15625 0.34375 10.4375 0.34375 Z M 10.4375 -2.0625 C 12.25 -2.0625 13.632812 -2.632812 14.59375 -3.78125 C 15.5625 -4.925781 16.046875 -6.695312 16.046875 -9.09375 C 16.046875 -11.5 15.5625 -13.269531 14.59375 -14.40625 C 13.632812 -15.550781 12.25 -16.125 10.4375 -16.125 C 8.625 -16.125 7.234375 -15.550781 6.265625 -14.40625 C 5.296875 -13.257812 4.8125 -11.488281 4.8125 -9.09375 C 4.8125 -6.695312 5.296875 -4.925781 6.265625 -3.78125 C 7.234375 -2.632812 8.625 -2.0625 10.4375 -2.0625 Z M 10.4375 -2.0625 "/></g></g></g><g fill="#000000" fill-opacity="1"><g transform="translate(245.301649, 120.106447)"><g><path d="M 9.015625 0 L 5.625 0 L 1.171875 -18.1875 L 3.828125 -18.1875 L 7.28125 -3.140625 L 7.625 -3.140625 L 11.859375 -18.1875 L 14.6875 -18.1875 L 19.046875 -3.140625 L 19.390625 -3.140625 L 22.78125 -18.1875 L 25.359375 -18.1875 L 20.953125 0 L 17.53125 0 L 13.375 -14.125 L 13.03125 -14.125 Z M 9.015625 0 "/></g></g></g><g fill="#000000" fill-opacity="1"><g transform="translate(271.822249, 120.106447)"><g/></g></g><g fill="#000000" fill-opacity="1"><g transform="translate(280.10169, 120.106447)"><g><path d="M 3.171875 0 L 3.171875 -18.1875 L 5.71875 -18.1875 L 5.71875 -15.5 L 6.0625 -15.4375 C 6.6875 -16.457031 7.429688 -17.226562 8.296875 -17.75 C 9.171875 -18.28125 10.222656 -18.546875 11.453125 -18.546875 C 12.859375 -18.546875 13.945312 -18.273438 14.71875 -17.734375 C 15.488281 -17.203125 16.085938 -16.34375 16.515625 -15.15625 L 16.859375 -15.15625 C 17.484375 -16.269531 18.253906 -17.113281 19.171875 -17.6875 C 20.085938 -18.257812 21.21875 -18.546875 22.5625 -18.546875 C 24.4375 -18.546875 25.832031 -18.035156 26.75 -17.015625 C 27.664062 -16.003906 28.125 -14.46875 28.125 -12.40625 L 28.125 0 L 25.4375 0 L 25.4375 -12.34375 C 25.4375 -13.65625 25.15625 -14.625 24.59375 -15.25 C 24.039062 -15.882812 23.148438 -16.203125 21.921875 -16.203125 C 20.472656 -16.203125 19.285156 -15.671875 18.359375 -14.609375 C 17.441406 -13.554688 16.984375 -11.820312 16.984375 -9.40625 L 16.984375 0 L 14.296875 0 L 14.296875 -12.34375 C 14.296875 -13.65625 14.019531 -14.625 13.46875 -15.25 C 12.914062 -15.882812 12.019531 -16.203125 10.78125 -16.203125 C 9.332031 -16.203125 8.148438 -15.6875 7.234375 -14.65625 C 6.316406 -13.632812 5.859375 -11.976562 5.859375 -9.6875 L 5.859375 0 Z M 3.171875 0 "/></g></g></g><g fill="#000000" fill-opacity="1"><g transform="translate(311.10836, 120.106447)"><g><path d="M 17.34375 -8.484375 L 4.828125 -8.484375 C 4.910156 -6.265625 5.441406 -4.640625 6.421875 -3.609375 C 7.410156 -2.578125 8.757812 -2.0625 10.46875 -2.0625 C 11.769531 -2.0625 12.816406 -2.289062 13.609375 -2.75 C 14.398438 -3.21875 15.019531 -3.945312 15.46875 -4.9375 L 15.8125 -4.9375 L 17.5625 -3.890625 C 17.039062 -2.566406 16.195312 -1.53125 15.03125 -0.78125 C 13.875 -0.03125 12.351562 0.34375 10.46875 0.34375 C 8.707031 0.34375 7.195312 0 5.9375 -0.6875 C 4.675781 -1.382812 3.703125 -2.4375 3.015625 -3.84375 C 2.335938 -5.25 2 -7 2 -9.09375 C 2 -11.15625 2.359375 -12.894531 3.078125 -14.3125 C 3.796875 -15.726562 4.78125 -16.785156 6.03125 -17.484375 C 7.28125 -18.191406 8.707031 -18.546875 10.3125 -18.546875 C 12.644531 -18.546875 14.460938 -17.882812 15.765625 -16.5625 C 17.078125 -15.25 17.738281 -13.300781 17.75 -10.71875 C 17.75 -9.707031 17.726562 -9.023438 17.6875 -8.671875 Z M 15.09375 -10.71875 C 15.050781 -12.65625 14.617188 -14.0625 13.796875 -14.9375 C 12.984375 -15.820312 11.820312 -16.265625 10.3125 -16.265625 C 8.71875 -16.265625 7.46875 -15.820312 6.5625 -14.9375 C 5.65625 -14.050781 5.101562 -12.644531 4.90625 -10.71875 Z M 15.09375 -10.71875 "/></g></g></g><g fill="#000000" fill-opacity="1"><g transform="translate(330.504022, 120.106447)"><g/></g></g><g fill="#000000" fill-opacity="1"><g transform="translate(338.783462, 120.106447)"><g><path d="M 3.171875 0 L 3.171875 -18.1875 L 5.71875 -18.1875 L 5.71875 -15.5 L 6.0625 -15.4375 C 6.6875 -16.457031 7.429688 -17.226562 8.296875 -17.75 C 9.171875 -18.28125 10.222656 -18.546875 11.453125 -18.546875 C 12.859375 -18.546875 13.945312 -18.273438 14.71875 -17.734375 C 15.488281 -17.203125 16.085938 -16.34375 16.515625 -15.15625 L 16.859375 -15.15625 C 17.484375 -16.269531 18.253906 -17.113281 19.171875 -17.6875 C 20.085938 -18.257812 21.21875 -18.546875 22.5625 -18.546875 C 24.4375 -18.546875 25.832031 -18.035156 26.75 -17.015625 C 27.664062 -16.003906 28.125 -14.46875 28.125 -12.40625 L 28.125 0 L 25.4375 0 L 25.4375 -12.34375 C 25.4375 -13.65625 25.15625 -14.625 24.59375 -15.25 C 24.039062 -15.882812 23.148438 -16.203125 21.921875 -16.203125 C 20.472656 -16.203125 19.285156 -15.671875 18.359375 -14.609375 C 17.441406 -13.554688 16.984375 -11.820312 16.984375 -9.40625 L 16.984375 0 L 14.296875 0 L 14.296875 -12.34375 C 14.296875 -13.65625 14.019531 -14.625 13.46875 -15.25 C 12.914062 -15.882812 12.019531 -16.203125 10.78125 -16.203125 C 9.332031 -16.203125 8.148438 -15.6875 7.234375 -14.65625 C 6.316406 -13.632812 5.859375 -11.976562 5.859375 -9.6875 L 5.859375 0 Z M 3.171875 0 "/></g></g></g><g fill="#000000" fill-opacity="1"><g transform="translate(369.575714, 120.106447)"><g><path d="M 3.640625 7.71875 C 3.023438 7.71875 2.453125 7.664062 1.921875 7.5625 C 1.390625 7.457031 0.929688 7.3125 0.546875 7.125 L 1.046875 5 L 1.34375 4.90625 C 1.601562 5.03125 1.929688 5.140625 2.328125 5.234375 C 2.722656 5.328125 3.128906 5.375 3.546875 5.375 C 4.285156 5.375 4.894531 5.273438 5.375 5.078125 C 5.863281 4.878906 6.28125 4.550781 6.625 4.09375 C 6.96875 3.644531 7.289062 3.015625 7.59375 2.203125 L 8.234375 0.421875 L 0.921875 -18.1875 L 3.828125 -18.1875 L 9.546875 -3.34375 L 9.859375 -3.34375 L 15.40625 -18.1875 L 18.15625 -18.1875 L 10.03125 2.859375 C 9.570312 4.023438 9.054688 4.960938 8.484375 5.671875 C 7.910156 6.378906 7.234375 6.894531 6.453125 7.21875 C 5.671875 7.550781 4.734375 7.71875 3.640625 7.71875 Z M 3.640625 7.71875 "/></g></g></g><g fill="#000000" fill-opacity="1"><g transform="translate(388.756979, 120.106447)"><g/></g></g><g fill="#000000" fill-opacity="1"><g transform="translate(397.036399, 120.106447)"><g><path d="M 7.234375 0.34375 C 5.953125 0.34375 4.941406 -0.0195312 4.203125 -0.75 C 3.460938 -1.476562 3.09375 -2.570312 3.09375 -4.03125 L 3.09375 -25.5 L 5.796875 -25.5 L 5.796875 -4.203125 C 5.796875 -3.441406 5.9375 -2.894531 6.21875 -2.5625 C 6.507812 -2.226562 6.96875 -2.0625 7.59375 -2.0625 C 7.957031 -2.0625 8.332031 -2.125 8.71875 -2.25 L 8.953125 -2.171875 L 9.265625 -0.0625 C 9.066406 0.0625 8.785156 0.160156 8.421875 0.234375 C 8.054688 0.304688 7.660156 0.34375 7.234375 0.34375 Z M 7.234375 0.34375 "/></g></g></g><g fill="#000000" fill-opacity="1"><g transform="translate(406.932145, 120.106447)"><g><path d="M 7.5 0.34375 C 5.707031 0.34375 4.304688 -0.117188 3.296875 -1.046875 C 2.296875 -1.984375 1.796875 -3.320312 1.796875 -5.0625 C 1.796875 -6.144531 2.019531 -7.054688 2.46875 -7.796875 C 2.914062 -8.535156 3.601562 -9.140625 4.53125 -9.609375 C 5.46875 -10.078125 6.691406 -10.4375 8.203125 -10.6875 C 9.515625 -10.90625 10.515625 -11.148438 11.203125 -11.421875 C 11.890625 -11.703125 12.351562 -12.007812 12.59375 -12.34375 C 12.832031 -12.6875 12.953125 -13.117188 12.953125 -13.640625 C 12.953125 -14.460938 12.664062 -15.09375 12.09375 -15.53125 C 11.53125 -15.976562 10.625 -16.203125 9.375 -16.203125 C 8.195312 -16.203125 7.1875 -15.972656 6.34375 -15.515625 C 5.5 -15.054688 4.726562 -14.375 4.03125 -13.46875 L 3.6875 -13.46875 L 2.375 -15.34375 C 3.144531 -16.320312 4.125 -17.097656 5.3125 -17.671875 C 6.5 -18.253906 7.851562 -18.546875 9.375 -18.546875 C 11.507812 -18.546875 13.085938 -18.070312 14.109375 -17.125 C 15.128906 -16.1875 15.640625 -14.890625 15.640625 -13.234375 L 15.640625 -3.578125 C 15.640625 -2.566406 16.066406 -2.0625 16.921875 -2.0625 C 17.210938 -2.0625 17.488281 -2.109375 17.75 -2.203125 L 17.984375 -2.140625 L 18.296875 -0.28125 C 18.097656 -0.144531 17.832031 -0.046875 17.5 0.015625 C 17.175781 0.0859375 16.847656 0.125 16.515625 0.125 C 15.515625 0.125 14.753906 -0.09375 14.234375 -0.53125 C 13.722656 -0.96875 13.398438 -1.613281 13.265625 -2.46875 L 12.921875 -2.5 C 12.398438 -1.550781 11.695312 -0.835938 10.8125 -0.359375 C 9.9375 0.109375 8.832031 0.34375 7.5 0.34375 Z M 8.09375 -1.796875 C 9.101562 -1.796875 9.976562 -2.03125 10.71875 -2.5 C 11.46875 -2.96875 12.039062 -3.625 12.4375 -4.46875 C 12.832031 -5.3125 13.03125 -6.289062 13.03125 -7.40625 L 13.03125 -9.71875 L 12.71875 -9.78125 C 12.3125 -9.5 11.816406 -9.257812 11.234375 -9.0625 C 10.648438 -8.875 9.835938 -8.703125 8.796875 -8.546875 C 7.734375 -8.398438 6.890625 -8.175781 6.265625 -7.875 C 5.648438 -7.582031 5.207031 -7.207031 4.9375 -6.75 C 4.675781 -6.289062 4.546875 -5.726562 4.546875 -5.0625 C 4.546875 -4 4.859375 -3.1875 5.484375 -2.625 C 6.117188 -2.070312 6.988281 -1.796875 8.09375 -1.796875 Z M 8.09375 -1.796875 "/></g></g></g><g fill="#000000" fill-opacity="1"><g transform="translate(425.750545, 120.106447)"><g><path d="M 8.296875 0.34375 C 7.148438 0.34375 6.085938 0.191406 5.109375 -0.109375 C 4.140625 -0.410156 3.320312 -0.820312 2.65625 -1.34375 C 1.988281 -1.875 1.515625 -2.472656 1.234375 -3.140625 L 2.828125 -4.78125 L 3.171875 -4.78125 C 3.765625 -3.882812 4.476562 -3.207031 5.3125 -2.75 C 6.144531 -2.289062 7.140625 -2.0625 8.296875 -2.0625 C 9.640625 -2.0625 10.660156 -2.320312 11.359375 -2.84375 C 12.054688 -3.363281 12.40625 -4.09375 12.40625 -5.03125 C 12.40625 -5.75 12.191406 -6.335938 11.765625 -6.796875 C 11.347656 -7.265625 10.664062 -7.613281 9.71875 -7.84375 L 6.640625 -8.609375 C 5.003906 -9.003906 3.8125 -9.628906 3.0625 -10.484375 C 2.3125 -11.347656 1.9375 -12.410156 1.9375 -13.671875 C 1.9375 -14.660156 2.1875 -15.519531 2.6875 -16.25 C 3.195312 -16.988281 3.925781 -17.554688 4.875 -17.953125 C 5.820312 -18.347656 6.953125 -18.546875 8.265625 -18.546875 C 9.929688 -18.546875 11.242188 -18.3125 12.203125 -17.84375 C 13.171875 -17.375 13.925781 -16.722656 14.46875 -15.890625 L 12.953125 -14.40625 L 12.625 -14.40625 C 12.039062 -15.070312 11.40625 -15.550781 10.71875 -15.84375 C 10.03125 -16.144531 9.210938 -16.296875 8.265625 -16.296875 C 7.066406 -16.296875 6.144531 -16.082031 5.5 -15.65625 C 4.863281 -15.226562 4.546875 -14.609375 4.546875 -13.796875 C 4.546875 -13.054688 4.769531 -12.457031 5.21875 -12 C 5.675781 -11.550781 6.46875 -11.191406 7.59375 -10.921875 L 10.609375 -10.1875 C 12.191406 -9.820312 13.332031 -9.203125 14.03125 -8.328125 C 14.738281 -7.460938 15.09375 -6.375 15.09375 -5.0625 C 15.09375 -4 14.835938 -3.054688 14.328125 -2.234375 C 13.828125 -1.421875 13.0625 -0.785156 12.03125 -0.328125 C 11.007812 0.117188 9.765625 0.34375 8.296875 0.34375 Z M 8.296875 0.34375 "/></g></g></g><g fill="#000000" fill-opacity="1"><g transform="translate(442.573313, 120.106447)"><g><path d="M 12.3125 -2.890625 L 13.15625 -0.953125 C 12.726562 -0.523438 12.164062 -0.203125 11.46875 0.015625 C 10.769531 0.234375 10.015625 0.34375 9.203125 0.34375 C 5.722656 0.34375 3.984375 -1.414062 3.984375 -4.9375 L 3.984375 -16 L 0.828125 -16 L 0.828125 -18.203125 L 3.984375 -18.203125 L 3.984375 -22.046875 L 6.6875 -22.5 L 6.6875 -18.203125 L 12.53125 -18.203125 L 12.53125 -16 L 6.6875 -16 L 6.6875 -5.203125 C 6.6875 -3.109375 7.59375 -2.0625 9.40625 -2.0625 C 10.394531 -2.0625 11.242188 -2.335938 11.953125 -2.890625 Z M 12.3125 -2.890625 "/></g></g></g><g fill="#000000" fill-opacity="1"><g transform="translate(456.427357, 120.106447)"><g/></g></g><g fill="#000000" fill-opacity="1"><g transform="translate(464.706777, 120.106447)"><g><path d="M 12.3125 -2.890625 L 13.15625 -0.953125 C 12.726562 -0.523438 12.164062 -0.203125 11.46875 0.015625 C 10.769531 0.234375 10.015625 0.34375 9.203125 0.34375 C 5.722656 0.34375 3.984375 -1.414062 3.984375 -4.9375 L 3.984375 -16 L 0.828125 -16 L 0.828125 -18.203125 L 3.984375 -18.203125 L 3.984375 -22.046875 L 6.6875 -22.5 L 6.6875 -18.203125 L 12.53125 -18.203125 L 12.53125 -16 L 6.6875 -16 L 6.6875 -5.203125 C 6.6875 -3.109375 7.59375 -2.0625 9.40625 -2.0625 C 10.394531 -2.0625 11.242188 -2.335938 11.953125 -2.890625 Z M 12.3125 -2.890625 "/></g></g></g><g fill="#000000" fill-opacity="1"><g transform="translate(478.560822, 120.106447)"><g><path d="M 3.171875 0 L 3.171875 -25.5 L 5.859375 -25.5 L 5.859375 -15.609375 L 6.203125 -15.53125 C 7.492188 -17.539062 9.367188 -18.546875 11.828125 -18.546875 C 14.015625 -18.546875 15.597656 -17.984375 16.578125 -16.859375 C 17.566406 -15.742188 18.0625 -14.03125 18.0625 -11.71875 L 18.0625 0 L 15.375 0 L 15.375 -11.640625 C 15.375 -12.742188 15.234375 -13.628906 14.953125 -14.296875 C 14.671875 -14.960938 14.234375 -15.445312 13.640625 -15.75 C 13.054688 -16.050781 12.285156 -16.203125 11.328125 -16.203125 C 9.679688 -16.203125 8.359375 -15.664062 7.359375 -14.59375 C 6.359375 -13.53125 5.859375 -11.78125 5.859375 -9.34375 L 5.859375 0 Z M 3.171875 0 "/></g></g></g><g fill="#000000" fill-opacity="1"><g transform="translate(499.292399, 120.106447)"><g><path d="M 3.640625 7.71875 C 3.023438 7.71875 2.453125 7.664062 1.921875 7.5625 C 1.390625 7.457031 0.929688 7.3125 0.546875 7.125 L 1.046875 5 L 1.34375 4.90625 C 1.601562 5.03125 1.929688 5.140625 2.328125 5.234375 C 2.722656 5.328125 3.128906 5.375 3.546875 5.375 C 4.285156 5.375 4.894531 5.273438 5.375 5.078125 C 5.863281 4.878906 6.28125 4.550781 6.625 4.09375 C 6.96875 3.644531 7.289062 3.015625 7.59375 2.203125 L 8.234375 0.421875 L 0.921875 -18.1875 L 3.828125 -18.1875 L 9.546875 -3.34375 L 9.859375 -3.34375 L 15.40625 -18.1875 L 18.15625 -18.1875 L 10.03125 2.859375 C 9.570312 4.023438 9.054688 4.960938 8.484375 5.671875 C 7.910156 6.378906 7.234375 6.894531 6.453125 7.21875 C 5.671875 7.550781 4.734375 7.71875 3.640625 7.71875 Z M 3.640625 7.71875 "/></g></g></g><g fill="#000000" fill-opacity="1"><g transform="translate(518.473663, 120.106447)"><g><path d="M 3.171875 0 L 3.171875 -18.1875 L 5.71875 -18.1875 L 5.71875 -15.34375 L 6.0625 -15.25 C 6.914062 -17.320312 8.515625 -18.359375 10.859375 -18.359375 C 12.097656 -18.359375 13.023438 -18.132812 13.640625 -17.6875 L 12.953125 -15.40625 L 12.625 -15.34375 C 11.9375 -15.675781 11.1875 -15.84375 10.375 -15.84375 C 8.925781 -15.84375 7.8125 -15.296875 7.03125 -14.203125 C 6.25 -13.117188 5.859375 -11.359375 5.859375 -8.921875 L 5.859375 0 Z M 3.171875 0 "/></g></g></g><g fill="#000000" fill-opacity="1"><g transform="translate(532.047298, 120.106447)"><g><path d="M 10.4375 0.34375 C 8.726562 0.34375 7.238281 -0.015625 5.96875 -0.734375 C 4.695312 -1.460938 3.71875 -2.53125 3.03125 -3.9375 C 2.34375 -5.351562 2 -7.070312 2 -9.09375 C 2 -11.101562 2.34375 -12.816406 3.03125 -14.234375 C 3.71875 -15.648438 4.695312 -16.722656 5.96875 -17.453125 C 7.238281 -18.179688 8.726562 -18.546875 10.4375 -18.546875 C 12.15625 -18.546875 13.648438 -18.179688 14.921875 -17.453125 C 16.191406 -16.722656 17.171875 -15.648438 17.859375 -14.234375 C 18.546875 -12.816406 18.890625 -11.101562 18.890625 -9.09375 C 18.890625 -7.070312 18.546875 -5.351562 17.859375 -3.9375 C 17.171875 -2.53125 16.191406 -1.460938 14.921875 -0.734375 C 13.648438 -0.015625 12.15625 0.34375 10.4375 0.34375 Z M 10.4375 -2.0625 C 12.25 -2.0625 13.632812 -2.632812 14.59375 -3.78125 C 15.5625 -4.925781 16.046875 -6.695312 16.046875 -9.09375 C 16.046875 -11.5 15.5625 -13.269531 14.59375 -14.40625 C 13.632812 -15.550781 12.25 -16.125 10.4375 -16.125 C 8.625 -16.125 7.234375 -15.550781 6.265625 -14.40625 C 5.296875 -13.257812 4.8125 -11.488281 4.8125 -9.09375 C 4.8125 -6.695312 5.296875 -4.925781 6.265625 -3.78125 C 7.234375 -2.632812 8.625 -2.0625 10.4375 -2.0625 Z M 10.4375 -2.0625 "/></g></g></g><g fill="#000000" fill-opacity="1"><g transform="translate(552.927342, 120.106447)"><g><path d="M 4.515625 -21.703125 C 3.941406 -21.703125 3.476562 -21.878906 3.125 -22.234375 C 2.769531 -22.597656 2.59375 -23.054688 2.59375 -23.609375 C 2.59375 -24.148438 2.769531 -24.597656 3.125 -24.953125 C 3.476562 -25.316406 3.941406 -25.5 4.515625 -25.5 C 5.085938 -25.5 5.550781 -25.316406 5.90625 -24.953125 C 6.269531 -24.597656 6.453125 -24.148438 6.453125 -23.609375 C 6.453125 -23.054688 6.269531 -22.597656 5.90625 -22.234375 C 5.550781 -21.878906 5.085938 -21.703125 4.515625 -21.703125 Z M 3.171875 0 L 3.171875 -18.1875 L 5.859375 -18.1875 L 5.859375 0 Z M 3.171875 0 "/></g></g></g><g fill="#000000" fill-opacity="1"><g transform="translate(561.948974, 120.106447)"><g><path d="M 9.4375 0.34375 C 7.96875 0.34375 6.675781 -0.00390625 5.5625 -0.703125 C 4.445312 -1.398438 3.570312 -2.453125 2.9375 -3.859375 C 2.3125 -5.265625 2 -7.007812 2 -9.09375 C 2 -11.164062 2.328125 -12.90625 2.984375 -14.3125 C 3.640625 -15.726562 4.546875 -16.785156 5.703125 -17.484375 C 6.867188 -18.191406 8.21875 -18.546875 9.75 -18.546875 C 10.957031 -18.546875 12.046875 -18.316406 13.015625 -17.859375 C 13.984375 -17.398438 14.8125 -16.648438 15.5 -15.609375 L 15.84375 -15.671875 L 15.84375 -25.5 L 18.546875 -25.5 L 18.546875 0 L 15.84375 0 L 15.84375 -2.65625 L 15.5 -2.71875 C 14.90625 -1.820312 14.097656 -1.085938 13.078125 -0.515625 C 12.066406 0.0546875 10.851562 0.34375 9.4375 0.34375 Z M 10.28125 -2.0625 C 11.96875 -2.0625 13.316406 -2.640625 14.328125 -3.796875 C 15.335938 -4.960938 15.84375 -6.726562 15.84375 -9.09375 C 15.84375 -11.46875 15.335938 -13.234375 14.328125 -14.390625 C 13.316406 -15.546875 11.96875 -16.125 10.28125 -16.125 C 8.53125 -16.125 7.179688 -15.554688 6.234375 -14.421875 C 5.285156 -13.296875 4.8125 -11.519531 4.8125 -9.09375 C 4.8125 -4.40625 6.632812 -2.0625 10.28125 -2.0625 Z M 10.28125 -2.0625 "/></g></g></g><g fill="#000000" fill-opacity="1"><g transform="translate(583.670126, 120.106447)"><g/></g></g><g fill="#000000" fill-opacity="1"><g transform="translate(591.949587, 120.106447)"><g><path d="M 3.171875 0 L 3.171875 -18.1875 L 5.71875 -18.1875 L 5.71875 -15.34375 L 6.0625 -15.25 C 6.914062 -17.320312 8.515625 -18.359375 10.859375 -18.359375 C 12.097656 -18.359375 13.023438 -18.132812 13.640625 -17.6875 L 12.953125 -15.40625 L 12.625 -15.34375 C 11.9375 -15.675781 11.1875 -15.84375 10.375 -15.84375 C 8.925781 -15.84375 7.8125 -15.296875 7.03125 -14.203125 C 6.25 -13.117188 5.859375 -11.359375 5.859375 -8.921875 L 5.859375 0 Z M 3.171875 0 "/></g></g></g><g fill="#000000" fill-opacity="1"><g transform="translate(605.523221, 120.106447)"><g><path d="M 17.34375 -8.484375 L 4.828125 -8.484375 C 4.910156 -6.265625 5.441406 -4.640625 6.421875 -3.609375 C 7.410156 -2.578125 8.757812 -2.0625 10.46875 -2.0625 C 11.769531 -2.0625 12.816406 -2.289062 13.609375 -2.75 C 14.398438 -3.21875 15.019531 -3.945312 15.46875 -4.9375 L 15.8125 -4.9375 L 17.5625 -3.890625 C 17.039062 -2.566406 16.195312 -1.53125 15.03125 -0.78125 C 13.875 -0.03125 12.351562 0.34375 10.46875 0.34375 C 8.707031 0.34375 7.195312 0 5.9375 -0.6875 C 4.675781 -1.382812 3.703125 -2.4375 3.015625 -3.84375 C 2.335938 -5.25 2 -7 2 -9.09375 C 2 -11.15625 2.359375 -12.894531 3.078125 -14.3125 C 3.796875 -15.726562 4.78125 -16.785156 6.03125 -17.484375 C 7.28125 -18.191406 8.707031 -18.546875 10.3125 -18.546875 C 12.644531 -18.546875 14.460938 -17.882812 15.765625 -16.5625 C 17.078125 -15.25 17.738281 -13.300781 17.75 -10.71875 C 17.75 -9.707031 17.726562 -9.023438 17.6875 -8.671875 Z M 15.09375 -10.71875 C 15.050781 -12.65625 14.617188 -14.0625 13.796875 -14.9375 C 12.984375 -15.820312 11.820312 -16.265625 10.3125 -16.265625 C 8.71875 -16.265625 7.46875 -15.820312 6.5625 -14.9375 C 5.65625 -14.050781 5.101562 -12.644531 4.90625 -10.71875 Z M 15.09375 -10.71875 "/></g></g></g><g fill="#000000" fill-opacity="1"><g transform="translate(624.918883, 120.106447)"><g><path d="M 3.171875 7.375 L 3.171875 -18.1875 L 5.859375 -18.1875 L 5.859375 -15.46875 L 6.203125 -15.40625 C 7.554688 -17.5 9.539062 -18.546875 12.15625 -18.546875 C 13.675781 -18.546875 15 -18.195312 16.125 -17.5 C 17.257812 -16.8125 18.140625 -15.757812 18.765625 -14.34375 C 19.398438 -12.925781 19.71875 -11.175781 19.71875 -9.09375 C 19.71875 -7.007812 19.382812 -5.265625 18.71875 -3.859375 C 18.0625 -2.453125 17.148438 -1.398438 15.984375 -0.703125 C 14.816406 -0.00390625 13.472656 0.34375 11.953125 0.34375 C 10.722656 0.34375 9.628906 0.128906 8.671875 -0.296875 C 7.710938 -0.722656 6.890625 -1.425781 6.203125 -2.40625 L 5.859375 -2.34375 L 5.859375 7.375 Z M 11.359375 -2.0625 C 15.046875 -2.0625 16.890625 -4.40625 16.890625 -9.09375 C 16.890625 -13.78125 15.046875 -16.125 11.359375 -16.125 C 10.285156 -16.125 9.335938 -15.875 8.515625 -15.375 C 7.691406 -14.882812 7.039062 -14.113281 6.5625 -13.0625 C 6.09375 -12.019531 5.859375 -10.695312 5.859375 -9.09375 C 5.859375 -7.5 6.09375 -6.175781 6.5625 -5.125 C 7.039062 -4.070312 7.691406 -3.296875 8.515625 -2.796875 C 9.335938 -2.304688 10.285156 -2.0625 11.359375 -2.0625 Z M 11.359375 -2.0625 "/></g></g></g><g fill="#000000" fill-opacity="1"><g transform="translate(646.623552, 120.106447)"><g><path d="M 10.4375 0.34375 C 8.726562 0.34375 7.238281 -0.015625 5.96875 -0.734375 C 4.695312 -1.460938 3.71875 -2.53125 3.03125 -3.9375 C 2.34375 -5.351562 2 -7.070312 2 -9.09375 C 2 -11.101562 2.34375 -12.816406 3.03125 -14.234375 C 3.71875 -15.648438 4.695312 -16.722656 5.96875 -17.453125 C 7.238281 -18.179688 8.726562 -18.546875 10.4375 -18.546875 C 12.15625 -18.546875 13.648438 -18.179688 14.921875 -17.453125 C 16.191406 -16.722656 17.171875 -15.648438 17.859375 -14.234375 C 18.546875 -12.816406 18.890625 -11.101562 18.890625 -9.09375 C 18.890625 -7.070312 18.546875 -5.351562 17.859375 -3.9375 C 17.171875 -2.53125 16.191406 -1.460938 14.921875 -0.734375 C 13.648438 -0.015625 12.15625 0.34375 10.4375 0.34375 Z M 10.4375 -2.0625 C 12.25 -2.0625 13.632812 -2.632812 14.59375 -3.78125 C 15.5625 -4.925781 16.046875 -6.695312 16.046875 -9.09375 C 16.046875 -11.5 15.5625 -13.269531 14.59375 -14.40625 C 13.632812 -15.550781 12.25 -16.125 10.4375 -16.125 C 8.625 -16.125 7.234375 -15.550781 6.265625 -14.40625 C 5.296875 -13.257812 4.8125 -11.488281 4.8125 -9.09375 C 4.8125 -6.695312 5.296875 -4.925781 6.265625 -3.78125 C 7.234375 -2.632812 8.625 -2.0625 10.4375 -2.0625 Z M 10.4375 -2.0625 "/></g></g></g><g fill="#000000" fill-opacity="1"><g transform="translate(667.503597, 120.106447)"><g><path d="M 3.171875 0 L 3.171875 -18.1875 L 5.71875 -18.1875 L 5.71875 -15.34375 L 6.0625 -15.25 C 6.914062 -17.320312 8.515625 -18.359375 10.859375 -18.359375 C 12.097656 -18.359375 13.023438 -18.132812 13.640625 -17.6875 L 12.953125 -15.40625 L 12.625 -15.34375 C 11.9375 -15.675781 11.1875 -15.84375 10.375 -15.84375 C 8.925781 -15.84375 7.8125 -15.296875 7.03125 -14.203125 C 6.25 -13.117188 5.859375 -11.359375 5.859375 -8.921875 L 5.859375 0 Z M 3.171875 0 "/></g></g></g><g fill="#000000" fill-opacity="1"><g transform="translate(681.555556, 120.106447)"><g><path d="M 12.3125 -2.890625 L 13.15625 -0.953125 C 12.726562 -0.523438 12.164062 -0.203125 11.46875 0.015625 C 10.769531 0.234375 10.015625 0.34375 9.203125 0.34375 C 5.722656 0.34375 3.984375 -1.414062 3.984375 -4.9375 L 3.984375 -16 L 0.828125 -16 L 0.828125 -18.203125 L 3.984375 -18.203125 L 3.984375 -22.046875 L 6.6875 -22.5 L 6.6875 -18.203125 L 12.53125 -18.203125 L 12.53125 -16 L 6.6875 -16 L 6.6875 -5.203125 C 6.6875 -3.109375 7.59375 -2.0625 9.40625 -2.0625 C 10.394531 -2.0625 11.242188 -2.335938 11.953125 -2.890625 Z M 12.3125 -2.890625 "/></g></g></g><g fill="#000000" fill-opacity="1"><g transform="translate(695.4096, 120.106447)"><g><path d="M 6.421875 -8.671875 C 6.421875 -9.410156 6.507812 -10.046875 6.6875 -10.578125 C 6.863281 -11.117188 7.160156 -11.628906 7.578125 -12.109375 C 7.992188 -12.597656 8.582031 -13.128906 9.34375 -13.703125 L 10.859375 -14.875 C 11.515625 -15.382812 11.992188 -15.9375 12.296875 -16.53125 C 12.597656 -17.132812 12.75 -17.835938 12.75 -18.640625 C 12.75 -19.640625 12.378906 -20.4375 11.640625 -21.03125 C 10.898438 -21.625 9.859375 -21.921875 8.515625 -21.921875 C 6.191406 -21.921875 4.457031 -20.890625 3.3125 -18.828125 L 2.9375 -18.734375 L 1.234375 -20.53125 C 2.929688 -23.15625 5.359375 -24.46875 8.515625 -24.46875 C 10.097656 -24.46875 11.429688 -24.207031 12.515625 -23.6875 C 13.597656 -23.175781 14.398438 -22.484375 14.921875 -21.609375 C 15.453125 -20.742188 15.71875 -19.753906 15.71875 -18.640625 C 15.71875 -17.390625 15.4375 -16.332031 14.875 -15.46875 C 14.3125 -14.613281 13.5 -13.773438 12.4375 -12.953125 L 11.09375 -11.921875 C 10.570312 -11.515625 10.175781 -11.15625 9.90625 -10.84375 C 9.632812 -10.53125 9.441406 -10.191406 9.328125 -9.828125 C 9.222656 -9.460938 9.171875 -9.015625 9.171875 -8.484375 L 9.171875 -8 L 6.421875 -8 Z M 7.71875 0.171875 C 7.09375 0.171875 6.597656 -0.00390625 6.234375 -0.359375 C 5.867188 -0.710938 5.6875 -1.179688 5.6875 -1.765625 C 5.6875 -2.335938 5.867188 -2.804688 6.234375 -3.171875 C 6.597656 -3.546875 7.09375 -3.734375 7.71875 -3.734375 C 8.34375 -3.734375 8.835938 -3.554688 9.203125 -3.203125 C 9.566406 -2.847656 9.75 -2.378906 9.75 -1.796875 C 9.75 -1.210938 9.566406 -0.738281 9.203125 -0.375 C 8.835938 -0.0078125 8.34375 0.171875 7.71875 0.171875 Z M 7.71875 0.171875 "/></g></g></g><g fill="#2f80ed" fill-opacity="1"><g transform="translate(46.409306, 71.157594)"><g><path d="M 6.484375 -24.109375 L 6.484375 -2.34375 L 18.09375 -2.34375 L 18.09375 0 L 3.640625 0 L 3.640625 -24.109375 Z M 6.484375 -24.109375 "/></g></g></g><g fill="#2f80ed" fill-opacity="1"><g transform="translate(65.524599, 71.157594)"><g><path d="M 7.5 0.34375 C 5.707031 0.34375 4.304688 -0.117188 3.296875 -1.046875 C 2.296875 -1.984375 1.796875 -3.320312 1.796875 -5.0625 C 1.796875 -6.144531 2.019531 -7.054688 2.46875 -7.796875 C 2.914062 -8.535156 3.601562 -9.140625 4.53125 -9.609375 C 5.46875 -10.078125 6.691406 -10.4375 8.203125 -10.6875 C 9.515625 -10.90625 10.515625 -11.148438 11.203125 -11.421875 C 11.890625 -11.703125 12.351562 -12.007812 12.59375 -12.34375 C 12.832031 -12.6875 12.953125 -13.117188 12.953125 -13.640625 C 12.953125 -14.460938 12.664062 -15.09375 12.09375 -15.53125 C 11.53125 -15.976562 10.625 -16.203125 9.375 -16.203125 C 8.195312 -16.203125 7.1875 -15.972656 6.34375 -15.515625 C 5.5 -15.054688 4.726562 -14.375 4.03125 -13.46875 L 3.6875 -13.46875 L 2.375 -15.34375 C 3.144531 -16.320312 4.125 -17.097656 5.3125 -17.671875 C 6.5 -18.253906 7.851562 -18.546875 9.375 -18.546875 C 11.507812 -18.546875 13.085938 -18.070312 14.109375 -17.125 C 15.128906 -16.1875 15.640625 -14.890625 15.640625 -13.234375 L 15.640625 -3.578125 C 15.640625 -2.566406 16.066406 -2.0625 16.921875 -2.0625 C 17.210938 -2.0625 17.488281 -2.109375 17.75 -2.203125 L 17.984375 -2.140625 L 18.296875 -0.28125 C 18.097656 -0.144531 17.832031 -0.046875 17.5 0.015625 C 17.175781 0.0859375 16.847656 0.125 16.515625 0.125 C 15.515625 0.125 14.753906 -0.09375 14.234375 -0.53125 C 13.722656 -0.96875 13.398438 -1.613281 13.265625 -2.46875 L 12.921875 -2.5 C 12.398438 -1.550781 11.695312 -0.835938 10.8125 -0.359375 C 9.9375 0.109375 8.832031 0.34375 7.5 0.34375 Z M 8.09375 -1.796875 C 9.101562 -1.796875 9.976562 -2.03125 10.71875 -2.5 C 11.46875 -2.96875 12.039062 -3.625 12.4375 -4.46875 C 12.832031 -5.3125 13.03125 -6.289062 13.03125 -7.40625 L 13.03125 -9.71875 L 12.71875 -9.78125 C 12.3125 -9.5 11.816406 -9.257812 11.234375 -9.0625 C 10.648438 -8.875 9.835938 -8.703125 8.796875 -8.546875 C 7.734375 -8.398438 6.890625 -8.175781 6.265625 -7.875 C 5.648438 -7.582031 5.207031 -7.207031 4.9375 -6.75 C 4.675781 -6.289062 4.546875 -5.726562 4.546875 -5.0625 C 4.546875 -4 4.859375 -3.1875 5.484375 -2.625 C 6.117188 -2.070312 6.988281 -1.796875 8.09375 -1.796875 Z M 8.09375 -1.796875 "/></g></g></g><g fill="#2f80ed" fill-opacity="1"><g transform="translate(84.343019, 71.157594)"><g><path d="M 12.09375 0.34375 C 10.738281 0.34375 9.5625 0.0820312 8.5625 -0.4375 C 7.570312 -0.957031 6.785156 -1.644531 6.203125 -2.5 L 5.859375 -2.4375 L 5.859375 0 L 3.171875 0 L 3.171875 -25.5 L 5.859375 -25.5 L 5.859375 -15.46875 L 6.203125 -15.40625 C 7.585938 -17.5 9.597656 -18.546875 12.234375 -18.546875 C 13.734375 -18.546875 15.039062 -18.195312 16.15625 -17.5 C 17.28125 -16.8125 18.15625 -15.757812 18.78125 -14.34375 C 19.40625 -12.925781 19.71875 -11.175781 19.71875 -9.09375 C 19.71875 -7.019531 19.390625 -5.273438 18.734375 -3.859375 C 18.078125 -2.453125 17.175781 -1.398438 16.03125 -0.703125 C 14.882812 -0.00390625 13.570312 0.34375 12.09375 0.34375 Z M 11.453125 -2.0625 C 15.078125 -2.0625 16.890625 -4.40625 16.890625 -9.09375 C 16.890625 -11.519531 16.414062 -13.296875 15.46875 -14.421875 C 14.519531 -15.554688 13.179688 -16.125 11.453125 -16.125 C 9.742188 -16.125 8.382812 -15.546875 7.375 -14.390625 C 6.363281 -13.234375 5.859375 -11.46875 5.859375 -9.09375 C 5.859375 -6.726562 6.363281 -4.960938 7.375 -3.796875 C 8.382812 -2.640625 9.742188 -2.0625 11.453125 -2.0625 Z M 11.453125 -2.0625 "/></g></g></g><g fill="#2f80ed" fill-opacity="1"><g transform="translate(106.047688, 71.157594)"><g/></g></g><g fill="#2f80ed" fill-opacity="1"><g transform="translate(114.327129, 71.157594)"><g><path d="M 3.640625 0 L 3.640625 -24.109375 L 12.40625 -24.109375 C 14.019531 -24.109375 15.375 -23.84375 16.46875 -23.3125 C 17.570312 -22.78125 18.398438 -22.023438 18.953125 -21.046875 C 19.503906 -20.078125 19.78125 -18.925781 19.78125 -17.59375 C 19.78125 -16.101562 19.40625 -14.867188 18.65625 -13.890625 C 17.90625 -12.921875 16.738281 -12.195312 15.15625 -11.71875 L 15.15625 -11.359375 C 15.9375 -11.054688 16.570312 -10.570312 17.0625 -9.90625 C 17.5625 -9.25 18.019531 -8.265625 18.4375 -6.953125 L 20.671875 0 L 17.75 0 L 15.34375 -7.375 C 15.050781 -8.238281 14.71875 -8.914062 14.34375 -9.40625 C 13.976562 -9.90625 13.507812 -10.265625 12.9375 -10.484375 C 12.363281 -10.710938 11.632812 -10.828125 10.75 -10.828125 L 6.484375 -10.828125 L 6.484375 0 Z M 12.34375 -13.234375 C 13.84375 -13.234375 14.960938 -13.582031 15.703125 -14.28125 C 16.441406 -14.976562 16.8125 -16.039062 16.8125 -17.46875 C 16.8125 -18.894531 16.441406 -19.957031 15.703125 -20.65625 C 14.960938 -21.351562 13.84375 -21.703125 12.34375 -21.703125 L 6.484375 -21.703125 L 6.484375 -13.234375 Z M 12.34375 -13.234375 "/></g></g></g><g fill="#2f80ed" fill-opacity="1"><g transform="translate(136.180204, 71.157594)"><g><path d="M 17.34375 -8.484375 L 4.828125 -8.484375 C 4.910156 -6.265625 5.441406 -4.640625 6.421875 -3.609375 C 7.410156 -2.578125 8.757812 -2.0625 10.46875 -2.0625 C 11.769531 -2.0625 12.816406 -2.289062 13.609375 -2.75 C 14.398438 -3.21875 15.019531 -3.945312 15.46875 -4.9375 L 15.8125 -4.9375 L 17.5625 -3.890625 C 17.039062 -2.566406 16.195312 -1.53125 15.03125 -0.78125 C 13.875 -0.03125 12.351562 0.34375 10.46875 0.34375 C 8.707031 0.34375 7.195312 0 5.9375 -0.6875 C 4.675781 -1.382812 3.703125 -2.4375 3.015625 -3.84375 C 2.335938 -5.25 2 -7 2 -9.09375 C 2 -11.15625 2.359375 -12.894531 3.078125 -14.3125 C 3.796875 -15.726562 4.78125 -16.785156 6.03125 -17.484375 C 7.28125 -18.191406 8.707031 -18.546875 10.3125 -18.546875 C 12.644531 -18.546875 14.460938 -17.882812 15.765625 -16.5625 C 17.078125 -15.25 17.738281 -13.300781 17.75 -10.71875 C 17.75 -9.707031 17.726562 -9.023438 17.6875 -8.671875 Z M 15.09375 -10.71875 C 15.050781 -12.65625 14.617188 -14.0625 13.796875 -14.9375 C 12.984375 -15.820312 11.820312 -16.265625 10.3125 -16.265625 C 8.71875 -16.265625 7.46875 -15.820312 6.5625 -14.9375 C 5.65625 -14.050781 5.101562 -12.644531 4.90625 -10.71875 Z M 15.09375 -10.71875 "/></g></g></g><g fill="#2f80ed" fill-opacity="1"><g transform="translate(155.575866, 71.157594)"><g><path d="M 3.171875 7.375 L 3.171875 -18.1875 L 5.859375 -18.1875 L 5.859375 -15.46875 L 6.203125 -15.40625 C 7.554688 -17.5 9.539062 -18.546875 12.15625 -18.546875 C 13.675781 -18.546875 15 -18.195312 16.125 -17.5 C 17.257812 -16.8125 18.140625 -15.757812 18.765625 -14.34375 C 19.398438 -12.925781 19.71875 -11.175781 19.71875 -9.09375 C 19.71875 -7.007812 19.382812 -5.265625 18.71875 -3.859375 C 18.0625 -2.453125 17.148438 -1.398438 15.984375 -0.703125 C 14.816406 -0.00390625 13.472656 0.34375 11.953125 0.34375 C 10.722656 0.34375 9.628906 0.128906 8.671875 -0.296875 C 7.710938 -0.722656 6.890625 -1.425781 6.203125 -2.40625 L 5.859375 -2.34375 L 5.859375 7.375 Z M 11.359375 -2.0625 C 15.046875 -2.0625 16.890625 -4.40625 16.890625 -9.09375 C 16.890625 -13.78125 15.046875 -16.125 11.359375 -16.125 C 10.285156 -16.125 9.335938 -15.875 8.515625 -15.375 C 7.691406 -14.882812 7.039062 -14.113281 6.5625 -13.0625 C 6.09375 -12.019531 5.859375 -10.695312 5.859375 -9.09375 C 5.859375 -7.5 6.09375 -6.175781 6.5625 -5.125 C 7.039062 -4.070312 7.691406 -3.296875 8.515625 -2.796875 C 9.335938 -2.304688 10.285156 -2.0625 11.359375 -2.0625 Z M 11.359375 -2.0625 "/></g></g></g><g fill="#2f80ed" fill-opacity="1"><g transform="translate(177.280535, 71.157594)"><g><path d="M 10.4375 0.34375 C 8.726562 0.34375 7.238281 -0.015625 5.96875 -0.734375 C 4.695312 -1.460938 3.71875 -2.53125 3.03125 -3.9375 C 2.34375 -5.351562 2 -7.070312 2 -9.09375 C 2 -11.101562 2.34375 -12.816406 3.03125 -14.234375 C 3.71875 -15.648438 4.695312 -16.722656 5.96875 -17.453125 C 7.238281 -18.179688 8.726562 -18.546875 10.4375 -18.546875 C 12.15625 -18.546875 13.648438 -18.179688 14.921875 -17.453125 C 16.191406 -16.722656 17.171875 -15.648438 17.859375 -14.234375 C 18.546875 -12.816406 18.890625 -11.101562 18.890625 -9.09375 C 18.890625 -7.070312 18.546875 -5.351562 17.859375 -3.9375 C 17.171875 -2.53125 16.191406 -1.460938 14.921875 -0.734375 C 13.648438 -0.015625 12.15625 0.34375 10.4375 0.34375 Z M 10.4375 -2.0625 C 12.25 -2.0625 13.632812 -2.632812 14.59375 -3.78125 C 15.5625 -4.925781 16.046875 -6.695312 16.046875 -9.09375 C 16.046875 -11.5 15.5625 -13.269531 14.59375 -14.40625 C 13.632812 -15.550781 12.25 -16.125 10.4375 -16.125 C 8.625 -16.125 7.234375 -15.550781 6.265625 -14.40625 C 5.296875 -13.257812 4.8125 -11.488281 4.8125 -9.09375 C 4.8125 -6.695312 5.296875 -4.925781 6.265625 -3.78125 C 7.234375 -2.632812 8.625 -2.0625 10.4375 -2.0625 Z M 10.4375 -2.0625 "/></g></g></g><g fill="#2f80ed" fill-opacity="1"><g transform="translate(198.160559, 71.157594)"><g><path d="M 3.171875 0 L 3.171875 -18.1875 L 5.71875 -18.1875 L 5.71875 -15.34375 L 6.0625 -15.25 C 6.914062 -17.320312 8.515625 -18.359375 10.859375 -18.359375 C 12.097656 -18.359375 13.023438 -18.132812 13.640625 -17.6875 L 12.953125 -15.40625 L 12.625 -15.34375 C 11.9375 -15.675781 11.1875 -15.84375 10.375 -15.84375 C 8.925781 -15.84375 7.8125 -15.296875 7.03125 -14.203125 C 6.25 -13.117188 5.859375 -11.359375 5.859375 -8.921875 L 5.859375 0 Z M 3.171875 0 "/></g></g></g><g fill="#2f80ed" fill-opacity="1"><g transform="translate(212.212518, 71.157594)"><g><path d="M 12.3125 -2.890625 L 13.15625 -0.953125 C 12.726562 -0.523438 12.164062 -0.203125 11.46875 0.015625 C 10.769531 0.234375 10.015625 0.34375 9.203125 0.34375 C 5.722656 0.34375 3.984375 -1.414062 3.984375 -4.9375 L 3.984375 -16 L 0.828125 -16 L 0.828125 -18.203125 L 3.984375 -18.203125 L 3.984375 -22.046875 L 6.6875 -22.5 L 6.6875 -18.203125 L 12.53125 -18.203125 L 12.53125 -16 L 6.6875 -16 L 6.6875 -5.203125 C 6.6875 -3.109375 7.59375 -2.0625 9.40625 -2.0625 C 10.394531 -2.0625 11.242188 -2.335938 11.953125 -2.890625 Z M 12.3125 -2.890625 "/></g></g></g><g fill="#2f80ed" fill-opacity="1"><g transform="translate(226.066563, 71.157594)"><g><path d="M 8.296875 0.34375 C 7.148438 0.34375 6.085938 0.191406 5.109375 -0.109375 C 4.140625 -0.410156 3.320312 -0.820312 2.65625 -1.34375 C 1.988281 -1.875 1.515625 -2.472656 1.234375 -3.140625 L 2.828125 -4.78125 L 3.171875 -4.78125 C 3.765625 -3.882812 4.476562 -3.207031 5.3125 -2.75 C 6.144531 -2.289062 7.140625 -2.0625 8.296875 -2.0625 C 9.640625 -2.0625 10.660156 -2.320312 11.359375 -2.84375 C 12.054688 -3.363281 12.40625 -4.09375 12.40625 -5.03125 C 12.40625 -5.75 12.191406 -6.335938 11.765625 -6.796875 C 11.347656 -7.265625 10.664062 -7.613281 9.71875 -7.84375 L 6.640625 -8.609375 C 5.003906 -9.003906 3.8125 -9.628906 3.0625 -10.484375 C 2.3125 -11.347656 1.9375 -12.410156 1.9375 -13.671875 C 1.9375 -14.660156 2.1875 -15.519531 2.6875 -16.25 C 3.195312 -16.988281 3.925781 -17.554688 4.875 -17.953125 C 5.820312 -18.347656 6.953125 -18.546875 8.265625 -18.546875 C 9.929688 -18.546875 11.242188 -18.3125 12.203125 -17.84375 C 13.171875 -17.375 13.925781 -16.722656 14.46875 -15.890625 L 12.953125 -14.40625 L 12.625 -14.40625 C 12.039062 -15.070312 11.40625 -15.550781 10.71875 -15.84375 C 10.03125 -16.144531 9.210938 -16.296875 8.265625 -16.296875 C 7.066406 -16.296875 6.144531 -16.082031 5.5 -15.65625 C 4.863281 -15.226562 4.546875 -14.609375 4.546875 -13.796875 C 4.546875 -13.054688 4.769531 -12.457031 5.21875 -12 C 5.675781 -11.550781 6.46875 -11.191406 7.59375 -10.921875 L 10.609375 -10.1875 C 12.191406 -9.820312 13.332031 -9.203125 14.03125 -8.328125 C 14.738281 -7.460938 15.09375 -6.375 15.09375 -5.0625 C 15.09375 -4 14.835938 -3.054688 14.328125 -2.234375 C 13.828125 -1.421875 13.0625 -0.785156 12.03125 -0.328125 C 11.007812 0.117188 9.765625 0.34375 8.296875 0.34375 Z M 8.296875 0.34375 "/></g></g></g></svg>