<svg xmlns="http://www.w3.org/2000/svg" xmlns:xlink="http://www.w3.org/1999/xlink" width="1080" zoomAndPan="magnify" viewBox="0 0 810 809.999993" height="1080" preserveAspectRatio="xMidYMid meet" version="1.2"><g id="7d1efff836"><path style=" stroke:none;fill-rule:evenodd;fill:#fefefe;fill-opacity:1;" d="M 298.296875 79.960938 L 203.132812 79.960938 C 194.820312 79.960938 188.011719 86.726562 188.011719 95.042969 L 188.011719 393.839844 C 188.011719 401.019531 182.179688 406.84375 175.003906 406.84375 C 167.824219 406.84375 161.996094 401.019531 161.996094 393.839844 L 161.996094 95.042969 C 161.996094 72.40625 180.496094 53.949219 203.132812 53.949219 L 298.296875 53.949219 L 298.296875 49.980469 C 298.296875 42.796875 304.121094 36.972656 311.304688 36.972656 C 311.304688 36.972656 363.777344 36.972656 363.777344 36.976562 C 373.132812 15.480469 394.550781 0.417969 419.515625 0.417969 C 444.484375 0.417969 465.898438 15.480469 475.253906 36.972656 L 527.726562 36.972656 C 534.910156 36.972656 540.734375 42.796875 540.734375 49.980469 L 540.734375 53.949219 L 635.898438 53.949219 C 658.535156 53.949219 677.035156 72.40625 677.035156 95.042969 L 677.035156 177.148438 C 677.035156 184.328125 671.207031 190.15625 664.03125 190.15625 C 656.851562 190.15625 651.023438 184.328125 651.023438 177.148438 L 651.023438 95.042969 C 651.023438 86.726562 644.210938 79.960938 635.898438 79.960938 L 540.734375 79.960938 L 540.734375 93.070312 L 624.910156 93.070312 C 632.09375 93.070312 637.914062 98.894531 637.914062 106.074219 L 637.914062 178.929688 C 637.914062 186.105469 632.085938 191.9375 624.910156 191.9375 C 617.730469 191.9375 611.902344 186.105469 611.902344 178.929688 C 611.902344 178.929688 611.902344 119.082031 611.902344 119.082031 L 540.734375 119.082031 L 540.734375 123.050781 C 540.734375 130.230469 534.910156 136.054688 527.726562 136.054688 L 311.304688 136.054688 C 304.121094 136.054688 298.296875 130.230469 298.296875 123.050781 L 298.296875 119.082031 C 274.671875 119.082031 227.128906 119.082031 227.128906 119.082031 L 227.128906 348.695312 C 227.128906 355.871094 221.300781 361.699219 214.125 361.699219 C 206.945312 361.699219 201.117188 355.871094 201.117188 348.695312 L 201.117188 106.074219 C 201.117188 98.894531 206.941406 93.070312 214.125 93.070312 L 298.296875 93.070312 Z M 514.722656 110.042969 C 514.722656 110.042969 514.722656 62.988281 514.722656 62.988281 L 465.945312 62.988281 C 459.9375 62.988281 454.710938 58.867188 453.304688 53.027344 C 449.632812 37.785156 435.910156 26.433594 419.515625 26.433594 C 403.121094 26.433594 389.402344 37.785156 385.730469 53.027344 C 384.320312 58.867188 379.09375 62.988281 373.085938 62.988281 L 324.308594 62.988281 L 324.308594 110.042969 Z M 419.515625 65.246094 C 412.546875 65.246094 406.859375 59.558594 406.859375 52.589844 C 406.859375 45.664062 412.546875 39.976562 419.515625 39.976562 C 426.484375 39.976562 432.171875 45.664062 432.171875 52.589844 C 432.171875 59.558594 426.484375 65.246094 419.515625 65.246094 Z M 697.75 357.40625 C 750.632812 376.324219 789.710938 424.226562 795.882812 481.964844 C 796.273438 485.632812 795.089844 489.296875 792.621094 492.039062 C 790.15625 494.785156 786.640625 496.351562 782.949219 496.351562 L 511.949219 496.351562 C 508.257812 496.351562 504.742188 494.78125 502.273438 492.039062 C 499.808594 489.292969 498.625 485.625 499.015625 481.957031 C 505.21875 424.21875 544.308594 376.320312 597.175781 357.40625 C 577.957031 342.390625 565.566406 319 565.566406 292.816406 C 565.566406 247.707031 602.339844 210.898438 647.449219 210.898438 C 692.601562 210.898438 729.367188 247.707031 729.367188 292.816406 C 729.367188 319 716.976562 342.390625 697.75 357.40625 Z M 647.449219 374.734375 C 588.894531 374.734375 539.871094 415.578125 527.296875 470.339844 C 527.296875 470.339844 767.609375 470.339844 767.609375 470.339844 C 755.0625 415.578125 706.035156 374.734375 647.449219 374.734375 Z M 647.449219 348.722656 C 678.261719 348.722656 703.355469 323.601562 703.355469 292.816406 C 703.355469 262.03125 678.261719 236.910156 647.449219 236.910156 C 616.667969 236.910156 591.578125 262.035156 591.578125 292.816406 C 591.578125 323.597656 616.667969 348.722656 647.449219 348.722656 Z M 179.109375 691.507812 C 182.695312 701.105469 180.539062 712.382812 172.722656 719.921875 L 90.921875 799.347656 C 90.90625 799.363281 90.890625 799.378906 90.875 799.394531 C 80.335938 809.515625 63.496094 809.222656 53.371094 798.777344 L 53.359375 798.765625 L 23.824219 768.34375 L 23.8125 768.332031 C 13.59375 757.777344 13.894531 740.914062 24.351562 730.789062 L 106.207031 651.347656 L 106.21875 651.339844 C 113.988281 643.8125 125.332031 642.019531 134.800781 645.871094 L 166.097656 615.484375 C 151.378906 591.078125 142.910156 562.480469 142.910156 531.902344 C 142.910156 459.773438 190.023438 398.65625 255.160156 377.648438 L 255.160156 321.558594 C 255.160156 309.304688 265.144531 299.316406 277.398438 299.316406 L 348.160156 299.316406 C 360.410156 299.316406 370.398438 309.304688 370.398438 321.558594 L 370.398438 383.605469 C 427.304688 408.75 467.011719 465.683594 467.011719 531.902344 C 467.011719 621.40625 394.46875 693.953125 304.960938 693.953125 C 269.046875 693.953125 235.863281 682.269531 209 662.5 Z M 154.507812 662.992188 C 157.136719 665.703125 159.949219 668.597656 162.574219 671.304688 L 189.28125 645.390625 C 186.574219 642.628906 183.964844 639.773438 181.457031 636.824219 Z M 281.171875 371.585938 C 288.9375 370.445312 296.878906 369.851562 304.960938 369.851562 C 318.558594 369.851562 331.765625 371.527344 344.386719 374.679688 L 344.386719 325.328125 L 281.171875 325.328125 Z M 304.960938 395.863281 C 229.824219 395.863281 168.925781 456.765625 168.925781 531.902344 C 168.925781 607.039062 229.824219 667.9375 304.960938 667.9375 C 380.101562 667.9375 441 607.039062 441 531.902344 C 441 456.765625 380.101562 395.863281 304.960938 395.863281 Z M 304.960938 404.613281 C 375.261719 404.613281 432.253906 461.597656 432.253906 531.902344 C 432.253906 602.203125 375.261719 659.191406 304.960938 659.191406 C 234.660156 659.191406 177.671875 602.203125 177.671875 531.902344 C 177.671875 461.597656 234.660156 404.613281 304.960938 404.613281 Z M 304.960938 430.625 C 249.027344 430.625 203.683594 475.964844 203.683594 531.902344 C 203.683594 587.835938 249.027344 633.179688 304.960938 633.179688 C 360.898438 633.179688 406.238281 587.835938 406.238281 531.902344 C 406.238281 475.964844 360.898438 430.625 304.960938 430.625 Z M 253.023438 543.976562 C 247.945312 538.898438 247.945312 530.65625 253.023438 525.582031 C 258.097656 520.503906 266.339844 520.503906 271.414062 525.582031 C 271.414062 525.582031 290.933594 545.101562 290.933594 545.101562 L 350.445312 491.113281 C 355.765625 486.289062 363.996094 486.691406 368.820312 492.007812 C 373.640625 497.324219 373.242188 505.554688 367.925781 510.378906 L 299.238281 572.691406 C 294.097656 577.351562 286.207031 577.160156 281.300781 572.253906 Z M 72.046875 780.671875 C 72.261719 780.894531 72.617188 780.855469 72.84375 780.644531 L 154.613281 701.242188 C 154.632812 701.230469 154.648438 701.210938 154.664062 701.195312 C 154.859375 701.007812 154.855469 700.695312 154.664062 700.5 C 154.65625 700.492188 154.648438 700.484375 154.640625 700.472656 L 125.09375 670.039062 L 125.082031 670.027344 C 124.875 669.8125 124.527344 669.820312 124.3125 670.027344 L 42.46875 749.453125 L 42.457031 749.464844 C 42.242188 749.671875 42.289062 750.015625 42.5 750.230469 L 72.035156 780.660156 Z M 651.023438 532.121094 C 651.023438 524.941406 656.851562 519.113281 664.03125 519.113281 C 671.207031 519.113281 677.035156 524.941406 677.035156 532.121094 L 677.035156 612.160156 C 677.035156 634.792969 658.53125 653.300781 635.898438 653.300781 L 472.296875 653.300781 C 465.121094 653.300781 459.292969 647.472656 459.292969 640.292969 C 459.292969 633.117188 465.121094 627.289062 472.296875 627.289062 L 635.898438 627.289062 C 644.21875 627.289062 651.023438 620.484375 651.023438 612.160156 Z M 501.996094 614.179688 C 494.820312 614.179688 488.992188 608.351562 488.992188 601.175781 C 488.992188 593.996094 494.820312 588.167969 501.996094 588.167969 C 501.996094 588.167969 611.902344 588.167969 611.902344 588.167969 L 611.902344 532.121094 C 611.902344 524.941406 617.730469 519.113281 624.910156 519.113281 C 632.085938 519.113281 637.914062 524.941406 637.914062 532.121094 L 637.914062 601.175781 C 637.914062 608.355469 632.09375 614.179688 624.910156 614.179688 Z M 413.785156 395.40625 C 406.609375 395.40625 400.78125 389.574219 400.78125 382.398438 C 400.78125 375.21875 406.609375 369.390625 413.785156 369.390625 L 518.324219 369.390625 C 525.503906 369.390625 531.332031 375.21875 531.332031 382.398438 C 531.332031 389.574219 525.503906 395.40625 518.324219 395.40625 Z M 413.785156 344.484375 C 406.609375 344.484375 400.78125 338.65625 400.78125 331.476562 C 400.78125 324.296875 406.609375 318.472656 413.785156 318.472656 L 548.085938 318.472656 C 555.265625 318.472656 561.09375 324.296875 561.09375 331.476562 C 561.09375 338.65625 555.265625 344.484375 548.085938 344.484375 Z M 413.785156 247.773438 C 406.609375 247.773438 400.78125 241.945312 400.78125 234.765625 C 400.78125 227.585938 406.609375 221.761719 413.785156 221.761719 L 548.085938 221.761719 C 555.265625 221.761719 561.09375 227.585938 561.09375 234.765625 C 561.09375 241.945312 555.265625 247.773438 548.085938 247.773438 Z M 413.785156 196.851562 C 406.609375 196.851562 400.78125 191.023438 400.78125 183.84375 C 400.78125 176.667969 406.609375 170.839844 413.785156 170.839844 L 570.867188 170.839844 C 578.046875 170.839844 583.875 176.667969 583.875 183.84375 C 583.875 191.023438 578.046875 196.851562 570.867188 196.851562 Z M 277.398438 151.6875 L 348.160156 151.6875 C 360.410156 151.6875 370.398438 161.671875 370.398438 173.925781 L 370.398438 244.6875 C 370.398438 256.9375 360.410156 266.925781 348.160156 266.925781 L 277.398438 266.925781 C 265.144531 266.925781 255.160156 256.9375 255.160156 244.6875 L 255.160156 173.925781 C 255.160156 161.671875 265.144531 151.6875 277.398438 151.6875 Z M 344.386719 193.214844 L 344.386719 177.699219 L 281.171875 177.699219 L 281.171875 205.050781 C 281.640625 202.574219 282.835938 200.207031 284.75 198.292969 C 289.824219 193.214844 298.066406 193.214844 303.140625 198.292969 L 308.445312 203.597656 L 321.503906 187.464844 C 326.019531 181.882812 334.214844 181.019531 339.796875 185.535156 C 342.285156 187.550781 343.832031 190.296875 344.386719 193.214844 Z M 281.171875 209.929688 L 281.171875 240.914062 L 344.386719 240.914062 L 344.386719 198.09375 C 344 200.132812 343.117188 202.105469 341.722656 203.828125 L 319.574219 231.191406 C 317.257812 234.058594 313.832031 235.804688 310.148438 236 C 306.46875 236.191406 302.875 234.8125 300.269531 232.207031 L 284.75 216.6875 C 282.835938 214.773438 281.640625 212.40625 281.171875 209.929688 Z M 281.171875 209.929688 "/></g></svg>