<svg xmlns="http://www.w3.org/2000/svg" xmlns:xlink="http://www.w3.org/1999/xlink" width="1080" zoomAndPan="magnify" viewBox="0 0 810 530.249967" height="707" preserveAspectRatio="xMidYMid meet" version="1.0"><defs><clipPath id="2561244b5e"><path d="M 0.578125 0 L 809.421875 0 L 809.421875 529.242188 L 0.578125 529.242188 Z M 0.578125 0 " clip-rule="nonzero"/></clipPath></defs><g clip-path="url(#2561244b5e)"><path stroke-linecap="butt" transform="matrix(0.748941, 0, 0, 0.748941, 0.57801, -0.0000199718)" fill="none" stroke-linejoin="miter" d="M 0.00015329 0.0000266667 L 1079.984 0.0000266667 L 1079.984 706.654449 L 0.00015329 706.654449 Z M 0.00015329 0.0000266667 " stroke="#444444" stroke-width="10" stroke-opacity="1" stroke-miterlimit="4"/></g><path fill="#444444" d="M 100.757812 140.730469 C 100.476562 140.722656 100.222656 140.792969 99.988281 140.949219 C 99.757812 141.105469 99.59375 141.316406 99.496094 141.578125 C 99.378906 141.835938 99.351562 142.101562 99.40625 142.378906 C 99.464844 142.65625 99.597656 142.886719 99.808594 143.074219 L 170.886719 212.421875 C 172.15625 211.414062 173.777344 210.859375 175.597656 210.820312 C 181.359375 210.707031 189.234375 214.992188 197.867188 223.78125 C 205.558594 231.617188 213.753906 243.273438 221.273438 258.714844 C 221.871094 258.53125 222.492188 258.40625 223.144531 258.40625 C 223.714844 258.40625 224.257812 258.503906 224.78125 258.644531 C 236.039062 233.957031 240.574219 215.148438 240.550781 201.105469 C 240.535156 186.09375 235.632812 176.332031 228.925781 169.714844 L 228.742188 169.542969 C 216.246094 157.34375 196.023438 150.242188 173.015625 146.179688 C 150.007812 142.117188 124.25 141.050781 100.757812 140.730469 M 345.925781 141.027344 C 345.480469 140.96875 345.109375 141.105469 344.804688 141.4375 L 275.492188 212.492188 C 277.195312 214.640625 277.492188 217.769531 276.480469 221.335938 C 275.375 225.261719 272.746094 229.828125 268.53125 234.761719 C 260.890625 243.707031 247.789062 253.789062 229.160156 262.867188 C 229.347656 263.460938 229.488281 264.074219 229.488281 264.726562 C 229.476562 265.289062 229.394531 265.839844 229.234375 266.378906 C 253.933594 277.644531 272.761719 282.179688 286.796875 282.15625 C 301.75 282.140625 311.476562 277.261719 318.097656 270.601562 L 318.328125 270.371094 C 330.535156 257.875 337.628906 237.648438 341.699219 214.640625 C 345.765625 191.632812 346.832031 165.871094 347.152344 142.382812 C 347.160156 142.101562 347.085938 141.847656 346.925781 141.613281 C 346.769531 141.382812 346.558594 141.21875 346.292969 141.125 C 346.171875 141.074219 346.050781 141.039062 345.921875 141.019531 Z M 236.953125 177.550781 C 240.277344 183.703125 242.507812 191.285156 242.519531 201.105469 C 242.535156 215.539062 237.894531 234.597656 226.574219 259.429688 C 227.25 259.867188 227.84375 260.425781 228.308594 261.082031 C 246.734375 252.101562 259.640625 242.152344 267.046875 233.480469 C 271.125 228.699219 273.601562 224.320312 274.597656 220.804688 C 275.46875 217.738281 275.21875 215.445312 274.125 213.90625 L 273.921875 214.109375 L 273.257812 213.007812 C 273.210938 212.933594 273.160156 212.863281 273.097656 212.800781 L 273.085938 212.800781 Z M 496.382812 187.3125 C 495.964844 187.296875 495.609375 187.4375 495.316406 187.734375 L 495.59375 188.019531 L 495.589844 188.027344 L 495.316406 187.753906 C 495.046875 188.039062 494.917969 188.375 494.933594 188.765625 L 494.921875 188.765625 L 494.921875 220.191406 C 494.914062 220.582031 495.039062 220.925781 495.292969 221.222656 L 495.335938 221.261719 L 495.527344 221.039062 L 495.589844 220.988281 L 495.332031 221.28125 C 495.628906 221.539062 495.976562 221.660156 496.375 221.652344 L 496.375 221.28125 L 496.394531 221.28125 L 496.394531 221.664062 L 498.765625 221.664062 C 499.15625 221.679688 499.496094 221.550781 499.78125 221.28125 C 500.078125 220.984375 500.21875 220.625 500.203125 220.207031 L 500.214844 220.207031 L 500.214844 207.097656 C 500.15625 206.203125 500.269531 205.332031 500.558594 204.480469 C 500.84375 203.632812 501.28125 202.867188 501.867188 202.191406 C 502.457031 201.585938 503.148438 201.125 503.933594 200.816406 C 504.722656 200.503906 505.539062 200.367188 506.386719 200.40625 C 507.210938 200.347656 508.011719 200.46875 508.785156 200.769531 C 509.554688 201.074219 510.226562 201.527344 510.792969 202.128906 L 510.804688 202.128906 C 511.363281 202.832031 511.777344 203.609375 512.046875 204.464844 C 512.3125 205.316406 512.421875 206.191406 512.363281 207.085938 L 512.363281 220.203125 L 512.742188 220.207031 L 512.363281 220.207031 C 512.351562 220.601562 512.472656 220.949219 512.726562 221.25 L 512.742188 221.238281 L 512.761719 221.261719 L 512.871094 221.125 L 513.007812 221.007812 L 512.773438 221.285156 C 513.070312 221.542969 513.414062 221.667969 513.804688 221.664062 L 513.804688 221.304688 L 513.820312 221.304688 L 513.820312 221.664062 L 516.179688 221.664062 C 516.574219 221.675781 516.914062 221.546875 517.195312 221.269531 C 517.492188 220.976562 517.632812 220.621094 517.621094 220.207031 L 517.632812 220.207031 L 517.632812 206.863281 C 517.703125 205.417969 517.507812 204.011719 517.050781 202.636719 C 516.59375 201.265625 515.902344 200.019531 514.976562 198.90625 L 514.988281 198.898438 C 514.0625 197.855469 512.957031 197.066406 511.671875 196.53125 C 510.382812 195.996094 509.046875 195.765625 507.65625 195.839844 L 507.644531 196.222656 L 507.644531 195.839844 C 505.980469 195.785156 504.394531 196.113281 502.890625 196.828125 C 501.875 197.339844 500.976562 198.007812 500.195312 198.835938 L 500.195312 188.765625 C 500.210938 188.371094 500.070312 188.039062 499.78125 187.769531 C 499.507812 187.449219 499.164062 187.296875 498.742188 187.316406 Z M 393.621094 187.765625 C 393.277344 187.792969 392.960938 187.902344 392.671875 188.089844 C 392.332031 188.332031 392.09375 188.648438 391.964844 189.046875 L 391.972656 189.046875 L 380.238281 219.683594 L 380.21875 219.675781 C 380.164062 219.882812 380.144531 220.09375 380.15625 220.308594 L 380.542969 220.320312 L 380.542969 220.332031 L 380.144531 220.332031 C 380.148438 220.691406 380.28125 221 380.542969 221.25 L 380.53125 221.269531 L 380.542969 221.28125 C 380.792969 221.53125 381.09375 221.660156 381.445312 221.664062 L 381.445312 221.703125 L 383.871094 221.703125 C 384.238281 221.710938 384.566406 221.601562 384.855469 221.378906 L 384.625 221.09375 L 384.871094 221.367188 C 385.113281 221.175781 385.289062 220.933594 385.402344 220.644531 L 385.390625 220.644531 L 387.898438 214.148438 L 402.941406 214.148438 L 405.449219 220.636719 L 405.460938 220.636719 C 405.558594 220.898438 405.710938 221.125 405.914062 221.316406 L 405.925781 221.316406 L 405.945312 221.328125 L 405.9375 221.335938 C 406.246094 221.578125 406.59375 221.6875 406.984375 221.664062 L 409.394531 221.664062 C 409.753906 221.660156 410.058594 221.527344 410.308594 221.269531 L 410.078125 221.027344 L 410.335938 221.269531 C 410.59375 221.019531 410.722656 220.710938 410.722656 220.351562 L 410.710938 220.351562 L 410.710938 220.289062 L 410.402344 220.339844 L 410.371094 220.339844 L 410.371094 220.332031 L 410.710938 220.269531 L 410.625 219.746094 L 410.613281 219.746094 L 410.613281 219.707031 L 410.355469 219.800781 L 410.257812 219.804688 L 410.605469 219.675781 L 398.902344 189.046875 C 398.773438 188.652344 398.539062 188.332031 398.203125 188.089844 C 397.851562 187.867188 397.464844 187.757812 397.050781 187.765625 L 393.832031 187.765625 L 393.832031 188.164062 L 393.824219 188.164062 L 393.824219 187.765625 Z M 392.117188 189.097656 L 392.339844 189.179688 L 392.339844 189.191406 Z M 395.453125 192.890625 L 395.464844 192.90625 L 395.445312 192.917969 Z M 395.414062 193.941406 L 401.300781 209.378906 L 389.546875 209.378906 Z M 477.945312 195.824219 C 476.621094 195.886719 475.347656 196.175781 474.125 196.691406 C 472.90625 197.207031 471.8125 197.921875 470.84375 198.832031 L 470.835938 198.832031 C 469.804688 199.953125 469.019531 201.226562 468.480469 202.648438 C 467.941406 204.074219 467.683594 205.546875 467.710938 207.070312 L 468.101562 207.089844 L 468.101562 207.097656 L 467.710938 207.097656 L 467.660156 208.988281 L 467.710938 210.859375 L 468.101562 210.859375 L 468.101562 210.871094 L 467.710938 210.890625 C 467.683594 212.421875 467.9375 213.902344 468.480469 215.335938 C 469.019531 216.765625 469.804688 218.046875 470.835938 219.179688 L 470.84375 219.179688 C 471.957031 220.207031 473.226562 220.976562 474.648438 221.492188 C 476.074219 222.003906 477.542969 222.21875 479.054688 222.136719 L 479.054688 222.105469 C 481.140625 222.183594 483.121094 221.761719 484.992188 220.835938 C 486.492188 220.109375 487.707031 219.058594 488.636719 217.675781 L 488.648438 217.667969 C 489.425781 216.53125 489.867188 215.277344 489.976562 213.90625 L 489.644531 213.886719 L 489.644531 213.867188 L 489.96875 213.898438 C 490.023438 213.484375 489.894531 213.140625 489.582031 212.863281 L 489.550781 212.839844 L 489.546875 212.828125 C 489.257812 212.5625 488.917969 212.433594 488.523438 212.445312 L 488.523438 212.4375 L 486.246094 212.4375 C 485.894531 212.421875 485.585938 212.527344 485.316406 212.757812 L 485.308594 212.746094 L 485.289062 212.777344 L 485.277344 212.777344 C 485.027344 213.027344 484.847656 213.320312 484.734375 213.65625 L 484.925781 213.738281 L 484.71875 213.664062 C 484.351562 214.929688 483.644531 215.964844 482.597656 216.761719 L 482.597656 216.753906 C 481.519531 217.394531 480.351562 217.691406 479.097656 217.640625 C 478.273438 217.683594 477.476562 217.558594 476.707031 217.261719 C 475.9375 216.96875 475.261719 216.527344 474.683594 215.941406 C 474.078125 215.1875 473.621094 214.351562 473.320312 213.433594 C 473.019531 212.515625 472.886719 211.574219 472.925781 210.609375 L 472.925781 210.597656 L 472.886719 208.996094 L 472.558594 209.007812 L 472.558594 208.996094 L 472.886719 208.996094 L 472.925781 207.292969 C 472.890625 206.335938 473.023438 205.402344 473.328125 204.496094 C 473.628906 203.589844 474.082031 202.761719 474.683594 202.015625 C 475.257812 201.425781 475.933594 200.976562 476.703125 200.675781 C 477.472656 200.371094 478.269531 200.242188 479.097656 200.28125 C 480.351562 200.234375 481.515625 200.539062 482.585938 201.199219 L 482.808594 200.894531 L 482.597656 201.222656 C 483.652344 201.988281 484.355469 203 484.714844 204.257812 L 485.097656 204.113281 L 485.097656 204.121094 L 484.734375 204.277344 C 484.855469 204.621094 485.046875 204.917969 485.308594 205.171875 C 485.589844 205.367188 485.902344 205.457031 486.246094 205.445312 L 486.246094 205.433594 L 488.523438 205.433594 C 488.917969 205.445312 489.261719 205.324219 489.5625 205.074219 C 489.902344 204.792969 490.042969 204.4375 489.984375 204.003906 L 489.976562 204.003906 C 489.871094 202.636719 489.429688 201.386719 488.648438 200.261719 C 487.714844 198.882812 486.496094 197.832031 485 197.105469 C 483.121094 196.199219 481.144531 195.773438 479.058594 195.824219 L 479.058594 195.835938 C 478.6875 195.8125 478.316406 195.808594 477.945312 195.824219 M 534.914062 195.835938 C 534.574219 195.820312 534.234375 195.824219 533.894531 195.847656 C 532.40625 195.785156 530.964844 196.027344 529.578125 196.574219 C 528.1875 197.121094 526.96875 197.921875 525.917969 198.980469 C 524.882812 200.132812 524.078125 201.425781 523.507812 202.867188 C 522.9375 204.308594 522.636719 205.800781 522.601562 207.351562 L 522.976562 207.382812 L 522.59375 207.371094 L 522.550781 208.925781 L 522.601562 210.535156 L 522.984375 210.535156 L 522.984375 210.546875 L 522.59375 210.566406 C 522.609375 212.132812 522.898438 213.640625 523.460938 215.101562 C 524.027344 216.558594 524.828125 217.871094 525.871094 219.039062 L 525.875 219.039062 C 526.949219 220.09375 528.1875 220.890625 529.589844 221.429688 C 530.992188 221.964844 532.445312 222.203125 533.949219 222.136719 L 533.949219 222.117188 C 535.859375 222.152344 537.691406 221.796875 539.453125 221.046875 C 540.898438 220.441406 542.152344 219.558594 543.214844 218.40625 L 543.226562 218.394531 C 544.03125 217.652344 544.5 216.738281 544.636719 215.652344 C 544.644531 215.269531 544.503906 214.957031 544.210938 214.714844 L 544.222656 214.703125 C 543.945312 214.480469 543.632812 214.375 543.277344 214.382812 L 543.277344 214.394531 L 540.953125 214.394531 C 540.617188 214.375 540.296875 214.433594 539.988281 214.574219 L 539.976562 214.574219 L 539.957031 214.582031 C 539.84375 214.660156 539.738281 214.75 539.648438 214.851562 C 539.503906 215.003906 539.375 215.160156 539.25 215.328125 L 539.542969 215.550781 L 539.238281 215.34375 C 538.699219 216.054688 538.039062 216.632812 537.265625 217.082031 C 536.226562 217.675781 535.109375 217.945312 533.910156 217.886719 L 533.894531 218.265625 L 533.894531 217.886719 C 533.0625 217.914062 532.265625 217.75 531.507812 217.398438 C 530.75 217.046875 530.109375 216.546875 529.589844 215.894531 C 528.460938 214.414062 527.871094 212.742188 527.824219 210.882812 L 527.824219 210.820312 L 543.851562 210.820312 C 544.234375 210.828125 544.566406 210.703125 544.847656 210.4375 L 544.859375 210.4375 L 544.859375 210.425781 C 545.148438 210.136719 545.292969 209.78125 545.28125 209.367188 L 545.300781 209.367188 L 545.300781 208.5625 C 545.390625 206.890625 545.179688 205.261719 544.667969 203.667969 C 544.15625 202.074219 543.375 200.625 542.328125 199.320312 L 542.316406 199.320312 C 541.367188 198.265625 540.25 197.433594 538.96875 196.828125 C 537.683594 196.226562 536.332031 195.894531 534.914062 195.835938 M 453.683594 195.875 C 453.242188 195.859375 452.804688 195.871094 452.367188 195.90625 C 450.464844 195.847656 448.65625 196.222656 446.9375 197.035156 C 445.617188 197.625 444.515625 198.496094 443.632812 199.644531 L 443.632812 199.65625 C 443 200.464844 442.632812 201.378906 442.527344 202.398438 L 442.890625 202.417969 L 442.527344 202.417969 L 442.527344 202.429688 C 442.53125 202.804688 442.652344 203.132812 442.890625 203.421875 L 442.933594 203.457031 C 443.21875 203.707031 443.554688 203.832031 443.933594 203.832031 L 445.96875 203.832031 C 446.265625 203.847656 446.53125 203.753906 446.757812 203.558594 C 447.007812 203.351562 447.175781 203.089844 447.257812 202.773438 C 447.714844 202.015625 448.320312 201.402344 449.078125 200.9375 L 448.886719 200.628906 L 448.894531 200.628906 L 449.101562 200.925781 C 450.082031 200.320312 451.144531 200.039062 452.292969 200.078125 L 452.292969 200.089844 C 453.742188 199.976562 455.046875 200.347656 456.21875 201.210938 C 456.667969 201.644531 457.007812 202.15625 457.226562 202.742188 C 457.449219 203.328125 457.539062 203.933594 457.488281 204.554688 L 457.476562 204.554688 L 457.476562 205.605469 L 450.730469 206.566406 C 448.09375 206.828125 445.699219 207.734375 443.550781 209.285156 C 442.691406 209.914062 442.023438 210.703125 441.546875 211.65625 C 441.070312 212.609375 440.839844 213.617188 440.855469 214.683594 L 440.855469 214.691406 C 440.855469 216.097656 441.253906 217.378906 442.058594 218.535156 L 442.066406 218.535156 C 442.945312 219.699219 444.046875 220.59375 445.375 221.207031 L 445.375 221.21875 C 446.785156 221.882812 448.269531 222.210938 449.832031 222.199219 L 449.839844 221.761719 L 449.851562 221.761719 L 449.851562 222.203125 C 451.683594 222.269531 453.429688 221.90625 455.085938 221.125 L 455.097656 221.125 C 456.039062 220.652344 456.867188 220.027344 457.585938 219.25 L 457.585938 220.285156 C 457.582031 220.675781 457.707031 221.019531 457.960938 221.316406 L 457.953125 221.328125 L 457.960938 221.335938 L 457.984375 221.367188 L 457.988281 221.367188 L 458 221.359375 C 458.300781 221.613281 458.648438 221.738281 459.042969 221.730469 L 461.214844 221.730469 C 461.605469 221.746094 461.945312 221.617188 462.226562 221.347656 L 462.238281 221.335938 C 462.53125 221.046875 462.671875 220.691406 462.660156 220.277344 L 462.671875 220.277344 L 462.671875 204.945312 C 462.707031 203.757812 462.515625 202.613281 462.09375 201.503906 C 461.675781 200.394531 461.058594 199.40625 460.25 198.539062 C 459.347656 197.722656 458.332031 197.085938 457.203125 196.628906 C 456.074219 196.167969 454.898438 195.917969 453.683594 195.875 M 427.324219 195.886719 L 426.941406 195.90625 L 426.941406 195.914062 C 425.542969 195.832031 424.199219 196.054688 422.902344 196.578125 C 421.605469 197.105469 420.484375 197.878906 419.535156 198.90625 L 419.535156 197.84375 C 419.554688 197.445312 419.414062 197.113281 419.125 196.84375 C 418.851562 196.523438 418.503906 196.371094 418.085938 196.386719 L 418.085938 196.378906 L 415.90625 196.378906 C 415.492188 196.367188 415.140625 196.507812 414.847656 196.800781 L 415.101562 197.074219 L 414.84375 196.820312 C 414.570312 197.105469 414.4375 197.449219 414.457031 197.84375 L 414.457031 229.261719 C 414.441406 229.652344 414.566406 229.992188 414.835938 230.273438 L 414.847656 230.273438 C 415.140625 230.566406 415.492188 230.710938 415.90625 230.699219 L 415.90625 230.710938 L 418.230469 230.710938 C 418.648438 230.726562 418.992188 230.574219 419.261719 230.253906 L 419.253906 230.246094 C 419.519531 229.96875 419.648438 229.636719 419.640625 229.253906 L 419.640625 219.242188 C 420.585938 220.234375 421.699219 220.988281 422.972656 221.5 C 424.246094 222.011719 425.570312 222.234375 426.941406 222.175781 C 428.410156 222.269531 429.820312 222.03125 431.175781 221.460938 C 432.53125 220.886719 433.6875 220.042969 434.644531 218.925781 L 434.65625 218.9375 C 435.554688 217.746094 436.242188 216.445312 436.714844 215.03125 C 437.191406 213.617188 437.433594 212.167969 437.4375 210.675781 L 437.425781 210.675781 C 437.464844 210.3125 437.484375 209.769531 437.480469 209.042969 C 437.480469 208.324219 437.480469 207.789062 437.425781 207.421875 L 437.4375 207.421875 C 437.4375 205.929688 437.203125 204.476562 436.726562 203.066406 C 436.253906 201.652344 435.566406 200.351562 434.664062 199.160156 L 434.65625 199.148438 C 433.746094 198.078125 432.648438 197.253906 431.363281 196.679688 C 430.074219 196.109375 428.730469 195.84375 427.324219 195.886719 M 533.839844 200.019531 L 533.902344 200.019531 L 533.902344 200.027344 C 534.753906 199.992188 535.574219 200.148438 536.355469 200.492188 C 537.140625 200.835938 537.804688 201.335938 538.355469 201.988281 L 538.378906 201.976562 C 538.941406 202.652344 539.367188 203.40625 539.660156 204.238281 C 539.953125 205.070312 540.089844 205.925781 540.070312 206.808594 L 527.828125 206.808594 C 527.792969 205.003906 528.332031 203.386719 529.441406 201.964844 L 529.449219 201.976562 C 529.992188 201.332031 530.652344 200.835938 531.421875 200.492188 C 532.191406 200.152344 532.996094 199.992188 533.839844 200.019531 M 425.578125 200.425781 L 425.9375 200.429688 L 425.9375 200.441406 C 426.84375 200.375 427.710938 200.53125 428.539062 200.902344 C 429.367188 201.269531 430.058594 201.816406 430.613281 202.53125 C 431.847656 204.527344 432.375 206.699219 432.203125 209.039062 C 432.203125 209.632812 432.207031 210.082031 432.160156 210.378906 L 432.523438 210.40625 L 432.160156 210.394531 C 432.167969 212.328125 431.621094 214.089844 430.527344 215.683594 L 430.824219 215.90625 L 430.527344 215.695312 C 429.976562 216.378906 429.292969 216.890625 428.480469 217.230469 C 427.667969 217.570312 426.824219 217.703125 425.949219 217.621094 L 425.949219 217.941406 L 425.9375 217.941406 L 425.9375 217.628906 C 425.0625 217.6875 424.21875 217.542969 423.410156 217.199219 C 422.601562 216.855469 421.914062 216.351562 421.34375 215.683594 L 421.355469 215.683594 L 421.355469 215.671875 C 420.242188 214.3125 419.671875 212.757812 419.648438 211 L 419.628906 211 L 419.589844 209.1875 L 419.253906 209.1875 L 419.253906 209.167969 L 419.578125 209.167969 L 419.628906 207.371094 C 419.683594 205.5625 420.253906 203.933594 421.332031 202.480469 L 421.3125 202.460938 C 421.828125 201.8125 422.460938 201.308594 423.210938 200.949219 C 423.960938 200.59375 424.75 200.417969 425.578125 200.421875 M 489.847656 204.019531 L 489.640625 204.039062 L 489.640625 204.03125 Z M 540.433594 207.167969 L 540.464844 207.167969 L 540.464844 207.175781 Z M 457.847656 209.140625 L 457.890625 209.140625 L 457.890625 209.152344 L 457.847656 209.152344 Z M 457.492188 209.566406 L 457.492188 210.484375 C 457.5625 211.5 457.433594 212.492188 457.105469 213.457031 C 456.78125 214.421875 456.28125 215.285156 455.609375 216.050781 C 454.980469 216.683594 454.253906 217.160156 453.425781 217.488281 C 452.597656 217.8125 451.738281 217.960938 450.847656 217.925781 L 450.847656 218.21875 L 450.835938 218.21875 L 450.835938 217.914062 C 449.582031 217.945312 448.421875 217.636719 447.351562 216.980469 C 446.898438 216.695312 446.546875 216.320312 446.296875 215.851562 C 446.046875 215.378906 445.929688 214.878906 445.945312 214.347656 C 445.957031 213.820312 446.101562 213.335938 446.378906 212.890625 C 446.65625 212.441406 447.027344 212.097656 447.492188 211.851562 C 449.015625 210.972656 450.65625 210.457031 452.410156 210.308594 L 452.410156 210.304688 Z M 437.113281 210.648438 L 437.183594 210.664062 L 437.113281 210.664062 Z M 175.621094 212.78125 C 174.40625 212.757812 173.296875 213.089844 172.296875 213.777344 L 172.46875 213.945312 L 171.382812 214.609375 L 171.238281 214.726562 L 135.898438 250.953125 C 142.054688 247.621094 149.65625 245.386719 159.484375 245.378906 C 173.921875 245.359375 192.980469 250 217.832031 261.332031 C 218.273438 260.632812 218.828125 260.050781 219.496094 259.578125 C 212.054688 244.300781 203.964844 232.800781 196.460938 225.152344 C 188.035156 216.570312 180.320312 212.683594 175.621094 212.78125 M 403.183594 213.769531 L 403.214844 213.769531 L 403.183594 213.777344 Z M 558.085938 243.476562 C 544.296875 243.476562 537.402344 250.292969 537.402344 263.925781 L 537.402344 269.941406 L 527.179688 269.941406 C 526.371094 269.925781 525.6875 270.207031 525.128906 270.789062 C 524.613281 271.328125 524.375 271.96875 524.414062 272.714844 L 524.414062 276.808594 C 524.394531 276.996094 524.394531 277.179688 524.417969 277.367188 C 524.441406 277.554688 524.480469 277.734375 524.542969 277.910156 C 524.605469 278.085938 524.6875 278.253906 524.789062 278.414062 C 524.886719 278.574219 525.003906 278.71875 525.136719 278.851562 C 525.269531 278.984375 525.414062 279.101562 525.574219 279.199219 C 525.730469 279.300781 525.898438 279.382812 526.074219 279.445312 C 526.25 279.507812 526.433594 279.550781 526.617188 279.570312 C 526.804688 279.59375 526.992188 279.59375 527.179688 279.574219 L 537.402344 279.574219 L 537.402344 329.734375 C 537.382812 329.917969 537.382812 330.105469 537.40625 330.292969 C 537.425781 330.476562 537.46875 330.660156 537.53125 330.835938 C 537.59375 331.011719 537.675781 331.179688 537.773438 331.339844 C 537.875 331.5 537.988281 331.644531 538.121094 331.777344 C 538.253906 331.910156 538.398438 332.027344 538.558594 332.128906 C 538.714844 332.226562 538.882812 332.308594 539.0625 332.371094 C 539.238281 332.433594 539.417969 332.476562 539.605469 332.5 C 539.792969 332.523438 539.976562 332.523438 540.164062 332.503906 L 545.792969 332.5 C 546.542969 332.542969 547.1875 332.300781 547.726562 331.777344 C 548.304688 331.21875 548.585938 330.535156 548.574219 329.734375 L 548.574219 279.574219 L 574.316406 279.574219 L 574.316406 329.722656 C 574.292969 329.910156 574.292969 330.097656 574.316406 330.285156 C 574.335938 330.472656 574.378906 330.652344 574.441406 330.832031 C 574.503906 331.007812 574.585938 331.179688 574.683594 331.339844 C 574.785156 331.496094 574.902344 331.644531 575.035156 331.777344 C 575.167969 331.910156 575.3125 332.027344 575.472656 332.128906 C 575.632812 332.226562 575.800781 332.308594 575.976562 332.371094 C 576.15625 332.433594 576.339844 332.476562 576.527344 332.5 C 576.714844 332.519531 576.898438 332.519531 577.085938 332.5 L 582.601562 332.5 C 583.347656 332.535156 583.992188 332.292969 584.527344 331.773438 C 585.109375 331.214844 585.394531 330.53125 585.386719 329.726562 L 585.386719 246.25 C 585.371094 245.886719 585.289062 245.542969 585.144531 245.207031 C 584.996094 244.875 584.796875 244.582031 584.539062 244.324219 C 584.28125 244.070312 583.988281 243.867188 583.65625 243.722656 C 583.324219 243.578125 582.976562 243.5 582.613281 243.484375 L 577.097656 243.484375 C 576.292969 243.46875 575.609375 243.75 575.046875 244.332031 C 574.527344 244.867188 574.285156 245.507812 574.324219 246.257812 L 574.324219 269.945312 L 548.585938 269.945312 L 548.585938 264.539062 C 548.46875 263.035156 548.59375 261.550781 548.964844 260.089844 C 549.332031 258.628906 549.925781 257.261719 550.742188 255.996094 C 551.703125 254.933594 552.855469 254.148438 554.191406 253.640625 C 555.53125 253.132812 556.910156 252.957031 558.332031 253.113281 L 564.824219 253.113281 C 565.570312 253.148438 566.214844 252.90625 566.75 252.386719 C 567.328125 251.824219 567.609375 251.144531 567.597656 250.339844 L 567.597656 246.257812 C 567.582031 245.894531 567.5 245.546875 567.355469 245.214844 C 567.210938 244.882812 567.007812 244.585938 566.75 244.332031 C 566.492188 244.074219 566.199219 243.875 565.867188 243.730469 C 565.535156 243.582031 565.1875 243.503906 564.824219 243.488281 Z M 458.070312 246.121094 C 457.285156 246.121094 456.617188 246.402344 456.066406 246.96875 C 455.570312 247.5625 455.328125 248.246094 455.34375 249.019531 L 455.34375 255.523438 C 455.324219 255.710938 455.324219 255.898438 455.347656 256.082031 C 455.371094 256.269531 455.414062 256.453125 455.476562 256.628906 C 455.539062 256.804688 455.621094 256.972656 455.71875 257.132812 C 455.820312 257.289062 455.9375 257.4375 456.070312 257.570312 C 456.203125 257.699219 456.347656 257.816406 456.507812 257.917969 C 456.667969 258.015625 456.835938 258.097656 457.011719 258.160156 C 457.191406 258.222656 457.371094 258.261719 457.558594 258.285156 C 457.746094 258.304688 457.929688 258.308594 458.117188 258.285156 L 465.691406 258.277344 C 466.464844 258.289062 467.144531 258.046875 467.738281 257.546875 C 468.3125 256.992188 468.59375 256.308594 468.582031 255.507812 L 468.582031 249.019531 C 468.585938 248.632812 468.511719 248.265625 468.367188 247.910156 C 468.222656 247.554688 468.011719 247.242188 467.742188 246.96875 C 467.46875 246.699219 467.15625 246.488281 466.800781 246.34375 C 466.445312 246.195312 466.074219 246.125 465.691406 246.128906 Z M 159.484375 247.339844 C 144.355469 247.359375 134.550781 252.332031 127.933594 259.125 C 115.730469 271.617188 108.621094 291.855469 104.558594 314.863281 C 100.496094 337.871094 99.425781 363.621094 99.109375 387.113281 C 99.097656 387.394531 99.167969 387.652344 99.324219 387.886719 C 99.480469 388.121094 99.691406 388.289062 99.957031 388.382812 C 100.449219 388.582031 100.988281 388.542969 101.449219 388.074219 L 170.773438 317.011719 C 169.070312 314.863281 168.773438 311.726562 169.789062 308.164062 C 170.890625 304.242188 173.53125 299.671875 177.738281 294.742188 C 185.386719 285.789062 198.496094 275.699219 217.140625 266.617188 C 216.9375 266.003906 216.828125 265.375 216.820312 264.730469 C 216.820312 264.171875 216.917969 263.648438 217.054688 263.128906 C 192.347656 251.859375 173.527344 247.332031 159.492188 247.347656 Z M 402.480469 248.289062 C 402.105469 248.320312 401.742188 248.402344 401.390625 248.542969 C 401.039062 248.683594 400.71875 248.871094 400.421875 249.109375 C 400.128906 249.34375 399.878906 249.621094 399.667969 249.933594 C 399.457031 250.246094 399.296875 250.582031 399.1875 250.945312 L 369.34375 328.773438 C 369.25 329.210938 369.214844 329.652344 369.234375 330.101562 C 369.246094 330.414062 369.3125 330.71875 369.4375 331.007812 C 369.5625 331.296875 369.734375 331.554688 369.960938 331.777344 C 370.183594 332 370.4375 332.171875 370.726562 332.296875 C 371.019531 332.421875 371.320312 332.492188 371.636719 332.5 L 377.785156 332.5 C 378.496094 332.535156 379.132812 332.335938 379.699219 331.90625 C 380.199219 331.523438 380.5625 331.039062 380.789062 330.457031 L 387.40625 313.371094 L 426.867188 313.371094 L 433.484375 330.457031 C 433.691406 331.015625 434.011719 331.5 434.441406 331.90625 C 435.050781 332.355469 435.734375 332.550781 436.488281 332.5 L 442.621094 332.5 C 442.9375 332.492188 443.242188 332.425781 443.53125 332.300781 C 443.820312 332.175781 444.078125 332 444.300781 331.777344 C 444.523438 331.554688 444.699219 331.296875 444.824219 331.007812 C 444.949219 330.71875 445.019531 330.414062 445.027344 330.101562 L 444.785156 328.773438 L 415.058594 250.949219 C 414.9375 250.542969 414.75 250.167969 414.5 249.824219 C 414.25 249.480469 413.949219 249.1875 413.597656 248.945312 C 413.25 248.707031 412.871094 248.53125 412.460938 248.417969 C 412.050781 248.304688 411.632812 248.265625 411.207031 248.296875 L 403.027344 248.296875 C 402.847656 248.285156 402.664062 248.285156 402.480469 248.296875 M 407.125 260.335938 L 423.367188 303.039062 L 390.898438 303.039062 Z M 223.144531 260.367188 C 222.859375 260.367188 222.574219 260.394531 222.292969 260.449219 C 222.011719 260.503906 221.738281 260.585938 221.472656 260.695312 C 221.207031 260.804688 220.957031 260.9375 220.714844 261.097656 C 220.476562 261.257812 220.257812 261.4375 220.054688 261.640625 C 219.851562 261.84375 219.671875 262.066406 219.511719 262.304688 C 219.355469 262.542969 219.21875 262.796875 219.109375 263.0625 C 219.003906 263.328125 218.921875 263.601562 218.867188 263.882812 C 218.8125 264.164062 218.785156 264.449219 218.789062 264.734375 C 218.785156 265.023438 218.8125 265.308594 218.867188 265.589844 C 218.921875 265.871094 219.003906 266.144531 219.113281 266.410156 C 219.222656 266.675781 219.355469 266.925781 219.515625 267.164062 C 219.671875 267.402344 219.855469 267.625 220.058594 267.828125 C 220.257812 268.03125 220.480469 268.210938 220.71875 268.371094 C 220.957031 268.527344 221.207031 268.664062 221.472656 268.773438 C 221.738281 268.882812 222.011719 268.964844 222.292969 269.019531 C 222.574219 269.074219 222.859375 269.101562 223.144531 269.097656 C 223.433594 269.101562 223.71875 269.074219 224 269.019531 C 224.28125 268.964844 224.554688 268.882812 224.820312 268.773438 C 225.085938 268.664062 225.335938 268.53125 225.578125 268.371094 C 225.816406 268.210938 226.035156 268.03125 226.238281 267.828125 C 226.441406 267.625 226.621094 267.40625 226.78125 267.167969 C 226.941406 266.925781 227.074219 266.675781 227.183594 266.410156 C 227.292969 266.144531 227.375 265.871094 227.429688 265.589844 C 227.484375 265.308594 227.511719 265.023438 227.507812 264.734375 C 227.511719 264.449219 227.484375 264.164062 227.429688 263.882812 C 227.371094 263.601562 227.289062 263.328125 227.179688 263.0625 C 227.070312 262.796875 226.9375 262.546875 226.777344 262.308594 C 226.621094 262.070312 226.4375 261.847656 226.234375 261.644531 C 226.035156 261.441406 225.8125 261.261719 225.574219 261.101562 C 225.335938 260.941406 225.082031 260.808594 224.820312 260.699219 C 224.554688 260.589844 224.28125 260.503906 224 260.449219 C 223.71875 260.394531 223.433594 260.367188 223.144531 260.367188 M 228.460938 268.175781 C 228.019531 268.847656 227.453125 269.425781 226.808594 269.890625 C 235.792969 288.328125 245.742188 301.230469 254.414062 308.640625 C 259.195312 312.71875 263.585938 315.199219 267.101562 316.195312 C 270.160156 317.0625 272.453125 316.824219 273.988281 315.730469 L 273.800781 315.550781 L 274.867188 314.882812 C 274.945312 314.839844 275.015625 314.789062 275.078125 314.726562 L 275.078125 314.710938 L 310.347656 278.558594 C 304.203125 281.882812 296.609375 284.113281 286.800781 284.125 C 272.363281 284.144531 253.304688 279.503906 228.453125 268.167969 M 218.007812 268.390625 C 199.558594 277.375 186.640625 287.339844 179.230469 296.019531 C 175.152344 300.800781 172.671875 305.179688 171.675781 308.699219 C 170.808594 311.757812 171.046875 314.058594 172.140625 315.597656 L 172.332031 315.40625 L 173 316.472656 C 173.042969 316.550781 173.09375 316.617188 173.152344 316.679688 L 173.167969 316.683594 L 209.324219 351.953125 C 205.992188 345.800781 203.769531 338.207031 203.757812 328.386719 C 203.738281 313.949219 208.378906 294.886719 219.710938 270.035156 C 219.039062 269.59375 218.46875 269.046875 218.007812 268.386719 Z M 628.601562 268.753906 C 626.769531 268.773438 624.949219 268.949219 623.144531 269.285156 C 621.34375 269.625 619.582031 270.117188 617.863281 270.761719 C 616.148438 271.40625 614.5 272.199219 612.921875 273.132812 C 611.34375 274.066406 609.859375 275.132812 608.464844 276.328125 C 607.21875 277.648438 606.105469 279.074219 605.128906 280.605469 C 604.152344 282.136719 603.328125 283.75 602.65625 285.4375 C 601.988281 287.128906 601.484375 288.863281 601.144531 290.648438 C 600.804688 292.433594 600.640625 294.234375 600.644531 296.050781 L 600.519531 301.226562 L 600.644531 306.398438 C 600.632812 308.222656 600.792969 310.027344 601.125 311.820312 C 601.453125 313.613281 601.949219 315.355469 602.609375 317.054688 C 603.269531 318.753906 604.082031 320.375 605.046875 321.921875 C 606.011719 323.46875 607.109375 324.910156 608.347656 326.246094 C 609.714844 327.539062 611.199219 328.675781 612.800781 329.660156 C 614.398438 330.648438 616.082031 331.460938 617.851562 332.101562 C 619.617188 332.742188 621.433594 333.199219 623.292969 333.46875 C 625.152344 333.742188 627.019531 333.820312 628.898438 333.710938 L 628.917969 333.710938 C 630.789062 333.824219 632.648438 333.75 634.503906 333.480469 C 636.355469 333.214844 638.164062 332.757812 639.921875 332.117188 C 641.679688 331.472656 643.355469 330.660156 644.945312 329.671875 C 646.539062 328.683594 648.011719 327.542969 649.363281 326.246094 C 650.617188 324.917969 651.730469 323.480469 652.710938 321.9375 C 653.6875 320.394531 654.511719 318.773438 655.179688 317.074219 C 655.847656 315.375 656.351562 313.628906 656.6875 311.832031 C 657.023438 310.035156 657.1875 308.226562 657.175781 306.398438 C 657.257812 305.519531 657.296875 303.792969 657.296875 301.226562 C 657.296875 298.65625 657.257812 296.933594 657.175781 296.050781 C 657.183594 294.234375 657.015625 292.433594 656.675781 290.648438 C 656.339844 288.863281 655.835938 287.128906 655.164062 285.4375 C 654.496094 283.75 653.671875 282.140625 652.695312 280.605469 C 651.71875 279.074219 650.609375 277.648438 649.359375 276.328125 C 647.929688 275.097656 646.398438 274.007812 644.769531 273.054688 C 643.140625 272.101562 641.441406 271.300781 639.667969 270.652344 C 637.898438 270.007812 636.082031 269.523438 634.222656 269.203125 C 632.363281 268.886719 630.488281 268.734375 628.601562 268.753906 M 511.859375 269.863281 C 510.34375 269.859375 508.851562 270.042969 507.386719 270.410156 C 505.917969 270.78125 504.519531 271.328125 503.1875 272.050781 C 501.855469 272.769531 500.636719 273.644531 499.523438 274.675781 C 498.414062 275.703125 497.449219 276.851562 496.625 278.125 L 496.625 272.828125 C 496.628906 272.445312 496.554688 272.074219 496.410156 271.71875 C 496.261719 271.363281 496.054688 271.050781 495.78125 270.78125 C 495.511719 270.511719 495.199219 270.300781 494.84375 270.15625 C 494.488281 270.011719 494.117188 269.9375 493.734375 269.941406 L 488.214844 269.941406 C 487.410156 269.929688 486.730469 270.210938 486.171875 270.789062 C 485.671875 271.378906 485.433594 272.0625 485.449219 272.835938 L 485.449219 329.738281 C 485.425781 329.925781 485.429688 330.109375 485.449219 330.296875 C 485.46875 330.484375 485.511719 330.664062 485.574219 330.839844 C 485.636719 331.019531 485.71875 331.1875 485.816406 331.34375 C 485.917969 331.503906 486.03125 331.648438 486.164062 331.78125 C 486.296875 331.914062 486.441406 332.03125 486.601562 332.132812 C 486.757812 332.234375 486.925781 332.316406 487.101562 332.378906 C 487.277344 332.441406 487.460938 332.484375 487.644531 332.507812 C 487.832031 332.527344 488.019531 332.53125 488.203125 332.511719 L 494.054688 332.5 C 494.828125 332.515625 495.511719 332.273438 496.105469 331.777344 C 496.683594 331.21875 496.964844 330.535156 496.953125 329.726562 L 496.953125 294.359375 C 496.847656 292.472656 497.121094 290.640625 497.769531 288.863281 C 498.414062 287.089844 499.386719 285.511719 500.679688 284.136719 C 502.039062 282.804688 503.609375 281.804688 505.386719 281.136719 C 507.164062 280.464844 509.003906 280.179688 510.902344 280.28125 L 518.132812 280.28125 C 518.875 280.320312 519.515625 280.082031 520.050781 279.566406 C 520.644531 279.058594 520.925781 278.417969 520.898438 277.640625 L 520.898438 272.707031 C 520.882812 272.347656 520.804688 272 520.65625 271.671875 C 520.511719 271.339844 520.3125 271.046875 520.054688 270.789062 C 519.800781 270.535156 519.507812 270.332031 519.175781 270.1875 C 518.84375 270.042969 518.5 269.960938 518.136719 269.945312 L 513.46875 269.945312 C 512.933594 269.898438 512.394531 269.871094 511.851562 269.863281 Z M 459.027344 269.941406 C 458.242188 269.941406 457.574219 270.222656 457.027344 270.789062 C 456.511719 271.324219 456.269531 271.96875 456.308594 272.714844 L 456.308594 329.734375 C 456.289062 329.917969 456.289062 330.105469 456.3125 330.292969 C 456.332031 330.480469 456.375 330.660156 456.4375 330.839844 C 456.5 331.015625 456.582031 331.183594 456.679688 331.34375 C 456.78125 331.503906 456.894531 331.648438 457.027344 331.78125 C 457.160156 331.914062 457.304688 332.03125 457.464844 332.132812 C 457.625 332.234375 457.792969 332.3125 457.96875 332.378906 C 458.144531 332.441406 458.328125 332.484375 458.511719 332.507812 C 458.699219 332.527344 458.886719 332.53125 459.074219 332.511719 L 464.839844 332.5 C 465.589844 332.539062 466.234375 332.296875 466.769531 331.773438 C 467.351562 331.210938 467.632812 330.527344 467.617188 329.722656 L 467.617188 272.707031 C 467.601562 272.347656 467.519531 272 467.375 271.667969 C 467.230469 271.335938 467.027344 271.042969 466.773438 270.789062 C 466.515625 270.53125 466.222656 270.332031 465.890625 270.1875 C 465.558594 270.042969 465.210938 269.960938 464.851562 269.945312 L 459.019531 269.945312 M 707.671875 269.945312 C 706.921875 269.992188 706.277344 270.277344 705.734375 270.792969 C 705.1875 271.242188 704.824219 271.8125 704.648438 272.496094 L 690.332031 317.367188 L 676.980469 272.015625 C 676.765625 271.457031 676.402344 271.015625 675.898438 270.695312 C 675.363281 270.175781 674.71875 269.933594 673.972656 269.972656 L 668.691406 269.972656 C 667.996094 269.984375 667.394531 270.222656 666.882812 270.695312 C 666.382812 271.191406 666.144531 271.796875 666.171875 272.5 L 666.398438 273.699219 L 683.488281 329.515625 C 683.78125 330.394531 684.261719 331.15625 684.925781 331.796875 C 685.640625 332.339844 686.445312 332.578125 687.335938 332.519531 L 692.046875 332.519531 C 692.507812 332.554688 692.964844 332.507812 693.410156 332.378906 C 693.859375 332.25 694.269531 332.046875 694.644531 331.773438 C 695.019531 331.496094 695.335938 331.167969 695.59375 330.78125 C 695.847656 330.394531 696.03125 329.972656 696.140625 329.519531 L 710.097656 286.449219 L 724.046875 329.519531 C 724.128906 329.976562 724.289062 330.402344 724.527344 330.796875 C 724.769531 331.191406 725.074219 331.527344 725.445312 331.808594 C 725.8125 332.085938 726.21875 332.289062 726.664062 332.414062 C 727.113281 332.535156 727.5625 332.574219 728.023438 332.527344 L 732.6875 332.527344 C 733.628906 332.601562 734.480469 332.359375 735.242188 331.804688 C 735.910156 331.160156 736.390625 330.398438 736.683594 329.519531 L 753.644531 273.699219 L 753.886719 272.496094 C 753.910156 271.789062 753.667969 271.1875 753.164062 270.691406 C 752.703125 270.203125 752.136719 269.960938 751.464844 269.964844 L 746.050781 269.964844 C 745.277344 269.953125 744.597656 270.195312 744.003906 270.691406 C 743.59375 271.050781 743.308594 271.492188 743.160156 272.015625 L 729.804688 317.367188 L 715.484375 272.496094 C 715.308594 271.8125 714.953125 271.246094 714.410156 270.792969 C 713.765625 270.183594 713 269.898438 712.117188 269.945312 Z M 225.011719 270.746094 C 224.398438 270.949219 223.773438 271.058594 223.128906 271.066406 C 222.5625 271.066406 222.027344 270.96875 221.5 270.824219 C 210.226562 295.535156 205.699219 314.347656 205.714844 328.386719 C 205.734375 343.425781 210.65625 353.199219 217.382812 359.820312 L 217.496094 359.933594 C 229.992188 372.136719 250.222656 379.246094 273.238281 383.308594 C 296.238281 387.371094 321.988281 388.429688 345.484375 388.757812 C 345.761719 388.765625 346.019531 388.695312 346.25 388.539062 C 346.484375 388.382812 346.648438 388.171875 346.742188 387.910156 C 346.859375 387.652344 346.886719 387.390625 346.828125 387.117188 C 346.773438 386.839844 346.640625 386.609375 346.433594 386.421875 L 275.394531 317.109375 C 273.246094 318.8125 270.117188 319.097656 266.566406 318.089844 C 262.640625 316.980469 258.066406 314.339844 253.140625 310.132812 C 244.1875 302.492188 234.085938 289.386719 225.011719 270.742188 Z M 629.988281 278.007812 C 632.042969 278.046875 634.007812 278.488281 635.882812 279.324219 C 637.761719 280.164062 639.402344 281.332031 640.804688 282.832031 C 642.414062 284.777344 643.628906 286.9375 644.457031 289.320312 C 645.285156 291.699219 645.671875 294.152344 645.617188 296.671875 C 645.695312 297.472656 645.734375 298.996094 645.734375 301.242188 C 645.734375 304.609375 645.695312 305.011719 645.617188 305.8125 C 645.671875 308.332031 645.285156 310.78125 644.457031 313.164062 C 643.628906 315.546875 642.414062 317.707031 640.804688 319.648438 C 640.046875 320.457031 639.210938 321.175781 638.300781 321.800781 C 637.386719 322.425781 636.417969 322.945312 635.390625 323.359375 C 634.363281 323.777344 633.304688 324.074219 632.214844 324.257812 C 631.121094 324.441406 630.023438 324.507812 628.917969 324.449219 L 628.898438 324.445312 C 627.78125 324.5 626.675781 324.433594 625.574219 324.25 C 624.472656 324.0625 623.40625 323.765625 622.367188 323.351562 C 621.332031 322.9375 620.351562 322.417969 619.425781 321.792969 C 618.5 321.167969 617.652344 320.449219 616.882812 319.644531 C 615.28125 317.703125 614.078125 315.539062 613.273438 313.15625 C 612.46875 310.769531 612.117188 308.320312 612.214844 305.804688 L 612.09375 301.242188 L 612.214844 296.671875 C 612.117188 294.15625 612.46875 291.707031 613.273438 289.324219 C 614.078125 286.9375 615.28125 284.777344 616.882812 282.832031 C 617.652344 282.027344 618.503906 281.308594 619.429688 280.683594 C 620.355469 280.054688 621.335938 279.535156 622.375 279.121094 C 623.414062 278.707031 624.484375 278.40625 625.585938 278.222656 C 626.6875 278.039062 627.796875 277.972656 628.914062 278.027344 C 629.269531 278.007812 629.628906 278 629.988281 278.007812 " fill-opacity="1" fill-rule="nonzero"/></svg>