<svg xmlns="http://www.w3.org/2000/svg" xmlns:xlink="http://www.w3.org/1999/xlink" width="1080" zoomAndPan="magnify" viewBox="0 0 810 530.249967" height="707" preserveAspectRatio="xMidYMid meet" version="1.0"><defs><clipPath id="7734a40372"><path d="M 0.578125 0 L 809.421875 0 L 809.421875 529.242188 L 0.578125 529.242188 Z M 0.578125 0 " clip-rule="nonzero"/></clipPath><clipPath id="3a074e3650"><path d="M 203.417969 70 L 634.808594 70 L 634.808594 468 L 203.417969 468 Z M 203.417969 70 " clip-rule="nonzero"/></clipPath></defs><g clip-path="url(#7734a40372)"><path stroke-linecap="butt" transform="matrix(0.748941, 0, 0, 0.748941, 0.57801, -0.0000199718)" fill="none" stroke-linejoin="miter" d="M 0.00015329 0.0000266667 L 1079.984 0.0000266667 L 1079.984 706.654449 L 0.00015329 706.654449 Z M 0.00015329 0.0000266667 " stroke="#444444" stroke-width="10" stroke-opacity="1" stroke-miterlimit="4"/></g><g clip-path="url(#3a074e3650)"><path fill="#444444" d="M 472.160156 70.460938 L 472.160156 272.09375 L 501.375 272.09375 L 501.375 70.460938 Z M 380.257812 86.25 L 380.257812 146.914062 L 409.46875 146.914062 L 409.46875 86.25 Z M 333.320312 136.125 L 333.320312 337.761719 L 362.535156 337.761719 L 362.535156 136.125 Z M 426.214844 136.207031 L 426.214844 196.859375 L 455.425781 196.859375 L 455.425781 136.207031 Z M 380.25 164.625 L 380.25 193.246094 L 409.46875 193.246094 L 409.46875 164.625 Z M 380.25 210.847656 L 380.25 271.511719 L 409.46875 271.511719 L 409.46875 210.851562 L 380.257812 210.851562 Z M 426.214844 214.566406 L 426.214844 243.183594 L 455.425781 243.183594 L 455.425781 214.566406 Z M 426.214844 260.902344 L 426.214844 321.554688 L 455.425781 321.554688 L 455.425781 260.902344 Z M 480.132812 354.421875 L 480.132812 386.609375 C 474.886719 379.941406 466.515625 376.535156 458.296875 376.535156 C 441.6875 376.535156 429.496094 390.425781 429.496094 408.855469 C 429.496094 427.285156 441.710938 441.183594 458.296875 441.183594 C 466.949219 441.183594 476.023438 437.21875 481.121094 429.703125 L 481.695312 439.492188 L 496.578125 439.492188 L 496.578125 354.425781 L 480.132812 354.425781 Z M 611.125 376.382812 C 594.535156 376.382812 587.019531 385.488281 587.019531 395.097656 C 587.011719 403.746094 592.40625 411.6875 607.421875 414.949219 C 615.796875 416.933594 620.472656 418.492188 620.472656 422.878906 C 620.472656 427.988281 615.933594 429.972656 609.410156 429.972656 C 600.339844 429.972656 592.828125 426.140625 587.863281 423.160156 L 585.175781 434.542969 C 588.875 436.78125 592.808594 438.492188 596.972656 439.667969 C 601.132812 440.847656 605.378906 441.453125 609.703125 441.488281 C 625.433594 441.488281 635.074219 433.414062 635.074219 420.257812 C 635.074219 412.03125 628.554688 404.519531 612.394531 401.117188 C 605.878906 399.558594 601.613281 397.710938 601.613281 393.601562 C 601.613281 389.914062 604.886719 387.648438 611.546875 387.648438 C 614.671875 387.707031 617.738281 388.171875 620.742188 389.035156 C 623.746094 389.902344 626.585938 391.144531 629.265625 392.761719 L 631.929688 381.917969 C 629.972656 380.789062 621.195312 376.386719 611.125 376.386719 Z M 241.707031 376.484375 C 233.0625 376.472656 223.988281 380.445312 218.882812 387.957031 L 218.300781 378.214844 L 203.417969 378.214844 L 203.417969 467.097656 L 219.871094 467.097656 L 219.871094 431.085938 C 225.121094 437.753906 233.480469 441.15625 241.707031 441.15625 C 258.289062 441.167969 270.527344 427.253906 270.527344 408.816406 C 270.527344 390.378906 258.292969 376.484375 241.710938 376.484375 Z M 309.140625 376.523438 C 292.523438 376.511719 280.335938 390.417969 280.335938 408.84375 C 280.335938 427.273438 292.550781 441.171875 309.136719 441.171875 C 317.777344 441.171875 326.855469 437.199219 331.960938 429.691406 L 332.527344 439.464844 L 347.410156 439.46875 L 347.410156 378.222656 L 332.527344 378.222656 L 331.960938 388 C 326.855469 380.523438 317.773438 376.523438 309.140625 376.523438 M 399.039062 376.527344 C 389.683594 376.527344 380.46875 381.769531 376.351562 389.570312 L 375.648438 378.222656 L 360.578125 378.222656 L 360.578125 439.441406 L 377.019531 439.441406 L 377.019531 405.273438 C 377.027344 396.765625 385.535156 389.683594 393.328125 389.683594 C 400.835938 389.683594 404.953125 393.652344 404.953125 405.566406 L 404.953125 439.484375 L 421.445312 439.484375 L 421.445312 403.046875 C 421.445312 387.875 415.335938 376.527344 399.039062 376.527344 M 534.984375 376.554688 C 518.375 376.550781 506.175781 390.445312 506.175781 408.875 C 506.175781 427.304688 518.394531 441.195312 534.984375 441.195312 C 543.628906 441.203125 552.703125 437.230469 557.808594 429.71875 L 558.375 439.496094 L 573.300781 439.496094 L 573.300781 378.253906 L 558.375 378.253906 L 557.808594 388.035156 C 552.703125 380.554688 543.628906 376.554688 534.984375 376.554688 M 236.609375 388.703125 C 246.246094 388.703125 254.023438 396.210938 254.023438 408.828125 C 254.023438 421.449219 246.246094 428.964844 236.601562 428.964844 C 226.960938 428.964844 219.167969 421.449219 219.167969 408.832031 C 219.167969 396.214844 227.003906 388.699219 236.609375 388.699219 Z M 314.246094 388.703125 C 323.890625 388.75 331.679688 396.234375 331.679688 408.84375 C 331.679688 421.453125 323.890625 428.972656 314.246094 428.972656 C 304.597656 428.972656 296.808594 421.457031 296.808594 408.839844 C 296.808594 396.214844 304.640625 388.703125 314.246094 388.703125 M 463.417969 388.753906 C 473.054688 388.753906 480.847656 396.269531 480.847656 408.886719 C 480.847656 421.507812 473.058594 429.027344 463.414062 429.027344 C 453.769531 429.011719 445.976562 421.503906 445.976562 408.890625 C 445.976562 396.273438 453.773438 388.757812 463.417969 388.757812 Z M 540.09375 388.753906 C 549.738281 388.753906 557.527344 396.269531 557.527344 408.886719 C 557.527344 421.507812 549.734375 429.027344 540.09375 429.027344 C 530.453125 429.027344 522.65625 421.503906 522.65625 408.890625 C 522.65625 396.273438 530.453125 388.757812 540.09375 388.757812 Z M 540.09375 388.753906 " fill-opacity="1" fill-rule="nonzero"/></g></svg>