<svg id="Layer_1" data-name="Layer 1" xmlns="http://www.w3.org/2000/svg" viewBox="0 0 320 96"><defs><style>.cls-1{fill:#fff;}</style></defs><path class="cls-1" d="M63.64,43.28V54.77h8.78c3.08,0,4.68-3.47,4.68-6.88s-1.51-6.57-4.68-6.57H58.06l1.51-5H73.09c6.52,0,9.9,6,9.9,11.92s-3.23,11.49-9.9,11.49h-15v-15Z"/><path class="cls-1" d="M95,51.85h6.54L97,42.13,88.84,59.75H83L94.09,37.24l5.58-1.51,11.53,24h-5.88l-1.48-3.13H93Z"/><path class="cls-1" d="M107.1,36.34h24.47l-1.51,5h-8.75V59.75h-5.58V41.32H107.1Z"/><path class="cls-1" d="M137.91,51.85h6.54l-4.58-9.72-8.15,17.62h-5.89L137,37.24l5.58-1.51,11.53,24H148.2l-1.48-3.13H135.85Z"/><path class="cls-1" d="M150,36.34h24.47l-1.51,5h-8.75V59.75h-5.58V41.32H150Z"/><path class="cls-1" d="M182.57,43.25v4.13h10c1.69,0,2.57-1.54,2.57-3.08s-.85-3-2.57-3H177l1.51-5h14.12A8.06,8.06,0,0,1,201,44.58a7.46,7.46,0,0,1-5.13,7.3l5.83,7.87h-6.58L190,52.36h-7.45v7.39H177v-15Z"/><path class="cls-1" d="M216.15,60.27c-7.48,0-13.7-4-13.7-12.22s6.22-12.23,13.7-12.23c7.73,0,14.09,3.72,14.09,12.23S223.88,60.27,216.15,60.27Zm.27-5.07c5.22,0,7.94-2.12,7.94-7.15s-2.72-7.16-7.94-7.16c-5.4,0-8.08,2-8.08,7.16S211,55.2,216.42,55.2Z"/><path class="cls-1" d="M245,60.27c-7.48,0-13.7-4-13.7-12.22s6.22-12.23,13.7-12.23c7.72,0,14.09,3.72,14.09,12.23S252.75,60.27,245,60.27Zm.27-5.07c5.22,0,7.94-2.12,7.94-7.15s-2.72-7.16-7.94-7.16c-5.4,0-8.09,2-8.09,7.16S239.9,55.2,245.3,55.2Z"/><path class="cls-1" d="M267.51,43.25v4.13H278.4c1.69,0,2.57-1.54,2.57-3.08s-.85-3-2.57-3H261.93l1.51-5h14.72c5.67,0,8.69,4.16,8.69,8.24,0,3.92-2.77,7.78-8.69,7.78H267.51v7.39h-5.58v-15Z"/><path class="cls-1" d="M288.36,43.46c0-3.59,2.84-7.12,8.39-7.12h15.93l-1.51,5H296.81a2.28,2.28,0,0,0-2.57,2.14c0,1.08.88,2.11,2.57,2.11h8.09c5.46,0,8.3,3.53,8.3,7.12s-2.69,7.06-8.3,7.06H288.36l1.51-5h15c1.69,0,2.56-1,2.56-2.08a2.29,2.29,0,0,0-2.56-2.17h-8.09C291.11,50.52,288.36,47,288.36,43.46Z"/><path class="cls-1" d="M27.24,35.85A9.49,9.49,0,0,0,23.62,37c-1.89,1-2.65,2.32-2,3.79s2,1.83,4.12.93a6.91,6.91,0,0,1,8.61,10.18c-1.74,2.72-5.4,3.64-8.78,2.22-1.92-.8-3.16-.52-3.88.87s-.14,2.89,1.62,3.81a11.06,11.06,0,0,0,7.57,1A1.82,1.82,0,0,1,33.22,61c.81,1.59,1.71,3.13,2.62,4.67s2.39,2.11,3.76,1.31,1.64-2.16.79-3.77-1.82-3.35-2.84-5A1.61,1.61,0,0,1,37.73,56c4.1-5,4.09-11,0-16a1.63,1.63,0,0,1-.13-2.27c1-1.66,2-3.37,2.91-5.11A2.58,2.58,0,1,0,36,30.05a33.64,33.64,0,0,0-1.93,3.47c-1.34,3.2-2.48,2.85-3.79,2.59A7.13,7.13,0,0,0,27.24,35.85Z"/><path class="cls-1" d="M14.28,50.57c-1.56,0-3.11,0-4.67,0a2.62,2.62,0,0,1-2.8-2.46,2.59,2.59,0,0,1,2.74-2.7q4.75-.09,9.51,0A2.56,2.56,0,0,1,21.77,48c0,1.53-1,2.52-2.82,2.62H14.28Z"/><path class="cls-1" d="M50.88,48.2a3.29,3.29,0,0,1-3.38,3,3.23,3.23,0,1,1,3.38-3Z"/><path class="cls-1" d="M31.92,48a3.31,3.31,0,0,1-3.16,3.26,3.22,3.22,0,1,1-.08-6.43A3.25,3.25,0,0,1,31.92,48Z"/><path class="cls-1" d="M19.17,67.68a3.35,3.35,0,0,1-3.2-3.2,3.22,3.22,0,0,1,3.18-3.2,3.18,3.18,0,0,1,3.27,3.26A3.28,3.28,0,0,1,19.17,67.68Z"/><path class="cls-1" d="M22.42,31.54a3.21,3.21,0,1,1-3.14-3.22A3.21,3.21,0,0,1,22.42,31.54Z"/></svg>