<svg xmlns="http://www.w3.org/2000/svg" xmlns:xlink="http://www.w3.org/1999/xlink" width="1080" zoomAndPan="magnify" viewBox="0 0 810 530.249967" height="707" preserveAspectRatio="xMidYMid meet" version="1.0"><defs><clipPath id="f74ae1af20"><path d="M 0.578125 0 L 809.421875 0 L 809.421875 529.242188 L 0.578125 529.242188 Z M 0.578125 0 " clip-rule="nonzero"/></clipPath></defs><g clip-path="url(#f74ae1af20)"><path stroke-linecap="butt" transform="matrix(0.748941, 0, 0, 0.748941, 0.57801, -0.0000199718)" fill="none" stroke-linejoin="miter" d="M 0.00015329 0.0000266667 L 1079.984 0.0000266667 L 1079.984 706.654449 L 0.00015329 706.654449 Z M 0.00015329 0.0000266667 " stroke="#444444" stroke-width="10" stroke-opacity="1" stroke-miterlimit="4"/></g><path fill="#444444" d="M 487.054688 467.644531 C 487.054688 466.527344 487.425781 465.410156 487.054688 464.289062 C 486.308594 463.171875 485.933594 462.425781 485.1875 461.679688 C 483.324219 459.441406 481.457031 457.574219 479.222656 455.339844 L 457.214844 432.960938 L 474.371094 415.429688 L 483.695312 405.359375 C 485.1875 403.867188 487.054688 400.882812 487.054688 398.648438 L 487.054688 397.15625 C 487.054688 393.796875 485.5625 391.933594 482.203125 391.1875 L 482.949219 391.558594 L 480.339844 391.558594 C 478.101562 391.558594 471.761719 397.527344 470.269531 399.394531 C 464.675781 404.988281 460.945312 410.207031 453.484375 415.804688 L 453.484375 371.417969 C 453.484375 367.316406 451.246094 365.453125 447.144531 365.453125 L 446.027344 365.453125 C 441.921875 365.453125 438.566406 367.316406 438.566406 371.417969 L 438.566406 468.019531 C 438.566406 472.121094 441.921875 473.613281 446.027344 473.613281 L 447.144531 473.613281 C 451.246094 473.613281 453.484375 471.75 453.484375 468.019531 L 453.484375 450.863281 L 464.675781 461.679688 C 468.03125 465.035156 471.386719 467.273438 474.371094 470.257812 C 475.863281 471.75 478.847656 473.613281 481.085938 473.613281 L 482.203125 473.613281 C 485.933594 473.613281 487.054688 471.75 487.800781 468.765625 L 487.054688 469.136719 Z M 632.886719 391.558594 L 631.394531 391.558594 C 623.1875 391.558594 615.726562 393.796875 609.015625 398.648438 C 597.824219 406.851562 591.484375 417.667969 591.484375 431.839844 L 591.484375 468.390625 C 591.484375 472.496094 592.976562 473.613281 597.078125 473.613281 L 598.199219 473.613281 C 602.300781 473.613281 606.402344 472.121094 606.402344 468.390625 L 606.402344 434.078125 C 606.402344 426.621094 607.894531 419.53125 613.492188 413.9375 C 617.964844 409.460938 623.558594 405.734375 629.902344 405.734375 C 634.75 405.734375 640.34375 404.613281 640.34375 398.648438 C 640.34375 394.171875 636.988281 391.558594 632.886719 391.558594 M 575.449219 410.207031 C 571.34375 403.496094 565.75 398.273438 558.664062 394.917969 C 545.609375 388.578125 531.808594 387.832031 519.128906 395.289062 L 517.265625 396.410156 C 512.042969 399.394531 507.566406 403.121094 504.210938 407.972656 C 494.511719 422.144531 493.394531 438.179688 501.972656 453.101562 L 502.71875 454.59375 C 506.449219 460.933594 511.296875 466.15625 517.636719 469.511719 C 531.0625 476.96875 545.609375 477.714844 559.035156 470.257812 L 560.15625 469.511719 C 563.886719 467.273438 564.632812 463.542969 562.765625 459.8125 C 562.019531 458.320312 560.527344 457.203125 559.035156 456.457031 L 558.289062 456.457031 C 555.679688 456.085938 548.59375 459.066406 545.984375 460.1875 C 540.761719 460.933594 534.792969 461.304688 529.570312 459.441406 L 557.917969 434.824219 C 562.019531 431.09375 566.496094 426.992188 570.972656 423.636719 C 574.703125 420.652344 578.429688 416.550781 575.445312 411.328125 Z M 549.710938 423.636719 L 518.007812 450.863281 C 516.890625 449.742188 516.144531 448.25 515.398438 447.132812 C 513.160156 443.402344 511.667969 438.925781 511.667969 434.453125 C 511.296875 423.261719 515.398438 413.9375 525.46875 408.34375 C 532.929688 403.867188 541.132812 403.121094 549.339844 406.105469 C 553.441406 407.597656 558.289062 410.207031 560.902344 413.9375 C 557.171875 417.296875 553.070312 420.277344 549.710938 423.636719 M 248.351562 365.453125 L 247.234375 365.453125 C 243.128906 365.453125 240.890625 366.945312 240.890625 371.046875 L 240.890625 401.257812 C 233.433594 394.542969 224.480469 391.933594 214.039062 391.933594 L 211.054688 391.933594 C 203.96875 391.933594 197.253906 393.050781 190.914062 396.78125 C 177.488281 404.613281 170.027344 416.175781 170.027344 431.839844 L 170.027344 434.824219 C 170.027344 441.910156 171.894531 447.878906 175.621094 454.21875 C 183.453125 467.644531 195.761719 474.359375 211.054688 474.359375 L 214.039062 474.359375 C 221.125 474.359375 228.585938 473.242188 234.550781 469.882812 C 247.980469 462.050781 255.8125 450.488281 255.8125 435.199219 L 255.8125 371.792969 C 255.8125 366.945312 252.453125 365.453125 248.351562 365.453125 M 236.789062 446.761719 C 231.195312 456.085938 222.988281 461.304688 212.171875 461.304688 C 207.699219 461.304688 203.222656 460.1875 199.492188 457.949219 C 189.796875 452.726562 184.199219 444.148438 184.199219 432.960938 C 184.199219 428.855469 184.945312 425.128906 186.8125 421.398438 C 192.03125 410.582031 200.613281 404.613281 212.546875 404.613281 C 218.515625 404.613281 223.734375 406.480469 228.210938 409.835938 C 236.042969 415.429688 240.519531 422.890625 240.519531 432.585938 C 240.890625 437.808594 239.402344 442.285156 236.789062 446.761719 M 306.535156 391.558594 L 304.296875 391.558594 C 297.210938 391.558594 290.125 392.679688 284.15625 396.410156 C 270.730469 404.242188 263.269531 415.804688 263.269531 431.46875 L 263.269531 434.453125 C 263.269531 441.539062 265.136719 447.503906 268.863281 453.847656 C 276.699219 467.273438 289.003906 473.988281 304.671875 473.988281 L 307.652344 473.988281 C 314.742188 473.988281 321.828125 472.867188 328.167969 469.511719 C 341.59375 461.679688 349.425781 450.117188 349.425781 434.824219 L 349.425781 431.839844 C 349.425781 425.128906 347.1875 419.53125 344.207031 413.9375 C 336 399.019531 322.945312 391.558594 306.535156 391.558594 M 330.40625 446.761719 C 324.8125 455.710938 316.976562 461.304688 306.164062 461.304688 C 301.3125 461.304688 296.464844 460.1875 291.988281 457.574219 C 282.664062 451.980469 277.445312 444.148438 277.445312 433.332031 C 277.445312 429.230469 278.1875 425.5 280.054688 421.769531 C 285.277344 410.953125 293.855469 404.988281 305.789062 404.988281 C 311.382812 404.988281 316.234375 406.480469 320.707031 409.460938 C 328.914062 415.058594 333.761719 422.890625 333.761719 432.960938 C 334.136719 437.4375 333.015625 442.285156 330.40625 446.761719 M 421.785156 396.78125 L 421.410156 397.15625 C 415.070312 393.050781 407.984375 391.558594 400.523438 391.558594 L 397.539062 391.558594 C 390.453125 391.558594 383.367188 392.679688 377.398438 396.410156 C 363.972656 404.242188 356.511719 415.804688 356.511719 431.09375 L 356.511719 434.078125 C 356.511719 437.808594 357.257812 441.164062 358.003906 444.894531 C 363.972656 465.410156 380.011719 476.96875 401.644531 475.480469 C 407.609375 475.105469 423.648438 473.242188 423.648438 464.289062 L 423.648438 462.796875 C 423.648438 459.441406 421.039062 456.457031 418.054688 455.710938 L 417.679688 454.964844 L 415.070312 454.964844 L 414.324219 456.085938 C 410.96875 457.574219 405.371094 460.558594 401.644531 460.558594 C 397.167969 460.558594 392.320312 460.558594 388.214844 458.320312 C 377.398438 453.101562 371.058594 444.523438 371.058594 432.585938 C 371.058594 428.484375 371.804688 424.753906 373.671875 421.023438 C 378.890625 410.582031 387.46875 403.867188 399.40625 404.242188 C 401.644531 404.242188 405.746094 405.359375 407.984375 406.480469 C 409.847656 407.226562 414.695312 410.207031 416.933594 410.207031 L 417.679688 410.207031 L 418.054688 409.460938 C 421.410156 408.71875 424.019531 406.105469 424.019531 402.75 L 424.019531 401.257812 C 424.019531 399.765625 423.273438 398.648438 422.527344 397.527344 Z M 187.929688 280.414062 L 188.304688 281.160156 C 217.769531 331.140625 269.238281 352.023438 325.558594 352.023438 C 434.464844 352.023438 524.351562 303.167969 565.378906 200.597656 C 592.976562 202.089844 621.324219 193.886719 634.75 167.40625 L 638.105469 160.691406 L 631.394531 156.960938 C 615.355469 147.636719 594.097656 146.519531 576.191406 151.738281 C 573.957031 132.34375 561.273438 115.5625 546.355469 103.625 L 540.386719 98.777344 L 535.539062 104.746094 C 525.46875 116.308594 522.484375 135.703125 523.976562 150.621094 C 525.097656 161.4375 528.453125 172.625 535.167969 181.578125 C 529.945312 184.5625 524.351562 188.664062 519.128906 190.527344 C 508.683594 194.257812 497.125 197.988281 485.933594 197.988281 L 460.945312 197.988281 L 460.945312 145.398438 L 412.457031 145.398438 L 412.457031 52.15625 L 356.511719 52.15625 L 356.511719 96.914062 L 263.269531 96.914062 L 263.269531 145.398438 L 214.785156 145.398438 L 214.785156 197.617188 L 173.011719 197.617188 L 172.265625 203.210938 C 170.402344 227.078125 173.382812 250.203125 183.453125 272.210938 Z M 412.457031 156.589844 L 453.484375 156.589844 L 453.484375 197.617188 L 412.457031 197.617188 Z M 363.972656 59.617188 L 405 59.617188 L 405 100.644531 L 363.972656 100.644531 Z M 363.972656 108.101562 L 405 108.101562 L 405 149.128906 L 363.972656 149.128906 Z M 363.972656 156.589844 L 405 156.589844 L 405 197.617188 L 363.972656 197.617188 Z M 315.488281 108.101562 L 356.511719 108.101562 L 356.511719 149.128906 L 315.488281 149.128906 Z M 315.488281 156.589844 L 356.511719 156.589844 L 356.511719 197.617188 L 315.488281 197.617188 Z M 319.589844 272.957031 C 319.589844 279.296875 314.367188 284.515625 308.027344 284.515625 C 301.6875 284.515625 296.464844 279.296875 296.464844 272.957031 C 296.464844 266.613281 301.6875 261.394531 308.027344 261.394531 C 314.367188 261.765625 319.589844 266.613281 319.589844 272.957031 M 270.730469 108.101562 L 308.027344 108.101562 L 308.027344 149.128906 L 270.730469 149.128906 Z M 270.730469 156.589844 L 308.027344 156.589844 L 308.027344 197.617188 L 270.730469 197.617188 Z M 222.242188 156.589844 L 263.269531 156.589844 L 263.269531 197.617188 L 222.242188 197.617188 Z M 231.195312 298.316406 C 237.164062 298.316406 243.128906 298.316406 248.726562 297.945312 C 263.269531 297.199219 275.953125 295.332031 286.394531 292.351562 C 294.972656 312.117188 310.636719 330.394531 338.609375 343.820312 L 325.558594 344.191406 C 266.628906 343.820312 234.925781 324.050781 208.816406 297.945312 C 216.648438 298.316406 224.109375 298.316406 231.195312 298.316406 M 308.027344 281.160156 C 312.503906 281.160156 316.234375 277.429688 316.234375 272.957031 C 316.234375 271.835938 315.859375 270.71875 315.488281 269.972656 C 314.742188 271.089844 313.996094 271.835938 312.503906 271.835938 C 310.636719 271.835938 309.144531 270.34375 309.144531 268.480469 C 309.144531 267.359375 309.890625 266.242188 310.636719 265.496094 C 310.265625 265.121094 309.144531 264.75 308.027344 264.75 C 303.550781 264.75 299.820312 268.480469 299.820312 272.957031 C 300.195312 277.429688 303.550781 281.160156 308.027344 281.160156 " fill-opacity="1" fill-rule="nonzero"/></svg>