<svg xmlns="http://www.w3.org/2000/svg" xmlns:xlink="http://www.w3.org/1999/xlink" width="1080" zoomAndPan="magnify" viewBox="0 0 810 809.999993" height="1080" preserveAspectRatio="xMidYMid meet" version="1.2"><g id="2982d8b8df"><path style=" stroke:none;fill-rule:nonzero;fill:#ffffff;fill-opacity:1;" d="M 305.589844 257.515625 C 290.820312 257.515625 278.851562 269.496094 278.851562 284.257812 C 278.851562 299.027344 290.820312 310.996094 305.589844 310.996094 C 320.363281 310.996094 332.332031 299.027344 332.332031 284.257812 C 332.332031 269.496094 320.363281 257.515625 305.589844 257.515625 Z M 305.589844 289.679688 C 302.597656 289.679688 300.167969 287.25 300.167969 284.257812 C 300.167969 281.261719 302.597656 278.832031 305.589844 278.832031 C 308.585938 278.832031 311.015625 281.261719 311.015625 284.257812 C 311.015625 287.25 308.585938 289.679688 305.589844 289.679688 Z M 305.589844 289.679688 "/><path style=" stroke:none;fill-rule:nonzero;fill:#ffffff;fill-opacity:1;" d="M 364.71875 257.515625 C 349.949219 257.515625 337.980469 269.496094 337.980469 284.257812 C 337.980469 299.027344 349.949219 310.996094 364.71875 310.996094 C 379.492188 310.996094 391.460938 299.027344 391.460938 284.257812 C 391.460938 269.496094 379.492188 257.515625 364.71875 257.515625 Z M 364.71875 289.679688 C 361.726562 289.679688 359.296875 287.25 359.296875 284.257812 C 359.296875 281.261719 361.726562 278.832031 364.71875 278.832031 C 367.714844 278.832031 370.144531 281.261719 370.144531 284.257812 C 370.144531 287.25 367.714844 289.679688 364.71875 289.679688 Z M 364.71875 289.679688 "/><path style=" stroke:none;fill-rule:nonzero;fill:#ffffff;fill-opacity:1;" d="M 423.851562 257.515625 C 409.078125 257.515625 397.109375 269.496094 397.109375 284.257812 C 397.109375 299.027344 409.078125 310.996094 423.851562 310.996094 C 438.621094 310.996094 450.589844 299.027344 450.589844 284.257812 C 450.589844 269.496094 438.621094 257.515625 423.851562 257.515625 Z M 423.851562 289.679688 C 420.855469 289.679688 418.425781 287.25 418.425781 284.257812 C 418.425781 281.261719 420.855469 278.832031 423.851562 278.832031 C 426.84375 278.832031 429.277344 281.261719 429.277344 284.257812 C 429.277344 287.25 426.84375 289.679688 423.851562 289.679688 Z M 423.851562 289.679688 "/><path style=" stroke:none;fill-rule:nonzero;fill:#ffffff;fill-opacity:1;" d="M 462.613281 489.816406 C 432.898438 489.816406 408.8125 513.902344 408.8125 543.617188 C 408.8125 573.332031 432.898438 597.417969 462.613281 597.417969 C 492.328125 597.417969 516.414062 573.332031 516.414062 543.617188 C 516.414062 513.902344 492.328125 489.816406 462.613281 489.816406 Z M 462.613281 576.101562 C 444.675781 576.101562 430.128906 561.566406 430.128906 543.617188 C 430.128906 525.679688 444.675781 511.132812 462.613281 511.132812 C 480.550781 511.132812 495.097656 525.679688 495.097656 543.617188 C 495.097656 561.5625 480.550781 576.101562 462.613281 576.101562 Z M 462.613281 576.101562 "/><path style=" stroke:none;fill-rule:nonzero;fill:#ffffff;fill-opacity:1;" d="M 118.535156 685.175781 C 122.667969 689.375 129.414062 689.417969 133.605469 685.28125 L 162.765625 656.515625 C 166.953125 652.378906 166.996094 645.632812 162.859375 641.445312 L 134.09375 612.285156 C 129.960938 608.097656 123.210938 608.054688 119.023438 612.1875 C 114.835938 616.3125 114.792969 623.070312 118.929688 627.257812 L 140.203125 648.820312 L 118.640625 670.105469 C 114.441406 674.238281 114.398438 680.984375 118.535156 685.175781 Z M 118.535156 685.175781 "/><path style=" stroke:none;fill-rule:nonzero;fill:#ffffff;fill-opacity:1;" d="M 183.867188 659.191406 L 246.128906 659.191406 C 252.023438 659.191406 256.789062 654.425781 256.789062 648.53125 C 256.789062 642.652344 252.023438 637.875 246.128906 637.875 L 183.867188 637.875 C 177.972656 637.875 173.207031 642.652344 173.207031 648.53125 C 173.207031 654.425781 177.972656 659.191406 183.867188 659.191406 Z M 183.867188 659.191406 "/><path style=" stroke:none;fill-rule:nonzero;fill:#ffffff;fill-opacity:1;" d="M 605.238281 317.273438 C 609.339844 321.496094 616.085938 321.589844 620.316406 317.488281 C 624.539062 313.382812 624.632812 306.636719 620.53125 302.417969 L 603.09375 284.480469 L 621.042969 267.042969 C 625.261719 262.941406 625.359375 256.195312 621.257812 251.972656 C 617.152344 247.753906 610.40625 247.648438 606.1875 251.75 L 580.597656 276.613281 C 576.375 280.71875 576.28125 287.464844 580.382812 291.683594 Z M 605.238281 317.273438 "/><path style=" stroke:none;fill-rule:nonzero;fill:#ffffff;fill-opacity:1;" d="M 719.191406 284.84375 L 701.753906 302.78125 C 697.664062 307 697.757812 313.746094 701.980469 317.851562 C 706.199219 321.953125 712.945312 321.859375 717.050781 317.636719 L 741.914062 292.046875 C 746.007812 287.828125 745.910156 281.082031 741.691406 276.976562 L 716.101562 252.113281 C 711.878906 248.019531 705.132812 248.117188 701.03125 252.335938 C 696.925781 256.558594 697.035156 263.304688 701.253906 267.40625 Z M 719.191406 284.84375 "/><path style=" stroke:none;fill-rule:nonzero;fill:#ffffff;fill-opacity:1;" d="M 645.375 326.121094 C 650.886719 328.199219 657.035156 325.417969 659.101562 319.90625 L 683.136719 256.121094 C 685.203125 250.609375 682.421875 244.472656 676.910156 242.390625 C 671.402344 240.316406 665.261719 243.097656 663.183594 248.605469 L 639.160156 312.394531 C 637.082031 317.902344 639.863281 324.054688 645.375 326.121094 Z M 645.375 326.121094 "/><path style=" stroke:none;fill-rule:nonzero;fill:#ffffff;fill-opacity:1;" d="M 767.503906 74.488281 C 743.503906 74.488281 724.050781 93.949219 724.050781 117.949219 C 724.050781 121.984375 724.777344 125.8125 725.804688 129.519531 L 708.851562 138.46875 C 705.355469 140.3125 703.160156 143.945312 703.160156 147.890625 L 703.160156 189.691406 L 673.765625 189.691406 L 673.765625 141.765625 C 692.585938 136.988281 706.5625 120.078125 706.5625 99.777344 C 706.5625 75.777344 687.109375 56.316406 663.097656 56.316406 C 639.085938 56.316406 619.648438 75.777344 619.648438 99.777344 C 619.648438 120.085938 633.628906 137 652.453125 141.773438 L 652.453125 189.691406 L 619.125 189.691406 L 619.125 147.890625 C 619.125 143.933594 616.941406 140.3125 613.445312 138.46875 L 596.492188 129.519531 C 597.519531 125.8125 598.246094 121.984375 598.246094 117.949219 C 598.246094 93.949219 578.785156 74.488281 554.78125 74.488281 C 530.78125 74.488281 511.320312 93.949219 511.320312 117.949219 C 511.320312 141.953125 530.78125 161.402344 554.78125 161.402344 C 567.058594 161.402344 578.097656 156.269531 586.003906 148.085938 L 597.808594 154.316406 L 597.808594 189.6875 L 565.601562 189.6875 C 553.835938 189.6875 544.285156 199.226562 544.285156 211.003906 L 544.285156 227.398438 L 267.445312 227.398438 C 249.785156 227.398438 235.472656 241.710938 235.472656 259.371094 L 235.472656 489.816406 L 114.8125 489.816406 C 109.070312 489.816406 103.558594 492.140625 99.550781 496.253906 L 69.378906 527.203125 C 65.5 531.179688 63.324219 536.519531 63.324219 542.082031 L 63.324219 786.328125 C 63.324219 798.105469 72.875 807.644531 84.640625 807.644531 L 278.851562 807.644531 C 290.625 807.644531 300.164062 798.105469 300.164062 786.328125 L 300.164062 560.230469 L 346.324219 560.230469 C 345.46875 578.003906 358 596.222656 379.898438 596.726562 C 388.0625 596.917969 394.0625 604.441406 392.429688 612.445312 C 385.28125 647.46875 429.636719 668.824219 452.5625 641.402344 C 457.796875 635.136719 467.429688 635.136719 472.664062 641.402344 C 495.589844 668.824219 539.945312 647.46875 532.796875 612.445312 C 531.164062 604.441406 537.164062 596.917969 545.328125 596.726562 C 567.226562 596.222656 579.757812 578.003906 578.898438 560.230469 L 657.78125 560.230469 C 675.441406 560.230469 689.753906 545.917969 689.753906 528.257812 L 689.753906 378.835938 L 756.6875 378.835938 C 768.460938 378.835938 778 369.285156 778 357.519531 L 778 211.007812 C 778 199.230469 768.460938 189.691406 756.6875 189.691406 L 724.476562 189.691406 L 724.476562 154.316406 L 736.289062 148.089844 C 744.191406 156.269531 755.226562 161.402344 767.503906 161.402344 C 791.515625 161.402344 810.964844 141.953125 810.964844 117.949219 C 810.964844 93.949219 791.515625 74.488281 767.503906 74.488281 Z M 554.78125 140.085938 C 542.558594 140.085938 532.636719 130.175781 532.636719 117.949219 C 532.636719 105.714844 542.558594 95.804688 554.78125 95.804688 C 567.019531 95.804688 576.929688 105.714844 576.929688 117.949219 C 576.929688 130.175781 567.019531 140.085938 554.78125 140.085938 Z M 640.960938 99.777344 C 640.960938 87.554688 650.875 77.632812 663.097656 77.632812 C 675.335938 77.632812 685.246094 87.554688 685.246094 99.777344 C 685.246094 112.015625 675.335938 121.925781 663.097656 121.925781 C 650.875 121.925781 640.960938 112.015625 640.960938 99.777344 Z M 256.789062 259.371094 C 256.789062 253.488281 261.5625 248.710938 267.445312 248.710938 L 544.285156 248.710938 L 544.285156 320.8125 L 256.789062 320.8125 Z M 278.851562 786.328125 L 84.640625 786.328125 L 84.640625 542.082031 L 114.8125 511.132812 L 278.851562 511.132812 Z M 544.839844 575.417969 C 523.394531 575.910156 507.621094 595.691406 511.914062 616.707031 C 514.632812 630.042969 497.742188 638.171875 489.023438 627.730469 C 475.265625 611.273438 449.960938 611.273438 436.203125 627.730469 C 427.472656 638.171875 410.589844 630.042969 413.308594 616.707031 C 417.605469 595.691406 401.832031 575.910156 380.386719 575.417969 C 366.777344 575.101562 362.609375 556.832031 374.726562 550.652344 C 393.839844 540.898438 399.464844 516.238281 386.484375 499.152344 C 378.246094 488.324219 389.9375 473.667969 402.320312 479.296875 C 421.859375 488.152344 444.65625 477.175781 449.910156 456.371094 C 453.246094 443.1875 471.980469 443.1875 475.316406 456.371094 C 480.570312 477.175781 503.367188 488.152344 522.90625 479.296875 C 535.289062 473.667969 546.980469 488.324219 538.742188 499.152344 C 525.761719 516.238281 531.390625 540.898438 550.5 550.652344 C 562.617188 556.832031 558.441406 575.101562 544.839844 575.417969 Z M 668.4375 528.257812 C 668.4375 534.140625 663.664062 538.917969 657.78125 538.917969 L 569.964844 538.917969 C 567.316406 536.121094 564.082031 533.648438 560.1875 531.660156 C 552.90625 527.949219 550.765625 518.558594 555.710938 512.058594 C 577.34375 483.613281 546.652344 445.117188 514.101562 459.875 C 506.664062 463.246094 497.988281 459.066406 495.984375 451.148438 C 487.234375 416.5 437.992188 416.5 429.242188 451.148438 C 427.238281 459.066406 418.5625 463.246094 411.125 459.875 C 378.574219 445.117188 347.882812 483.613281 369.515625 512.058594 C 374.460938 518.558594 372.320312 527.949219 365.039062 531.660156 C 361.144531 533.648438 357.910156 536.121094 355.261719 538.917969 L 300.164062 538.917969 L 300.164062 511.132812 C 300.164062 499.363281 290.625 489.816406 278.851562 489.816406 L 256.789062 489.816406 L 256.789062 342.128906 L 544.285156 342.128906 L 544.285156 357.519531 C 544.285156 369.285156 553.835938 378.835938 565.601562 378.835938 L 668.4375 378.835938 Z M 756.6875 211.003906 L 756.6875 357.519531 L 565.601562 357.519531 L 565.601562 211.003906 Z M 767.503906 140.085938 C 755.277344 140.085938 745.367188 130.175781 745.367188 117.949219 C 745.367188 105.714844 755.277344 95.804688 767.503906 95.804688 C 779.738281 95.804688 789.652344 105.714844 789.652344 117.949219 C 789.652344 130.175781 779.738281 140.085938 767.503906 140.085938 Z M 767.503906 140.085938 "/><path style=" stroke:none;fill-rule:nonzero;fill:#ffffff;fill-opacity:1;" d="M 230.75 37.761719 L 213.238281 60.886719 C 209.679688 65.578125 210.609375 72.261719 215.296875 75.808594 C 219.996094 79.371094 226.679688 78.441406 230.230469 73.753906 L 247.738281 50.636719 C 251.289062 45.949219 250.371094 39.253906 245.683594 35.703125 C 240.984375 32.144531 234.300781 33.074219 230.75 37.761719 Z M 230.75 37.761719 "/><path style=" stroke:none;fill-rule:nonzero;fill:#ffffff;fill-opacity:1;" d="M 88.222656 241.667969 C 96.523438 248.253906 101.449219 256.40625 101.449219 264.367188 L 101.449219 281.378906 C 101.449219 294.578125 109.453125 305.902344 120.867188 310.78125 L 120.867188 314.300781 C 120.867188 328.882812 132.6875 340.710938 147.277344 340.710938 C 162.476562 340.710938 174.53125 327.910156 173.636719 312.746094 L 173.542969 311.148438 C 185.527344 306.535156 194.066406 294.992188 194.066406 281.378906 L 194.066406 264.367188 C 194.066406 256.40625 198.992188 248.253906 207.292969 241.667969 C 231.144531 222.730469 246.429688 192.746094 246.429688 159.1875 C 246.429688 102.605469 202.773438 55.761719 147.757812 55.761719 C 92.742188 55.761719 49.085938 102.605469 49.085938 159.1875 C 49.085938 192.746094 64.359375 222.730469 88.222656 241.667969 Z M 147.277344 319.394531 C 144.464844 319.394531 142.183594 317.113281 142.183594 314.300781 L 142.183594 313.351562 L 152.324219 313.351562 L 152.363281 314.003906 C 152.53125 316.921875 150.210938 319.394531 147.277344 319.394531 Z M 172.75 281.378906 C 172.75 287.261719 167.976562 292.035156 162.09375 292.035156 L 133.421875 292.035156 C 127.527344 292.035156 122.765625 287.261719 122.765625 281.378906 L 122.765625 266.863281 L 172.75 266.863281 Z M 147.757812 77.078125 C 189.953125 77.078125 225.113281 113.304688 225.113281 159.1875 C 225.113281 186.226562 212.8125 210.066406 194.035156 224.976562 C 187.410156 230.234375 181.199219 237.226562 177.207031 245.546875 L 118.308594 245.546875 C 114.308594 237.226562 108.097656 230.234375 101.480469 224.976562 C 82.691406 210.066406 70.402344 186.226562 70.402344 159.1875 C 70.402344 113.304688 105.554688 77.078125 147.757812 77.078125 Z M 147.757812 77.078125 "/><path style=" stroke:none;fill-rule:nonzero;fill:#ffffff;fill-opacity:1;" d="M 137.101562 11.949219 L 137.101562 40.945312 C 137.101562 46.828125 141.863281 51.605469 147.757812 51.605469 C 153.640625 51.605469 158.414062 46.828125 158.414062 40.945312 L 158.414062 11.949219 C 158.414062 6.054688 153.640625 1.289062 147.757812 1.289062 C 141.863281 1.289062 137.101562 6.054688 137.101562 11.949219 Z M 137.101562 11.949219 "/><path style=" stroke:none;fill-rule:nonzero;fill:#ffffff;fill-opacity:1;" d="M 50.515625 34.808594 C 45.824219 38.359375 44.910156 45.050781 48.457031 49.742188 L 65.96875 72.855469 C 69.519531 77.546875 76.199219 78.472656 80.902344 74.914062 C 85.589844 71.367188 86.519531 64.683594 82.957031 59.992188 L 65.445312 36.867188 C 61.898438 32.175781 55.214844 31.257812 50.515625 34.808594 Z M 50.515625 34.808594 "/><path style=" stroke:none;fill-rule:nonzero;fill:#ffffff;fill-opacity:1;" d="M 263.78125 125.285156 C 257.9375 126.007812 253.78125 131.328125 254.496094 137.167969 C 255.210938 143.007812 260.527344 147.164062 266.371094 146.449219 L 295.15625 142.910156 C 300.996094 142.199219 305.152344 136.878906 304.441406 131.039062 C 303.726562 125.199219 298.40625 121.042969 292.566406 121.753906 Z M 263.78125 125.285156 "/><path style=" stroke:none;fill-rule:nonzero;fill:#ffffff;fill-opacity:1;" d="M 41.914062 123.523438 L 13.128906 119.996094 C 7.285156 119.269531 1.96875 123.429688 1.242188 129.269531 C 0.53125 135.121094 4.6875 140.4375 10.527344 141.152344 L 39.3125 144.679688 C 45.15625 145.394531 50.472656 141.238281 51.1875 135.398438 C 51.914062 129.558594 47.753906 124.238281 41.914062 123.523438 Z M 41.914062 123.523438 "/><path style=" stroke:none;fill-rule:nonzero;fill:#ffffff;fill-opacity:1;" d="M 745.632812 724.269531 L 719.425781 724.269531 C 718.472656 724.269531 717.566406 724.425781 716.648438 724.546875 C 718.363281 721.476562 719.425781 717.988281 719.425781 714.21875 L 719.425781 688.007812 C 719.425781 676.234375 709.875 666.695312 698.109375 666.695312 L 671.890625 666.695312 C 670.777344 666.695312 669.707031 666.855469 668.640625 667.023438 C 670.371094 663.941406 671.445312 660.433594 671.445312 656.644531 L 671.445312 630.425781 C 671.445312 618.660156 661.894531 609.109375 650.128906 609.109375 L 623.910156 609.109375 C 612.132812 609.109375 602.59375 618.660156 602.59375 630.425781 L 602.59375 656.644531 C 602.59375 662.875 605.3125 668.429688 609.574219 672.328125 C 605.3125 676.222656 602.59375 681.777344 602.59375 688.007812 L 602.59375 714.21875 C 602.59375 720.449219 605.3125 726.007812 609.578125 729.902344 C 605.3125 733.800781 602.59375 739.355469 602.59375 745.582031 L 602.59375 771.800781 C 602.59375 783.578125 612.132812 793.117188 623.910156 793.117188 L 650.128906 793.117188 C 654.121094 793.117188 657.816406 791.949219 661.011719 790.039062 C 664.207031 791.949219 667.898438 793.117188 671.890625 793.117188 L 698.109375 793.117188 C 702.011719 793.117188 705.621094 791.992188 708.765625 790.164062 C 711.914062 791.992188 715.523438 793.117188 719.425781 793.117188 L 745.632812 793.117188 C 757.410156 793.117188 766.949219 783.578125 766.949219 771.800781 L 766.949219 745.582031 C 766.949219 733.816406 757.410156 724.269531 745.632812 724.269531 Z M 650.128906 771.800781 L 623.910156 771.800781 L 623.910156 745.582031 L 650.128906 745.582031 Z M 650.128906 714.21875 L 623.910156 714.21875 L 623.910156 688.007812 L 650.128906 688.007812 Z M 650.128906 656.644531 L 623.910156 656.644531 L 623.910156 630.425781 L 650.128906 630.425781 Z M 698.109375 771.800781 L 671.890625 771.800781 L 671.890625 745.582031 L 698.109375 745.582031 Z M 698.109375 714.21875 L 671.890625 714.21875 L 671.890625 688.007812 L 698.109375 688.007812 Z M 745.632812 771.800781 L 719.425781 771.800781 L 719.425781 745.582031 L 745.632812 745.582031 Z M 745.632812 771.800781 "/></g></svg>