<svg xmlns="http://www.w3.org/2000/svg" xmlns:xlink="http://www.w3.org/1999/xlink" width="1080" zoomAndPan="magnify" viewBox="0 0 810 530.249967" height="707" preserveAspectRatio="xMidYMid meet" version="1.0"><defs><clipPath id="730c8378e6"><path d="M 0.578125 0 L 809.421875 0 L 809.421875 529.242188 L 0.578125 529.242188 Z M 0.578125 0 " clip-rule="nonzero"/></clipPath><clipPath id="8189be781c"><path d="M 495 62.832031 L 754 62.832031 L 754 281 L 495 281 Z M 495 62.832031 " clip-rule="nonzero"/></clipPath></defs><g clip-path="url(#730c8378e6)"><path stroke-linecap="butt" transform="matrix(0.748941, 0, 0, 0.748941, 0.57801, -0.0000199718)" fill="none" stroke-linejoin="miter" d="M 0.00015329 0.0000266667 L 1079.984 0.0000266667 L 1079.984 706.654449 L 0.00015329 706.654449 Z M 0.00015329 0.0000266667 " stroke="#444444" stroke-width="10" stroke-opacity="1" stroke-miterlimit="4"/></g><g clip-path="url(#8189be781c)"><path fill="#444444" d="M 694.433594 245.855469 C 693.828125 244.566406 693.558594 243.917969 693.230469 243.296875 C 684.496094 226.679688 675.78125 210.0625 666.957031 193.441406 C 666.070312 191.777344 666.183594 190.792969 667.394531 189.355469 C 681.296875 173.121094 695.015625 156.792969 708.941406 140.625 C 709.433594 140.054688 709.871094 139.449219 710.054688 138.433594 C 706.011719 139.484375 701.96875 140.527344 697.90625 141.597656 C 681.128906 146.046875 664.21875 150.46875 647.601562 154.984375 C 646.039062 155.402344 645.332031 154.945312 644.546875 153.648438 C 635.027344 137.726562 625.4375 121.761719 615.800781 106.039062 C 615.3125 105.214844 614.773438 104.417969 613.722656 103.726562 C 612.949219 107.972656 612.167969 112.195312 611.410156 116.4375 C 608.738281 131.417969 606.066406 146.304688 603.414062 161.351562 C 603.125 162.964844 602.730469 164.585938 602.589844 166.203125 C 602.457031 167.746094 601.660156 168.316406 600.253906 168.761719 C 580.472656 174.984375 560.730469 181.25 540.96875 187.515625 C 540.101562 187.785156 539.25 188.144531 538.320312 188.988281 C 554.488281 195.410156 570.65625 201.832031 587.050781 208.367188 C 586.453125 208.839844 586.058594 209.210938 585.621094 209.492188 C 575.515625 216.027344 565.386719 222.5625 555.304688 229.117188 C 554.09375 229.910156 553.136719 230.019531 551.777344 229.40625 C 539.695312 223.972656 527.523438 218.628906 515.398438 213.238281 C 509.964844 210.8125 505.089844 207.601562 501.292969 202.929688 C 492.695312 192.421875 494.398438 180.472656 505.851562 173.0625 C 509.605469 170.660156 513.871094 168.886719 518.113281 167.492188 C 537.496094 161.183594 556.964844 155.097656 576.277344 148.988281 C 577.910156 148.46875 578.660156 147.742188 578.972656 145.980469 C 581.578125 130.980469 584.25 115.886719 586.96875 101.066406 C 588.414062 93.050781 589.175781 84.851562 593.074219 77.488281 C 594.570312 74.65625 596.355469 71.894531 598.511719 69.535156 C 606.234375 60.957031 616.992188 60.644531 625.234375 68.800781 C 627.996094 71.5625 630.355469 74.796875 632.398438 78.140625 C 641.382812 92.808594 650.230469 107.5625 659.121094 122.382812 C 660.167969 124.128906 661.105469 124.476562 663.03125 123.96875 C 684.699219 118.152344 706.371094 112.425781 728.15625 106.699219 C 732.644531 105.515625 737.160156 105.089844 741.761719 105.949219 C 751.757812 107.816406 756.136719 115.425781 752.746094 125.105469 C 751.210938 129.503906 748.546875 133.210938 745.558594 136.738281 C 730.421875 154.546875 715.242188 172.445312 700.195312 190.183594 C 698.957031 191.640625 698.933594 192.675781 699.792969 194.316406 C 708.863281 211.40625 717.847656 228.449219 726.964844 245.742188 C 729.121094 249.828125 730.78125 254.097656 730.828125 258.789062 C 730.933594 269.480469 723.101562 278.238281 712.480469 279.808594 C 706.527344 280.679688 701.003906 279.40625 695.414062 277.6875 C 681.824219 273.488281 668.238281 269.355469 654.539062 265.246094 C 653.277344 264.871094 652.792969 264.367188 652.566406 263.011719 C 651.003906 253.421875 649.289062 243.855469 647.625 234.265625 C 647.582031 234.003906 647.660156 233.722656 647.707031 233.132812 C 663.226562 237.421875 678.699219 241.644531 694.640625 246.070312 " fill-opacity="1" fill-rule="evenodd"/></g><path fill="#444444" d="M 667.484375 386.214844 C 655.222656 386.195312 643.007812 386.132812 630.65625 386.1875 C 629.03125 386.1875 628.117188 385.722656 627.21875 384.34375 C 612.710938 362.246094 598.027344 340.105469 583.652344 318.097656 C 583.1875 317.394531 582.695312 316.71875 581.871094 315.535156 C 578.75 339.339844 575.675781 362.695312 572.597656 386.050781 L 540.484375 386.050781 C 540.863281 382.929688 541.195312 379.898438 541.589844 376.890625 C 544.710938 352.859375 547.878906 329.054688 551.023438 305.027344 C 554.03125 282.121094 557.019531 259.214844 560.074219 236.308594 C 560.160156 235.632812 560.617188 234.761719 561.167969 234.40625 C 572.21875 227.195312 583.3125 220.054688 594.40625 212.914062 C 594.566406 212.808594 594.792969 212.796875 595.363281 212.632812 C 592.015625 238.234375 588.691406 263.609375 585.347656 288.984375 C 585.480469 289.074219 585.609375 289.171875 585.742188 289.257812 C 603.144531 269.988281 620.550781 250.632812 638.289062 231.09375 C 638.800781 234.058594 639.246094 236.597656 639.683594 239.132812 C 640.933594 246.386719 642.132812 253.6875 643.457031 260.941406 C 643.730469 262.402344 643.335938 263.296875 642.363281 264.332031 C 631.109375 276.097656 619.90625 287.910156 608.675781 299.8125 C 608.183594 300.332031 607.71875 300.867188 607.160156 301.480469 C 607.519531 302.050781 607.824219 302.605469 608.183594 303.113281 C 627.519531 330.285156 646.8125 357.457031 666.125 384.628906 C 666.472656 385.121094 666.980469 385.507812 667.414062 385.945312 L 667.414062 386.375 " fill-opacity="1" fill-rule="evenodd"/><path fill="#444444" d="M 287.960938 314.351562 C 287.472656 311.859375 287.121094 308.175781 286.007812 304.738281 C 280.617188 288.144531 263.617188 279.136719 246.035156 283.160156 C 226.699219 287.648438 212.796875 302.851562 211 322.683594 C 209.519531 337.28125 217.378906 351.425781 231.976562 356.59375 C 243.742188 360.835938 255.105469 359.0625 265.660156 352.753906 C 279.605469 344.398438 287.152344 331.980469 288.117188 314.351562 Z M 203.074219 376.109375 C 202.128906 383.25 201.214844 389.964844 200.335938 396.699219 C 199.160156 405.636719 197.976562 414.597656 196.855469 423.648438 C 196.726562 424.691406 196.40625 425.15625 195.285156 425.148438 C 186.460938 425.117188 177.632812 425.125 168.785156 425.105469 C 168.582031 425.105469 168.382812 425 167.90625 424.863281 C 168.441406 420.640625 168.960938 416.394531 169.511719 412.171875 C 171.460938 397.351562 173.398438 382.53125 175.375 367.707031 C 177.644531 350.730469 179.417969 333.796875 182.3125 316.957031 C 187.433594 287.089844 212.855469 261.488281 242.5 254.976562 C 259.722656 251.246094 276.183594 252.972656 291.230469 262.675781 C 306.230469 272.335938 314.808594 286.480469 316.832031 304 C 319.617188 328.925781 310.429688 349.585938 292.800781 366.878906 C 281.167969 378.128906 267.203125 385.269531 251.257812 387.695312 C 234.707031 390.1875 219.144531 387.433594 205.21875 377.679688 C 204.710938 377.320312 204.15625 377.007812 203.28125 376.453125 " fill-opacity="1" fill-rule="evenodd"/><path fill="#444444" d="M 188.253906 234.628906 C 178.371094 241.996094 168.828125 249.089844 159.285156 256.210938 C 157.742188 253.785156 156.363281 251.359375 154.75 249.089844 C 150.59375 243.273438 145.429688 238.941406 137.929688 238.425781 C 131.683594 237.984375 126.339844 240.035156 122.097656 244.644531 C 118.300781 248.753906 117.804688 254.617188 121.351562 259.265625 C 125.257812 264.382812 129.523438 269.234375 133.902344 273.972656 C 141.15625 281.832031 148.726562 289.378906 155.910156 297.328125 C 162.445312 304.515625 167.679688 312.554688 169.296875 322.480469 C 171.21875 334.15625 168.886719 345.160156 163.367188 355.492188 C 153.148438 374.46875 137.09375 385.585938 115.757812 388.953125 C 106.371094 390.46875 97.03125 390.171875 87.910156 387.476562 C 75.761719 383.90625 67.296875 375.933594 61.863281 364.796875 C 59.941406 360.820312 58.472656 356.621094 56.742188 352.355469 C 67.363281 346.671875 77.714844 341.125 88.179688 335.535156 C 88.539062 336.402344 88.804688 337.132812 89.136719 337.824219 C 90.929688 341.394531 92.394531 345.191406 94.59375 348.492188 C 101.175781 358.261719 111.773438 361.226562 122.441406 356.398438 C 125.203125 355.152344 127.875 353.410156 130.144531 351.390625 C 137.0625 345.234375 138.363281 336.65625 133.242188 328.933594 C 130.300781 324.484375 126.617188 320.488281 123.027344 316.511719 C 114.445312 306.992188 105.507812 297.761719 97.199219 287.992188 C 91.429688 281.300781 87.5 273.53125 86.242188 264.636719 C 84.882812 254.847656 86.839844 245.640625 91.921875 237.464844 C 104.566406 217.007812 122.914062 206.476562 147.167969 207.148438 C 161.023438 207.648438 172.09375 214.132812 180.628906 224.910156 C 183.164062 228.101562 185.546875 231.402344 188.128906 234.859375 " fill-opacity="1" fill-rule="evenodd"/><path fill="#444444" d="M 422.703125 343.546875 C 421.089844 355.875 419.558594 367.574219 417.988281 379.25 C 417.902344 379.847656 417.4375 380.65625 416.933594 380.882812 C 392.90625 391.976562 361.464844 390.429688 341.929688 368.105469 C 331.375 356.113281 326.949219 341.832031 327.601562 326.113281 C 329.136719 289.507812 359.492188 257.394531 395.871094 252.902344 C 417.09375 250.296875 435.621094 256.023438 449.992188 272.53125 C 459.78125 283.757812 464.320312 297.230469 463.644531 312.054688 C 463.207031 321.84375 461.671875 331.570312 460.457031 341.246094 C 458.726562 355.035156 456.839844 368.871094 455.023438 382.570312 C 454.953125 383.050781 454.855469 383.539062 454.742188 384.164062 L 426.222656 384.164062 C 426.597656 381 426.949219 377.898438 427.351562 374.800781 C 429.421875 358.878906 431.710938 342.910156 433.527344 326.96875 C 434.660156 317.042969 433.949219 307.183594 429.394531 297.996094 C 424.566406 288.230469 416.484375 283.042969 405.816406 281.917969 C 383.765625 279.582031 362.699219 294.898438 358.207031 316.503906 C 355.109375 330.828125 359.996094 344.574219 371.414062 352.207031 C 382.527344 359.597656 394.320312 359.621094 406.445312 354.835938 C 412.597656 352.410156 417.808594 348.546875 422.792969 343.359375 " fill-opacity="1" fill-rule="evenodd"/><path fill="#444444" d="M 543.972656 256.636719 C 542.664062 266.5625 541.367188 276.332031 540.0625 286.28125 C 534 286.28125 528.070312 286.246094 522.144531 286.289062 C 517.335938 286.324219 512.957031 289.433594 511.5 293.925781 C 510.9375 295.679688 510.730469 297.5625 510.480469 299.402344 C 507.472656 322.308594 504.484375 344.992188 501.5 367.671875 C 500.746094 373.421875 500.015625 379.171875 499.261719 385.007812 L 469.394531 385.007812 C 469.945312 380.628906 470.472656 376.386719 471.023438 372.140625 C 472.960938 357.363281 474.910156 342.5 476.863281 327.902344 C 478.558594 315.125 480.074219 302.300781 482.074219 289.5 C 484.746094 272.433594 501.722656 257.164062 518.902344 256.488281 C 527.121094 256.128906 535.363281 256.429688 543.832031 256.429688 " fill-opacity="1" fill-rule="evenodd"/><path fill="#444444" d="M 703.414062 386.214844 L 703.414062 373.636719 L 703.347656 373.636719 L 698.40625 386.214844 L 696.835938 386.214844 L 691.894531 373.636719 L 691.816406 373.636719 L 691.816406 386.214844 L 689.347656 386.214844 L 689.347656 371.144531 L 693.1875 371.144531 L 697.679688 382.597656 L 702.101562 371.144531 L 705.917969 371.144531 L 705.917969 386.214844 Z M 681.542969 373.164062 L 681.542969 386.214844 L 679.074219 386.214844 L 679.074219 373.164062 L 674.355469 373.164062 L 674.355469 371.148438 L 686.28125 371.148438 L 686.28125 373.164062 L 681.566406 373.164062 " fill-opacity="1" fill-rule="nonzero"/><path fill="#444444" d="M 228.003906 213.519531 L 235.390625 213.519531 L 233.644531 202.335938 Z M 236.558594 220.75 L 224.273438 220.75 L 220.367188 228.410156 L 211.652344 228.410156 L 230.855469 192.476562 L 239.253906 192.476562 L 245.789062 228.410156 L 237.726562 228.410156 L 236.566406 220.75 " fill-opacity="1" fill-rule="nonzero"/><path fill="#444444" d="M 280.550781 199.820312 L 276.171875 199.820312 L 274.699219 208.105469 L 279.078125 208.105469 C 281.730469 208.105469 283.816406 206.371094 283.816406 203.097656 C 283.816406 200.933594 282.5 199.820312 280.539062 199.820312 Z M 269.953125 192.589844 L 281.449219 192.589844 C 287.46875 192.589844 291.667969 196.183594 291.667969 202.335938 C 291.667969 210.105469 286.1875 215.316406 278.375 215.316406 L 273.410156 215.316406 L 271.074219 228.453125 L 263.574219 228.453125 L 269.90625 192.523438 " fill-opacity="1" fill-rule="nonzero"/><path fill="#444444" d="M 317.15625 213.519531 L 324.546875 213.519531 L 322.800781 202.335938 Z M 325.691406 220.75 L 313.40625 220.75 L 309.5 228.410156 L 300.785156 228.410156 L 319.984375 192.476562 L 328.386719 192.476562 L 334.921875 228.410156 L 326.859375 228.410156 L 325.699219 220.75 " fill-opacity="1" fill-rule="nonzero"/><path fill="#444444" d="M 373.300781 227.21875 C 370.761719 228.375 367.976562 229.070312 365.167969 229.070312 C 355.671875 229.070312 349.71875 221.949219 349.71875 213.035156 C 349.71875 201.625 359.308594 192.039062 370.714844 192.039062 C 373.570312 192.039062 376.152344 192.722656 378.261719 193.878906 L 377.207031 202.480469 C 375.628906 200.734375 373.078125 199.515625 369.933594 199.515625 C 363.398438 199.515625 357.582031 205.421875 357.582031 212.269531 C 357.582031 217.480469 360.859375 221.566406 366.023438 221.566406 C 369.191406 221.566406 372.246094 220.347656 374.3125 218.671875 L 373.3125 227.203125 " fill-opacity="1" fill-rule="nonzero"/><path fill="#444444" d="M 420.457031 213.96875 L 404.851562 213.96875 L 402.3125 228.410156 L 394.835938 228.410156 L 401.167969 192.476562 L 408.667969 192.476562 L 406.152344 206.671875 L 421.761719 206.671875 L 424.296875 192.476562 L 431.800781 192.476562 L 425.464844 228.410156 L 417.964844 228.410156 L 420.480469 213.96875 " fill-opacity="1" fill-rule="nonzero"/><path fill="#444444" d="M 447.40625 228.339844 L 453.738281 192.410156 L 473.636719 192.410156 L 472.371094 199.640625 L 459.976562 199.640625 L 458.710938 206.601562 L 470.097656 206.601562 L 468.832031 213.832031 L 457.449219 213.832031 L 456.183594 221.066406 L 468.578125 221.066406 L 467.316406 228.296875 L 447.417969 228.296875 " fill-opacity="1" fill-rule="nonzero"/></svg>