<svg xmlns="http://www.w3.org/2000/svg" xmlns:xlink="http://www.w3.org/1999/xlink" width="1080" zoomAndPan="magnify" viewBox="0 0 810 809.999993" height="1080" preserveAspectRatio="xMidYMid meet" version="1.2"><defs><clipPath id="ccf368ca3c"><path d="M 2 4.050781 L 810 4.050781 L 810 805.800781 L 2 805.800781 Z M 2 4.050781 "/></clipPath></defs><g id="baedc658a5"><g clip-rule="nonzero" clip-path="url(#ccf368ca3c)"><path style=" stroke:none;fill-rule:evenodd;fill:#fefefe;fill-opacity:1;" d="M 339.429688 579.464844 L 311.28125 639.339844 L 287.621094 598.621094 L 241.230469 606.746094 L 273.433594 537.351562 C 276.875 540.40625 278.789062 545.261719 285.390625 555.355469 L 285.394531 555.367188 C 297.425781 573.738281 318.25 582.859375 339.429688 579.464844 Z M 404.851562 580.160156 C 423.007812 580.28125 440.121094 571.3125 450.5625 555.367188 L 450.585938 555.332031 C 457.328125 545 459.152344 540.160156 462.761719 537.128906 C 464.359375 535.792969 466.238281 534.855469 468.8125 533.8125 L 494.726562 594.300781 L 448.589844 584.863281 L 423.742188 624.863281 Z M 384.972656 293.695312 C 411.640625 313.632812 405.585938 311.429688 438.8125 313.292969 C 451.59375 314.011719 461.964844 322.691406 464.84375 335.132812 C 472.460938 367.554688 469.246094 361.96875 493.496094 384.78125 C 502.808594 393.5 505.179688 406.835938 499.421875 418.265625 C 484.398438 447.976562 485.5 441.628906 489.476562 474.683594 C 490.957031 487.382812 484.226562 499.109375 472.460938 504.101562 C 441.859375 517.222656 446.769531 513.074219 428.570312 540.96875 C 421.585938 551.632812 408.84375 556.289062 396.613281 552.566406 C 364.742188 542.957031 371.175781 542.957031 339.34375 552.566406 C 327.070312 556.289062 314.371094 551.632812 307.386719 540.96875 C 289.144531 513.074219 294.097656 517.222656 263.496094 504.101562 C 251.730469 499.109375 244.957031 487.382812 246.480469 474.683594 C 250.417969 441.628906 251.558594 447.976562 236.535156 418.265625 C 230.777344 406.835938 233.105469 393.5 242.460938 384.78125 C 266.710938 361.96875 263.496094 367.554688 271.074219 335.132812 C 273.992188 322.691406 284.363281 314.011719 297.144531 313.292969 C 330.371094 311.429688 324.320312 313.632812 350.984375 293.695312 C 361.226562 286.035156 374.730469 286.035156 384.972656 293.695312 Z M 367.957031 500.292969 C 411.722656 500.292969 447.363281 464.609375 447.363281 420.886719 C 447.363281 377.164062 411.722656 341.484375 367.957031 341.484375 C 324.234375 341.484375 288.554688 377.164062 288.554688 420.886719 C 288.554688 464.609375 324.234375 500.292969 367.957031 500.292969 Z M 138.117188 403.066406 L 190.675781 403.066406 C 189.664062 410.898438 182.914062 417.039062 174.820312 417.039062 L 154.007812 417.039062 C 145.914062 417.039062 139.136719 410.898438 138.117188 403.066406 Z M 121.699219 362.804688 L 207.128906 362.804688 C 206.113281 370.664062 199.335938 376.777344 191.238281 376.777344 L 137.589844 376.777344 C 129.464844 376.777344 122.710938 370.664062 121.699219 362.804688 Z M 105.675781 322.546875 L 223.121094 322.546875 C 222.109375 330.40625 215.359375 336.519531 207.261719 336.519531 L 121.566406 336.519531 C 113.441406 336.519531 106.6875 330.40625 105.675781 322.546875 Z M 134.257812 296.261719 L 105.542969 296.261719 C 100.820312 215.585938 65.835938 227.070312 65.835938 172.332031 C 65.835938 117.886719 109.972656 73.75 164.414062 73.75 C 218.855469 73.75 262.996094 117.886719 262.996094 172.332031 C 262.996094 227.070312 228.007812 215.585938 223.285156 296.261719 L 194.570312 296.261719 L 194.570312 209.09375 L 204.355469 209.09375 C 224.167969 209.09375 240.394531 192.871094 240.394531 173.054688 C 240.394531 153.195312 224.164062 136.984375 204.355469 136.984375 C 184.5 136.984375 168.285156 153.203125 168.285156 173.054688 L 168.285156 182.808594 L 160.542969 182.808594 L 160.542969 173.054688 C 160.542969 153.203125 144.328125 136.984375 124.472656 136.984375 C 104.667969 136.984375 88.4375 153.195312 88.4375 173.054688 C 88.4375 192.871094 104.660156 209.09375 124.472656 209.09375 L 134.257812 209.09375 Z M 168.285156 296.261719 L 160.542969 296.261719 L 160.542969 209.09375 L 168.285156 209.09375 Z M 134.257812 182.808594 L 124.472656 182.808594 C 119.113281 182.808594 114.722656 178.417969 114.722656 173.054688 C 114.722656 167.675781 119.109375 163.273438 124.472656 163.273438 C 129.859375 163.273438 134.257812 167.671875 134.257812 173.054688 Z M 194.570312 182.808594 L 194.570312 173.054688 C 194.570312 167.671875 198.96875 163.273438 204.355469 163.273438 C 209.722656 163.273438 214.105469 167.675781 214.105469 173.054688 C 214.105469 178.417969 209.714844 182.808594 204.355469 182.808594 Z M 177.558594 40.417969 C 177.558594 47.671875 171.667969 53.5625 164.414062 53.5625 C 157.160156 53.5625 151.269531 47.671875 151.269531 40.417969 L 151.269531 17.195312 C 151.269531 9.941406 157.160156 4.050781 164.414062 4.050781 C 171.667969 4.050781 177.558594 9.941406 177.558594 17.195312 Z M 101.4375 53.773438 C 105.058594 60.0625 102.898438 68.101562 96.613281 71.726562 C 90.328125 75.347656 82.285156 73.1875 78.664062 66.902344 L 67.066406 46.78125 C 63.445312 40.5 65.605469 32.453125 71.890625 28.832031 C 78.175781 25.210938 86.21875 27.371094 89.84375 33.65625 Z M 42.21875 103.402344 C 48.5 107.03125 50.648438 115.078125 47.019531 121.359375 C 43.390625 127.640625 35.34375 129.792969 29.0625 126.160156 L 8.945312 114.53125 C 2.664062 110.902344 0.511719 102.855469 4.144531 96.578125 C 7.773438 90.296875 15.820312 88.144531 22.097656 91.773438 Z M 250.125 66.914062 C 246.496094 73.195312 238.449219 75.347656 232.167969 71.71875 C 225.886719 68.089844 223.738281 60.042969 227.367188 53.761719 L 238.996094 33.640625 C 242.625 27.363281 250.671875 25.210938 256.953125 28.839844 C 263.230469 32.46875 265.382812 40.515625 261.753906 46.796875 Z M 299.773438 126.15625 C 293.496094 129.792969 285.449219 127.644531 281.8125 121.367188 C 278.179688 115.089844 280.324219 107.042969 286.601562 103.40625 L 306.691406 91.777344 C 312.96875 88.144531 321.015625 90.289062 324.648438 96.566406 C 328.28125 102.847656 326.136719 110.894531 319.859375 114.527344 Z M 532.246094 363.550781 L 549.011719 301.042969 L 594.757812 346.789062 Z M 720.425781 129.628906 L 742.714844 107.339844 C 753.175781 96.8125 770.332031 96.8125 780.792969 107.339844 L 788.460938 114.941406 C 798.921875 125.46875 798.921875 142.621094 788.460938 153.085938 L 766.171875 175.375 Z M 747.585938 193.960938 L 613.34375 328.203125 L 567.597656 282.457031 L 701.839844 148.214844 Z M 169.203125 575.296875 L 193.933594 640.351562 C 194.679688 642.328125 196.390625 643.554688 198.472656 643.660156 L 268.015625 647.078125 C 272.765625 647.292969 274.691406 653.273438 271.003906 656.210938 L 216.738281 699.847656 C 215.085938 701.128906 214.441406 703.160156 214.976562 705.191406 L 233.246094 772.378906 C 234.527344 776.921875 229.453125 780.605469 225.5 778.039062 L 167.226562 739.90625 C 165.46875 738.730469 163.328125 738.730469 161.566406 739.90625 L 103.347656 778.039062 C 99.398438 780.605469 94.324219 776.921875 95.550781 772.378906 L 113.816406 705.191406 C 114.351562 703.160156 113.710938 701.128906 112.054688 699.847656 L 57.789062 656.210938 C 54.105469 653.273438 56.027344 647.292969 60.78125 647.078125 L 130.324219 643.660156 C 132.40625 643.554688 134.113281 642.328125 134.863281 640.351562 L 159.59375 575.296875 C 161.246094 570.863281 167.546875 570.863281 169.203125 575.296875 Z M 761.363281 755.074219 C 761.363281 760.902344 758.410156 765.882812 753.308594 768.675781 C 748.207031 771.46875 742.457031 771.308594 737.519531 768.191406 C 731.609375 764.464844 725.65625 760.703125 719.625 757.015625 L 719.625 562.816406 C 725.980469 559.128906 732.214844 555.570312 738.207031 552.167969 C 743.1875 549.375 748.773438 549.414062 753.671875 552.289062 C 758.570312 555.164062 761.363281 560.019531 761.363281 565.6875 Z M 787.652344 689.398438 L 787.652344 631.363281 C 800.242188 635.003906 809.453125 646.617188 809.453125 660.382812 C 809.453125 674.144531 800.242188 685.757812 787.652344 689.398438 Z M 693.335938 751.144531 C 666.402344 735.351562 637.765625 721.363281 606.015625 714.429688 L 606.015625 607.941406 C 636.789062 599.8125 666.335938 583.929688 693.335938 568.484375 Z M 579.726562 712.523438 L 526.003906 712.523438 C 497.867188 712.523438 474.875 689.488281 474.875 661.394531 C 474.875 633.296875 497.867188 610.261719 526.003906 610.261719 L 579.726562 610.261719 Z M 558.222656 738.8125 L 596.15625 738.8125 L 596.15625 805.800781 L 586.316406 805.800781 C 570.851562 805.800781 558.222656 793.167969 558.222656 777.703125 Z M 102.105469 575.714844 C 105.039062 582.351562 102.03125 590.117188 95.398438 593.050781 C 88.761719 595.984375 80.992188 592.976562 78.0625 586.34375 C 60.777344 547.238281 51.171875 503.992188 51.171875 458.515625 C 51.171875 432.371094 54.347656 406.960938 60.335938 382.652344 C 62.066406 375.609375 69.195312 371.300781 76.238281 373.03125 C 83.28125 374.765625 87.59375 381.894531 85.859375 388.9375 C 80.371094 411.230469 77.460938 434.539062 77.460938 458.515625 C 77.460938 500.207031 86.257812 539.863281 102.105469 575.714844 Z M 466.070312 732.003906 C 472.898438 729.550781 480.429688 733.105469 482.882812 739.929688 C 485.335938 746.757812 481.785156 754.289062 474.957031 756.742188 C 441.527344 768.753906 405.5 775.300781 367.957031 775.300781 C 339.300781 775.300781 311.527344 771.484375 285.121094 764.339844 C 278.117188 762.445312 273.972656 755.21875 275.867188 748.21875 C 277.761719 741.214844 284.984375 737.070312 291.984375 738.964844 C 316.207031 745.519531 341.675781 749.015625 367.957031 749.015625 C 402.382812 749.015625 435.417969 743.015625 466.070312 732.003906 Z M 643.945312 367.667969 C 641.675781 360.777344 645.425781 353.339844 652.316406 351.070312 C 659.207031 348.800781 666.640625 352.550781 668.910156 359.441406 C 679.183594 390.613281 684.742188 423.921875 684.742188 458.515625 C 684.742188 473.296875 683.726562 487.84375 681.761719 502.085938 C 680.773438 509.273438 674.132812 514.304688 666.949219 513.3125 C 659.761719 512.320312 654.730469 505.683594 655.722656 498.5 C 657.523438 485.425781 658.453125 472.078125 658.453125 458.515625 C 658.453125 426.792969 653.363281 396.25 643.945312 367.667969 Z M 338.335938 169.515625 C 331.117188 170.246094 324.664062 164.980469 323.933594 157.765625 C 323.199219 150.546875 328.464844 144.09375 335.683594 143.359375 C 346.296875 142.285156 357.0625 141.734375 367.957031 141.734375 C 439.445312 141.734375 505.429688 165.464844 558.464844 205.464844 C 564.257812 209.835938 565.414062 218.082031 561.046875 223.875 C 556.675781 229.664062 548.425781 230.820312 542.636719 226.453125 C 494.007812 189.773438 433.503906 168.019531 367.957031 168.019531 C 357.957031 168.019531 348.074219 168.527344 338.335938 169.515625 Z M 338.335938 169.515625 "/></g></g></svg>