<svg xmlns="http://www.w3.org/2000/svg" xmlns:xlink="http://www.w3.org/1999/xlink" width="1080" zoomAndPan="magnify" viewBox="0 0 810 530.249967" height="707" preserveAspectRatio="xMidYMid meet" version="1.0"><defs><clipPath id="78553c11c2"><path d="M 29.011719 93.164062 L 242 93.164062 L 242 436 L 29.011719 436 Z M 29.011719 93.164062 " clip-rule="nonzero"/></clipPath><clipPath id="d79a31ae47"><path d="M 308 195 L 780.945312 195 L 780.945312 334 L 308 334 Z M 308 195 " clip-rule="nonzero"/></clipPath><clipPath id="27f92b254c"><path d="M 0.578125 0 L 809.421875 0 L 809.421875 529.242188 L 0.578125 529.242188 Z M 0.578125 0 " clip-rule="nonzero"/></clipPath></defs><g clip-path="url(#78553c11c2)"><path fill="#444444" d="M 102.546875 123.929688 C 98.757812 120.128906 93.503906 117.785156 87.644531 117.785156 C 81.804688 117.785156 76.589844 120.128906 72.847656 123.929688 L 72.753906 123.929688 C 68.976562 127.707031 66.636719 132.976562 66.636719 138.796875 C 66.636719 144.648438 68.976562 149.886719 72.753906 153.625 L 72.847656 153.730469 C 76.589844 157.496094 81.804688 159.808594 87.644531 159.808594 C 93.503906 159.808594 98.757812 157.496094 102.546875 153.730469 L 102.589844 153.625 C 106.378906 149.886719 108.695312 144.648438 108.695312 138.796875 C 108.695312 132.976562 106.378906 127.707031 102.589844 123.929688 Z M 87.644531 411.550781 C 93.503906 411.550781 98.757812 409.167969 102.546875 405.433594 L 102.589844 405.324219 C 106.378906 401.597656 108.695312 396.328125 108.695312 390.539062 C 108.695312 384.683594 106.378906 379.441406 102.589844 375.644531 L 102.546875 375.644531 C 98.757812 371.808594 93.503906 369.488281 87.644531 369.488281 C 81.804688 369.488281 76.589844 371.808594 72.847656 375.644531 L 72.753906 375.644531 C 68.976562 379.441406 66.636719 384.683594 66.636719 390.539062 C 66.636719 396.328125 68.976562 401.597656 72.753906 405.324219 L 72.847656 405.433594 C 76.589844 409.167969 81.804688 411.550781 87.644531 411.550781 Z M 202.125 347.890625 C 207.328125 346.523438 212.039062 343.183594 214.917969 338.132812 L 215.304688 337.394531 C 217.863281 332.609375 218.328125 327.078125 216.960938 322.167969 C 215.582031 316.929688 212.207031 312.28125 207.167969 309.386719 L 206.867188 309.1875 C 201.957031 306.492188 196.367188 305.902344 191.226562 307.304688 C 186 308.609375 181.304688 312.085938 178.445312 317.09375 C 175.546875 322.074219 174.945312 327.796875 176.328125 333.0625 C 177.761719 338.242188 181.109375 342.921875 186.121094 345.851562 L 186.152344 345.851562 C 191.175781 348.738281 196.851562 349.253906 202.125 347.890625 Z M 109.195312 243.136719 C 103.679688 237.636719 96.070312 234.1875 87.644531 234.1875 C 79.234375 234.1875 71.644531 237.636719 66.136719 243.136719 C 60.652344 248.632812 57.269531 256.210938 57.269531 264.632812 C 57.269531 273.058594 60.652344 280.667969 66.136719 286.226562 C 71.644531 291.695312 79.234375 295.109375 87.644531 295.109375 C 96.070312 295.109375 103.679688 291.695312 109.195312 286.226562 C 114.699219 280.667969 118.082031 273.058594 118.082031 264.632812 C 118.082031 256.210938 114.699219 248.632812 109.195312 243.136719 Z M 97.078125 207.328125 C 109.308594 209.339844 120.289062 215.199219 128.683594 223.652344 L 128.746094 223.652344 C 130.078125 224.984375 131.378906 226.449219 132.585938 227.914062 L 153.566406 215.78125 C 150.746094 207.257812 150.613281 198.347656 152.882812 189.988281 C 155.871094 178.800781 163.125 168.78125 174.003906 162.507812 L 174.355469 162.28125 C 185.113281 156.195312 197.339844 154.925781 208.375 157.917969 C 219.554688 160.914062 229.636719 168.203125 235.914062 179.058594 L 235.914062 179.09375 C 242.160156 189.894531 243.425781 202.285156 240.449219 213.441406 C 237.472656 224.628906 230.191406 234.714844 219.328125 240.953125 L 216.460938 242.644531 L 216.171875 242.644531 C 206.121094 247.429688 195.070312 248.179688 184.921875 245.503906 C 176.589844 243.300781 168.949219 238.644531 162.964844 232.042969 L 142.015625 244.144531 C 144.425781 250.515625 145.753906 257.378906 145.753906 264.632812 C 145.753906 271.851562 144.425781 278.816406 142.015625 285.21875 L 162.964844 297.285156 C 168.949219 290.582031 176.589844 286.035156 184.921875 283.820312 C 196.105469 280.765625 208.496094 282.0625 219.328125 288.378906 L 220.019531 288.699219 L 220.019531 288.734375 C 230.484375 295.078125 237.507812 304.863281 240.449219 315.921875 C 243.425781 327.011719 242.160156 339.410156 235.914062 350.234375 L 235.535156 350.988281 L 235.492188 350.925781 C 229.21875 361.355469 219.328125 368.421875 208.410156 371.414062 C 197.210938 374.367188 184.816406 373.105469 174.003906 366.882812 L 174.003906 366.796875 C 163.125 360.511719 155.871094 350.472656 152.882812 339.304688 C 150.613281 330.984375 150.746094 322.074219 153.566406 313.554688 L 132.585938 301.449219 C 131.378906 302.914062 130.078125 304.3125 128.746094 305.644531 L 128.683594 305.710938 C 120.289062 314.136719 109.308594 319.988281 97.078125 321.9375 L 97.078125 346.175781 C 105.792969 347.996094 113.59375 352.355469 119.707031 358.46875 L 119.738281 358.53125 C 127.933594 366.6875 133.007812 378.050781 133.007812 390.539062 C 133.007812 402.988281 127.933594 414.285156 119.738281 422.480469 L 119.707031 422.609375 C 111.453125 430.800781 100.136719 435.875 87.644531 435.875 C 75.222656 435.875 63.875 430.800781 55.640625 422.609375 L 55.605469 422.609375 L 55.605469 422.480469 C 47.40625 414.285156 42.320312 402.988281 42.320312 390.539062 C 42.320312 378.050781 47.40625 366.6875 55.605469 358.53125 L 55.605469 358.46875 L 55.640625 358.46875 C 61.746094 352.355469 69.566406 347.996094 78.246094 346.175781 L 78.246094 321.9375 C 66.019531 319.988281 55.058594 314.136719 46.679688 305.710938 L 46.589844 305.644531 C 36.125 295.144531 29.574219 280.667969 29.574219 264.632812 C 29.574219 248.632812 36.125 234.15625 46.589844 223.652344 L 46.679688 223.652344 C 55.058594 215.199219 66.019531 209.339844 78.246094 207.328125 L 78.246094 183.191406 C 69.566406 181.308594 61.746094 176.949219 55.640625 170.867188 L 55.605469 170.867188 L 55.605469 170.800781 C 47.40625 162.574219 42.320312 151.289062 42.320312 138.796875 C 42.320312 126.371094 47.40625 114.988281 55.605469 106.789062 L 55.640625 106.757812 C 63.875 98.53125 75.222656 93.460938 87.644531 93.460938 C 100.136719 93.460938 111.453125 98.53125 119.707031 106.757812 L 119.707031 106.789062 L 119.738281 106.789062 C 127.933594 114.988281 133.007812 126.371094 133.007812 138.796875 C 133.007812 151.289062 127.933594 162.574219 119.738281 170.800781 L 119.707031 170.867188 C 113.59375 176.949219 105.792969 181.308594 97.078125 183.191406 Z M 214.917969 191.226562 L 214.738281 190.964844 C 211.847656 186.085938 207.230469 182.835938 202.125 181.4375 C 196.851562 180.035156 191.175781 180.625 186.121094 183.519531 L 186.152344 183.519531 C 181.109375 186.382812 177.738281 191.058594 176.328125 196.300781 C 174.945312 201.503906 175.546875 207.257812 178.445312 212.269531 L 178.542969 212.398438 C 181.445312 217.34375 186.066406 220.660156 191.226562 221.996094 C 196.410156 223.460938 202.1875 222.839844 207.167969 219.941406 L 207.433594 219.8125 C 212.335938 216.886719 215.601562 212.269531 216.960938 207.195312 C 218.351562 201.957031 217.796875 196.234375 214.917969 191.226562 Z M 214.917969 191.226562 " fill-opacity="1" fill-rule="nonzero"/></g><g clip-path="url(#d79a31ae47)"><path fill="#444444" d="M 308 198.316406 L 331.40625 198.316406 L 331.40625 269.769531 L 365.164062 232.433594 L 393.230469 232.433594 L 352.476562 275.691406 L 393.398438 330.523438 L 366.597656 330.523438 L 331.40625 281.546875 L 331.40625 330.523438 L 308 330.523438 Z M 420.421875 281.902344 C 420.421875 294.070312 429.175781 311.757812 450.257812 311.757812 C 463.304688 311.757812 471.890625 304.960938 476.34375 296.050781 C 478.675781 291.726562 479.75 287.105469 480.109375 282.296875 C 480.273438 277.640625 479.394531 272.800781 477.414062 268.503906 C 473.3125 259.234375 464.203125 251.203125 450.085938 251.203125 C 431.15625 251.203125 420.421875 266.550781 420.421875 281.738281 Z M 503.332031 330.523438 L 479.910156 330.523438 L 479.910156 316.410156 C 473.679688 327.824219 460.628906 333.554688 446.867188 333.554688 C 415.414062 333.554688 397.019531 309.0625 397.019531 281.382812 C 397.019531 250.484375 419.347656 229.40625 446.867188 229.40625 C 464.730469 229.40625 475.628906 238.875 479.910156 246.746094 L 479.910156 232.433594 L 503.332031 232.433594 Z M 529.835938 250.484375 L 517.703125 250.484375 L 517.703125 232.433594 L 529.835938 232.433594 L 529.835938 226.90625 C 529.835938 197.761719 551.996094 196.003906 568.800781 195.808594 L 568.800781 213.828125 C 562.890625 213.828125 553.253906 213.828125 553.253906 227.617188 L 553.253906 232.433594 L 568.800781 232.433594 L 568.800781 250.484375 L 553.253906 250.484375 L 553.253906 330.523438 L 529.835938 330.523438 Z M 584.71875 198.316406 L 608.121094 198.316406 L 608.121094 269.769531 L 641.882812 232.433594 L 669.953125 232.433594 L 629.199219 275.691406 L 670.113281 330.523438 L 643.3125 330.523438 L 608.121094 281.546875 L 608.121094 330.523438 L 584.71875 330.523438 Z M 697.144531 281.902344 C 697.144531 294.070312 705.890625 311.757812 726.980469 311.757812 C 740.007812 311.757812 748.59375 304.960938 753.054688 296.050781 C 755.390625 291.726562 756.46875 287.105469 756.824219 282.296875 C 756.984375 277.640625 756.105469 272.800781 754.125 268.503906 C 750.027344 259.234375 740.917969 251.203125 726.808594 251.203125 C 707.875 251.203125 697.144531 266.550781 697.144531 281.738281 Z M 780.042969 330.523438 L 756.632812 330.523438 L 756.632812 316.410156 C 750.378906 327.824219 737.339844 333.554688 723.585938 333.554688 C 692.136719 333.554688 673.753906 309.0625 673.753906 281.382812 C 673.753906 250.484375 696.078125 229.40625 723.585938 229.40625 C 741.441406 229.40625 752.347656 238.875 756.632812 246.746094 L 756.632812 232.433594 L 780.042969 232.433594 Z M 780.042969 330.523438 " fill-opacity="1" fill-rule="nonzero"/></g><g clip-path="url(#27f92b254c)"><path stroke-linecap="butt" transform="matrix(0.748941, 0, 0, 0.748941, 0.57801, -0.0000199718)" fill="none" stroke-linejoin="miter" d="M 0.00015329 0.0000266667 L 1079.984 0.0000266667 L 1079.984 706.654449 L 0.00015329 706.654449 Z M 0.00015329 0.0000266667 " stroke="#444444" stroke-width="10" stroke-opacity="1" stroke-miterlimit="4"/></g></svg>