<svg width="32" height="18" viewBox="0 0 32 18" fill="none" xmlns="http://www.w3.org/2000/svg">
<path d="M21.9913 1.4605C21.3705 0.832795 20.3591 0.824877 19.7286 1.44286L7.90191 13.1316L2.76075 7.80921C2.14756 7.17012 1.13242 7.14914 0.493392 7.76232C-0.145702 8.37551 -0.166679 9.39066 0.446507 10.0297L0.454773 10.0382L6.72333 16.5345C6.87185 16.686 7.04896 16.8065 7.2444 16.8891C7.43984 16.9717 7.64973 17.0147 7.8619 17.0155H7.87955C8.30001 17.0142 8.70313 16.8478 9.00208 16.5521L21.9768 3.7232C22.6037 3.10154 22.6101 2.09015 21.9913 1.4605ZM16.345 16.5345C16.4931 16.6856 16.6697 16.8059 16.8646 16.8885C17.0594 16.9711 17.2687 17.0142 17.4803 17.0155H17.498C17.9184 17.0142 18.3216 16.8478 18.6205 16.5521L31.5954 3.7232C32.1835 3.06098 32.1234 2.04743 31.4612 1.45932C30.8609 0.926148 29.9588 0.919133 29.3503 1.44286L17.5284 13.1316L17.1066 12.6938C16.4935 12.0547 15.4784 12.0337 14.8393 12.6468C14.2002 13.26 14.1791 14.2751 14.7923 14.9142L14.8007 14.9228L16.345 16.5345Z" fill="#EAB308"/>
</svg>
